<?xml version="1.0" standalone="no"?>
<!DOCTYPE svg PUBLIC "-//W3C//DTD SVG 1.1//EN" "http://www.w3.org/Graphics/SVG/1.1/DTD/svg11.dtd" >
<svg>
<metadata>
Created by FontForge 20090914 at Fri Feb 24 06:13:21 2012
 By root
Copyright (c) 2000, 2006 Nick Curtis. All Rights Reserved. Distributed under non-exclusive license by 1001 Free Fonts.
</metadata>
<defs>
<font id="HobbyHorseNF" horiz-adv-x="777" >
  <font-face 
    font-family="Hobby Horse NF"
    font-weight="400"
    font-stretch="normal"
    units-per-em="1000"
    panose-1="2 9 6 6 5 4 5 2 7 2"
    ascent="746"
    descent="-254"
    x-height="327"
    cap-height="678"
    bbox="-37 -249 1207 877"
    underline-thickness="50"
    underline-position="-30"
    unicode-range="U+0020-U+2212"
  />
<missing-glyph horiz-adv-x="200" 
 />
    <glyph glyph-name=".notdef" horiz-adv-x="200" 
 />
    <glyph glyph-name="exclam" unicode="!" horiz-adv-x="169" 
d="M139 59q0 -23 -15.5 -39t-38.5 -16t-39 16t-16 39t16 38.5t39 15.5t38.5 -15.5t15.5 -38.5zM145 612q0 -19 -1.5 -37.5t-3.5 -37.5l-25 -340q-1 -15 -6 -28t-24 -13q-16 0 -23 10q-5 8 -6 15.5l-2 15.5q-5 62 -10.5 123.5t-9.5 123.5q-3 42 -6.5 84t-3.5 84q0 26 17 44
t44 18t43.5 -18t16.5 -44z" />
    <glyph glyph-name="quotedbl" unicode="&#x22;" horiz-adv-x="239" 
d="M70 508q-8 0 -14.5 4t-8.5 12q-6 24 -14.5 51.5t-8.5 51.5q0 21 13.5 31.5t32.5 10.5q20 0 32.5 -11t12.5 -32q0 -23 -9 -51t-14 -51q-5 -16 -22 -16zM170 508q-8 0 -14.5 4t-8.5 12q-6 24 -14.5 51.5t-8.5 51.5q0 21 13.5 31.5t32.5 10.5q20 0 32.5 -11t12.5 -32
q0 -23 -9 -51t-14 -51q-5 -16 -22 -16z" />
    <glyph glyph-name="numbersign" unicode="#" horiz-adv-x="378" 
d="M49 502h90l41 177h29l-29 -177h66l37 177h29l-25 -177h67v-34h-71l-11 -75h82v-34h-86l-50 -360h-75l74 360h-60l-58 -360h-75l82 360h-57v34h65l17 75h-82v34zM162 393h62l15 75h-65z" />
    <glyph glyph-name="dollar" unicode="$" horiz-adv-x="440" 
d="M416 186q0 -43 -17 -79t-46 -61.5t-66.5 -40t-79.5 -14.5q-31 0 -56 7q-2 -8 -4 -21t-6 -25t-11 -21t-19 -9t-19 9.5t-7 20.5q0 1 2 10.5t5 20.5l5.5 21t3.5 13q-26 14 -41 31.5l-33 39.5q-1 4 -2 7t-1 7v71q0 14 8 24t23 10q18 0 24 -12t9 -30t8 -38.5t22 -38.5l57 234
l-49 36t-45 39t-33 47t-13 60q0 40 17.5 70t45.5 50t63 30t71 10h13t13 -1l9 32q3 11 8.5 18t17.5 7q13 0 19.5 -9t6.5 -21q0 -1 -1.5 -6.5t-3 -12t-3.5 -12.5t-2 -8q28 -10 51 -25.5t27 -34.5v-66q0 -14 -8.5 -24t-23.5 -10q-18 0 -23 9t-8 22.5t-8.5 28.5t-23.5 28
l-43 -175l60 -43t54 -45.5t38.5 -55.5t14.5 -74zM316 165q0 25 -8 43t-21.5 31.5t-30.5 25l-35 24.5l-55 -230q18 -6 38 -6q23 0 43.5 9t35.5 24t24 35.5t9 43.5zM243 600q-2 1 -6.5 1h-19.5t-30.5 -6t-27.5 -16.5t-19.5 -24t-7.5 -29.5q0 -15 7 -27.5t17.5 -23t23 -20
t23.5 -16.5z" />
    <glyph glyph-name="percent" unicode="%" horiz-adv-x="500" 
d="M253 564q0 -23 -9 -43.5t-25 -35.5t-36.5 -23.5t-43.5 -8.5t-44 8.5t-36.5 23.5t-25 35.5t-9.5 43.5q0 24 9 44t25 35t37 23.5t44 8.5t44 -8.5t36.5 -23.5t24.5 -35t9 -44zM123 635q-23 0 -31.5 -18t-8.5 -37q0 -13 5.5 -28.5t15.5 -28.5t22.5 -22t27.5 -9q24 0 32 17.5
t8 37.5q0 13 -5.5 28.5t-15.5 28.5t-22.5 22t-27.5 9zM476 224q0 -23 -9 -43.5t-25 -35.5t-36.5 -23.5t-43.5 -8.5t-44 8.5t-36.5 23.5t-25 35.5t-9.5 43.5q0 24 9 44t25 35t37 23.5t44 8.5t44 -8.5t36.5 -23.5t24.5 -35t9 -44zM346 295q-23 0 -31.5 -18t-8.5 -37
q0 -13 5.5 -28.5t15.5 -28.5t22.5 -22t27.5 -9q24 0 32 17.5t8 37.5q0 13 -5.5 28.5t-15.5 28.5t-22.5 22t-27.5 9zM127 -1h-75l288 680h29z" />
    <glyph glyph-name="ampersand" unicode="&#x26;" horiz-adv-x="814" 
d="M790 495q0 -17 -5.5 -33t-13.5 -30q-18 -30 -40 -47t-47 -25.5t-52.5 -10.5t-56.5 -2h-31q-33 0 -66 -3q46 -20 67 -63t21 -91q0 -53 -24 -91.5t-61.5 -63.5t-85 -36.5t-93.5 -11.5q-52 0 -101.5 16t-91.5 45q-47 33 -66 80t-19 103q0 47 18 87.5t48 72t70 52.5t85 29
l-113 147q-5 7 -5 16q0 11 8 19.5t19 8.5h271q10 0 15 -8q1 -1 10.5 -15.5l21.5 -31.5l21.5 -31.5t10.5 -16.5q2 -4 2 -10q0 -11 -9 -18.5t-20 -7.5q-8 0 -14 4.5t-11 11.5t-9.5 14.5l-7.5 12.5h-194l70 -92q5 -6 8 -13t3 -15q0 -14 -13 -20t-24 -6q-36 -1 -65.5 -18
t-51 -44t-33 -61t-11.5 -67q0 -36 12.5 -70.5t35 -61.5t54.5 -43t70 -16q36 0 71 7.5t63.5 25t46 46t17.5 69.5q0 20 -6 39t-17.5 33.5t-28.5 23.5t-38 9q-20 0 -31.5 -13t-11.5 -32q0 -10 3.5 -16.5t8 -12.5l8.5 -11.5t4 -13.5q0 -11 -7.5 -16.5t-18.5 -5.5q-14 0 -24.5 10
t-17 24.5t-9.5 30t-3 26.5q0 40 16 72.5t50 54.5q78 52 172 52h53q22 0 47 1.5t45 7t33.5 16.5t13.5 29q0 8 -2 16.5t-2 16.5q0 11 6 18.5t17 7.5q10 0 17 -6.5t11.5 -15.5t6 -19.5t1.5 -18.5z" />
    <glyph glyph-name="quotesingle" unicode="'" horiz-adv-x="139" 
d="M70 508q-8 0 -14.5 4t-8.5 12q-6 24 -14.5 51.5t-8.5 51.5q0 21 13.5 31.5t32.5 10.5q20 0 32.5 -11t12.5 -32q0 -23 -9 -51t-14 -51q-5 -16 -22 -16z" />
    <glyph glyph-name="parenleft" unicode="(" horiz-adv-x="243" 
d="M126 235q0 -131 30 -260q11 -42 26 -81.5t33 -78.5q3 -6 3 -13q0 -10 -7.5 -20t-18.5 -10q-5 0 -9 0.5t-8 4.5q-44 37 -73 92.5t-46 118.5t-24.5 127.5t-7.5 119.5t7 120t24 128t46 118.5t74 93.5q5 5 14 5q14 0 22 -10.5t8 -23.5q-52 -97 -72.5 -210t-20.5 -221z" />
    <glyph glyph-name="parenright" unicode=")" horiz-adv-x="243" 
d="M24 669q0 11 10 21t21 10q5 0 12.5 -1.5t10.5 -3.5q44 -36 71.5 -92t43 -120t21 -129t5.5 -119q0 -53 -7.5 -118t-25 -129t-46.5 -120.5t-72 -90.5q-5 -5 -14 -5q-12 0 -20.5 9.5t-8.5 21.5q0 3 1 6.5t2 5.5l32 79t26 81q31 127 31 260q0 142 -34 275q-11 42 -25.5 75
l-30.5 72q-1 2 -2 6t-1 6z" />
    <glyph glyph-name="asterisk" unicode="*" horiz-adv-x="255" 
d="M204 513q-17 0 -31 10t-27 18q0 -2 2 -9l4.5 -15.5t4 -15t1.5 -7.5l1 -4q0 -14 -8.5 -22t-22.5 -8q-30 0 -30 30q0 12 4.5 25.5t7.5 25.5l-9.5 -6.5t-15 -9.5t-16.5 -9t-12 -4q-14 0 -23.5 9t-9.5 23q0 13 8.5 20t20.5 9.5t24.5 2.5h20.5q-5 4 -12.5 9.5t-15.5 12.5
t-13.5 15t-5.5 16q0 12 10.5 21.5t22.5 9.5q10 0 17.5 -7t12 -17t7.5 -20.5t6 -17.5q3 7 6.5 17.5t8.5 20.5t12 17t18 7t21.5 -9.5t10.5 -21.5q0 -9 -5.5 -16.5t-13 -14t-15.5 -12t-13 -9.5q8 -1 20.5 -1t24.5 -2.5t20.5 -9t8.5 -19.5q0 -11 -7.5 -21.5t-19.5 -10.5z" />
    <glyph glyph-name="plus" unicode="+" horiz-adv-x="431" 
d="M182 371v158h67v-158h158v-67h-158v-158h-67v158h-158v67h158z" />
    <glyph glyph-name="comma" unicode="," horiz-adv-x="159" 
d="M135 48q0 -18 -6 -33.5t-16 -26.5t-23 -17.5t-26 -6.5q-6 0 -11 5t-5 10q0 11 11 15.5t19 8.5q-22 2 -38 17t-16 38t16.5 38.5t38.5 15.5q28 0 42 -19t14 -45z" />
    <glyph glyph-name="hyphen" unicode="-" horiz-adv-x="237" 
d="M185 219h-161l28 81h161z" />
    <glyph glyph-name="period" unicode="." horiz-adv-x="157" 
d="M133 58q0 -23 -15.5 -39t-38.5 -16t-39 16t-16 39t16 38.5t39 15.5t38.5 -15.5t15.5 -38.5z" />
    <glyph glyph-name="slash" unicode="/" horiz-adv-x="334" 
d="M80 -67h-56l230 760h56z" />
    <glyph glyph-name="zero" unicode="0" horiz-adv-x="517" 
d="M258 667q58 0 102.5 -29t73.5 -76t44 -108t15 -124t-15 -123.5t-44 -107.5t-73.5 -76t-102.5 -29q-59 0 -102.5 29t-73 76t-44 107.5t-14.5 123.5t14.5 123.5t44 108t73 76.5t102.5 29zM258 58q31 0 54.5 23.5t39 61.5t23 87t7.5 100t-7.5 100t-23 87t-39 61.5
t-54.5 23.5q-32 0 -55 -23.5t-39 -61.5t-23.5 -87t-7.5 -100t7.5 -100t23.5 -87t39 -61.5t55 -23.5z" />
    <glyph glyph-name="one" unicode="1" horiz-adv-x="311" 
d="M287 43q0 -16 -14 -25t-33 -13.5t-38.5 -5.5t-30.5 -1q-10 0 -30 1t-39.5 5.5t-34 13.5t-14.5 24q0 14 9 24.5t23 10.5q7 0 16.5 -3t15.5 -6v458q-5 -3 -12.5 -8.5t-16 -11t-17 -9t-15.5 -3.5q-14 0 -23 9.5t-9 23.5q0 9 5 16t13 12l168 107q10 7 21 7q14 0 22.5 -11
t8.5 -23q0 -17 -14 -26l-26 -17v-524q8 2 16 5.5t17 3.5q14 0 23 -10t9 -24z" />
    <glyph glyph-name="two" unicode="2" horiz-adv-x="545" 
d="M521 467q0 -54 -20.5 -94t-52 -71.5t-70 -57.5l-75 -53t-67 -57.5t-45.5 -70.5h208q-4 10 -11.5 24t-7.5 23q0 14 10 23t24 9q13 0 23.5 -13t18 -31t12 -36.5t4.5 -28.5q0 -14 -8.5 -24t-23.5 -10h-327q-14 0 -23 9t-9 23q0 46 24.5 80.5t61.5 64.5t79.5 59t79.5 63
t61.5 76t24.5 100q0 31 -11.5 55.5t-31.5 41.5t-46 25.5t-56 8.5q-33 0 -61.5 -10.5t-49 -28t-32 -40.5t-11.5 -48q0 -21 9 -42t29 -41q14 0 24 6.5t25 6.5t21 -8.5t6 -22.5q0 -13 -8 -21.5t-20 -13.5t-25 -7t-23 -2q-29 0 -52.5 13t-40 34t-25.5 47t-9 53q0 50 22.5 86
t58.5 59.5t80 34.5t87 11q46 0 90.5 -13t79.5 -38.5t57 -63.5t22 -89z" />
    <glyph glyph-name="three" unicode="3" horiz-adv-x="564" 
d="M540 276q0 -52 -25.5 -102.5t-67 -90t-92.5 -64t-102 -24.5q-29 0 -58.5 3.5t-58 11.5t-54.5 22.5t-47 35.5q-11 11 -11 25q0 12 9 22t21 10q9 0 15 -2t13 -9q29 -29 66 -42.5t78 -13.5q43 0 80 18.5t63.5 49t41.5 69.5t15 81q0 25 -6 51.5t-19 48t-34 35t-50 13.5
q-16 0 -29.5 -6t-27.5 -6t-24.5 10t-10.5 24q0 8 9 23t21 31.5l23 30.5t15 20h-143q-2 -6 -5 -16.5t-7.5 -20.5t-11.5 -17t-17 -7q-14 0 -24.5 9t-10.5 24q0 9 4 23.5t9.5 31l11 32l8.5 24.5q2 8 13 15.5t19 7.5h291q15 0 25 -9t10 -24q0 -23 -15.5 -28t-32.5 -5h-15
l-72 -101q45 0 83.5 -17t66.5 -45.5t44 -67.5t16 -84z" />
    <glyph glyph-name="four" unicode="4" horiz-adv-x="540" 
d="M516 291q0 -6 -1 -11.5t-4 -10.5q-5 -8 -18.5 -17t-29.5 -17t-31.5 -14t-24.5 -7v-146l16.5 6t16.5 3q14 0 23 -10.5t9 -23.5q0 -16 -14 -25t-33 -13.5t-38.5 -5.5t-30.5 -1q-10 0 -30 1t-39.5 5.5t-34 13.5t-14.5 24q0 14 9 24.5t23 10.5q7 0 16.5 -3t15.5 -6v156
q-31 8 -62 15t-63 7q-18 0 -37 -4t-36 -8.5t-30 -8.5t-20 -4q-14 0 -22 10.5t-8 23.5q0 14 10 26l315 375q9 11 24 11q13 0 23.5 -10t10.5 -23v-336h10q12 0 21.5 3.5t17.5 7.5l15 7.5t14 3.5q11 0 21 -9t10 -20zM302 498l-143 -170q17 3 34 5t34 2q19 0 38 -2t37 -7v172z
" />
    <glyph glyph-name="five" unicode="5" horiz-adv-x="532" 
d="M508 263q0 -54 -21.5 -103t-58.5 -86t-86 -58.5t-103 -21.5q-57 0 -110 19t-94 59q-11 11 -11 25t9 23.5t23 9.5q9 0 23.5 -11.5t35.5 -25t50 -24.5t66 -11q41 0 72 18.5t52 47.5t31.5 66t10.5 73q0 33 -8 69t-25 66t-44.5 49.5t-66.5 19.5q-35 0 -56.5 -11.5t-36.5 -25
t-26.5 -25t-24.5 -11.5q-12 0 -21 5t-9 17v209q0 13 10.5 22.5t23.5 9.5h216q9 9 14 17.5t22 8.5q14 0 23.5 -9.5t9.5 -23.5q0 -3 -2 -9t-4 -9q-12 -21 -32.5 -35.5t-44.5 -23.5t-49.5 -13.5t-47.5 -4.5q-39 0 -76 10v-63q26 14 54 22.5t58 8.5q57 0 103.5 -21.5t80 -58.5
t52 -86t18.5 -104z" />
    <glyph glyph-name="six" unicode="6" horiz-adv-x="549" 
d="M290 490q59 0 103 -21t73.5 -56t44 -79.5t14.5 -90.5q0 -47 -15 -91.5t-44.5 -79.5t-74 -56.5t-104.5 -21.5q-66 0 -115.5 28.5t-82 75.5t-49 106.5t-16.5 122.5t17 124t50.5 109t84 77.5t117.5 29.5q20 0 49.5 -7t57 -19.5t47 -29t19.5 -35.5q0 -14 -10.5 -23t-23.5 -9
q-8 0 -20.5 9t-30 20t-40 20t-50.5 9q-41 0 -72 -23.5t-51.5 -62.5t-30.5 -88t-10 -100t10 -99t29.5 -86t49 -61t68.5 -23q34 0 60 15.5t43 40.5t25.5 57.5t8.5 66.5t-9 67.5t-26 60t-43.5 42.5t-60.5 16q-17 0 -31.5 -4.5t-26 -9.5l-21 -9.5t-15.5 -4.5q-14 0 -23 10t-9 24
q0 16 16.5 27.5t38.5 18.5t44.5 10t34.5 3z" />
    <glyph glyph-name="seven" unicode="7" horiz-adv-x="516" 
d="M492 630q0 -8 -3.5 -15.5t-8.5 -13.5q-26 -32 -50.5 -65.5t-44.5 -69.5q-28 -50 -49 -97.5t-35 -96.5t-22 -100.5t-9 -108.5q8 0 16.5 2.5t17.5 2.5q12 0 22 -9t10 -21q0 -15 -10.5 -24t-26 -13t-33 -5t-30.5 -1h-9q-11 0 -25.5 1t-28 5.5t-22.5 13t-9 24.5
q7 66 25 134.5t45 134.5t61.5 128t75.5 115h-247l-6.5 -18t-9 -19t-12.5 -15.5t-18 -6.5q-12 0 -22 8.5t-10 20.5q0 10 5 26t12 32.5t14.5 31.5t11.5 25q3 8 12 14.5t18 6.5h332q8 0 17 2.5t17 2.5q13 0 21 -10t8 -22z" />
    <glyph glyph-name="eight" unicode="8" horiz-adv-x="498" 
d="M474 210q0 -46 -19 -85.5t-50.5 -68.5t-72.5 -45.5t-86 -16.5t-85 15t-70.5 42t-48.5 65t-18 85q0 66 34.5 110.5t90.5 76.5q-38 22 -65 52.5t-27 77.5q0 35 15 63t39.5 47t55.5 29t64 10t64 -9.5t55.5 -28.5t39 -46.5t14.5 -63.5q0 -40 -19.5 -65t-51.5 -45
q30 -17 55.5 -36.5t44.5 -43.5t30 -53.5t11 -65.5zM217 350q-22 -11 -45 -25.5t-41.5 -32.5t-30 -40.5t-11.5 -50.5q0 -30 13 -56.5t34 -45.5t48.5 -30t57.5 -11q28 0 51 10t39.5 27t25.5 41t9 51q0 31 -14 56t-36 44.5t-48.5 35t-51.5 27.5zM338 519q0 22 -9.5 37.5
t-25 25.5t-34.5 15t-38 5q-27 0 -49 -16.5t-22 -45.5q0 -23 18.5 -41t36.5 -29l8 -4t12 -6.5t11 -6t7 -2.5q2 -2 5 -3t5 -3l23.5 12t24.5 16.5t19 21t8 24.5z" />
    <glyph glyph-name="nine" unicode="9" horiz-adv-x="548" 
d="M256 -6q-45 0 -86 17t-74 47q-13 11 -13 26q0 13 10 23t23 10q8 0 20.5 -9l29.5 -20.5t40 -20.5t52 -9q41 0 72 23.5t51.5 62t30.5 87.5t10 100t-10 99.5t-29.5 86.5t-49 61t-68.5 23q-35 0 -60.5 -15.5t-43 -41t-26 -57.5t-8.5 -66q0 -35 9 -68t26.5 -59t44 -42
t61.5 -16q16 0 30 4t26 9.5l21.5 9.5t15.5 4q14 0 23 -9t9 -23q0 -16 -16.5 -27.5t-38.5 -19t-44.5 -11t-34.5 -3.5q-59 0 -103 21t-73.5 56t-44 79t-14.5 91t15 92t44.5 80t74 56.5t104.5 21.5q66 0 115 -28.5t81.5 -75.5t49 -107t16.5 -123t-16.5 -124t-50 -109t-84 -77
t-117.5 -29z" />
    <glyph glyph-name="colon" unicode=":" horiz-adv-x="157" 
d="M133 58q0 -23 -15.5 -39t-38.5 -16t-39 16t-16 39t16 38.5t39 15.5t38.5 -15.5t15.5 -38.5zM133 258q0 -23 -15.5 -39t-38.5 -16t-39 16t-16 39t16 38.5t39 15.5t38.5 -15.5t15.5 -38.5z" />
    <glyph glyph-name="semicolon" unicode=";" horiz-adv-x="164" 
d="M133 258q0 -23 -15.5 -39t-38.5 -16t-39 16t-16 39t16 38.5t39 15.5t38.5 -15.5t15.5 -38.5zM140 48q0 -18 -6 -33.5t-16 -26.5t-23 -17.5t-26 -6.5q-6 0 -11 5t-5 10q0 11 11 15.5t19 8.5q-22 2 -38 17t-16 38t16.5 38.5t38.5 15.5q28 0 42 -19t14 -45z" />
    <glyph glyph-name="greater" unicode="&#x3e;" horiz-adv-x="416" 
d="M24 455v73l368 -160v-61l-368 -161v73l271 118z" />
    <glyph glyph-name="question" unicode="?" horiz-adv-x="423" 
d="M215 58q0 -23 -15.5 -39t-38.5 -16t-39 16t-16 39t16 38.5t39 15.5t38.5 -15.5t15.5 -38.5zM399 495q0 -41 -19 -74t-47.5 -61t-60.5 -53t-57 -50q-19 -19 -28 -42q-5 -11 -5.5 -25t-3 -26.5t-8 -21.5t-20.5 -9q-17 0 -21.5 13.5t-4.5 26.5q0 35 13 62.5t33 51t43 46
t43 47.5t33 54.5t13 68.5q0 18 -6.5 38.5t-18.5 38t-29 28.5t-38 11q-40 0 -64.5 -25.5t-24.5 -73.5q0 -10 2.5 -23t8 -24.5t14.5 -19.5t22 -8t21 -6.5t8 -20.5q0 -13 -8.5 -20t-20.5 -7q-29 0 -55 8t-46 24t-31.5 39.5t-11.5 54.5q0 37 16.5 66t43 49.5t59.5 31t67 10.5
q37 0 71.5 -13.5t60.5 -37.5t41.5 -56.5t15.5 -71.5z" />
    <glyph glyph-name="A" unicode="A" 
d="M753 42q0 -17 -14.5 -26t-34 -13.5t-39.5 -5.5t-31 -1t-30.5 1t-38.5 5.5t-33 14t-14 25.5q0 11 9.5 22t20.5 11q9 0 18 -3l-57 130h-191q-14 0 -24.5 8.5t-10.5 22.5q0 17 9.5 26t25.5 9h162l-105 241l-194 -446q11 3 22.5 7.5t22.5 4.5q14 0 23 -9.5t9 -23.5
q0 -15 -13 -24.5t-31 -14t-36.5 -6t-29.5 -1.5q-13 0 -34 0.5t-41 5t-34.5 14.5t-14.5 28q0 11 9 21t20 10q13 0 28 -5.5t28 -7.5l246 564q2 5 2 13q0 11 -5 21.5t-5 21.5q0 12 10.5 21.5t22.5 9.5q22 0 30 -22l273 -626l19 6.5t19 3.5q14 0 23 -9.5t9 -23.5z" />
    <glyph glyph-name="B" unicode="B" horiz-adv-x="631" 
d="M607 196q0 -52 -26 -89t-66 -61t-88 -35t-92 -11h-276q-15 0 -25 9t-10 24q0 22 16 27t33 5h14v547h-15q-17 0 -32 5t-15 28q0 15 10.5 23.5t24.5 8.5h268q30 0 59.5 -11.5t53 -32t38 -47.5t14.5 -58q0 -35 -14 -64t-40 -52q35 -12 65.5 -33t53.5 -49t36 -62t13 -72z
M193 362v-297h90q30 0 66.5 6.5t68 21.5t53 40.5t21.5 63.5q0 34 -16.5 64t-42.5 52.5t-58.5 35.5t-64.5 13h-117zM383 526q0 21 -10.5 37.5t-27 27t-36.5 16t-38 5.5h-78v-185h64q25 0 47.5 5t40 16.5t28 30.5t10.5 47z" />
    <glyph glyph-name="C" unicode="C" horiz-adv-x="651" 
d="M627 103q0 -7 -4 -13.5t-9 -11.5q-48 -43 -109 -65.5t-124 -22.5q-73 0 -138 27t-113.5 74t-77 110.5t-28.5 137.5q0 73 28 136.5t76.5 111t113 74.5t136.5 27q63 0 123 -23q10 -4 30 -13.5t39 -22.5t33.5 -27t14.5 -27v-80q0 -14 -9 -22.5t-23 -8.5t-22 7
q-5 4 -7.5 12.5l-5.5 18.5t-7 20.5t-11 19.5q-12 15 -30.5 30t-39.5 26t-43 18t-42 7q-56 0 -101 -25t-76.5 -65.5t-48.5 -91t-17 -102.5t17 -103t48.5 -91.5t76.5 -65.5t101 -25q47 0 83 13t62.5 28.5t44 28.5t26.5 13q13 0 23 -10.5t10 -23.5z" />
    <glyph glyph-name="D" unicode="D" horiz-adv-x="674" 
d="M650 322q0 -68 -25.5 -126.5t-69.5 -102t-103.5 -68.5t-126.5 -25h-267q-15 0 -24.5 8.5t-9.5 24.5q0 22 15 27t32 5h20v546h-20q-17 0 -32 5t-15 26q0 35 34 35h201q80 0 151 -23.5t124.5 -69t84.5 -111.5t31 -151zM196 612v-547h83q55 0 102.5 19.5t83 54t56 82
t20.5 102.5q0 58 -22 110.5t-60.5 92t-90 63t-110.5 23.5h-62z" />
    <glyph glyph-name="E" unicode="E" horiz-adv-x="535" 
d="M59 0q-15 0 -25 9t-10 24q0 21 16 26.5t35 5.5h36v547h-36q-19 0 -35 5.5t-16 27.5q0 15 10.5 23.5t24.5 8.5h370q12 0 19 -6t11.5 -15t6 -19.5t1.5 -19.5q0 -12 -0.5 -28.5t-5 -31.5t-13.5 -26t-25 -11q-14 0 -22 10t-8 20q0 14 5 28t5 34h-187v-161h162q-1 0 -2.5 9
t-1.5 11q0 14 10 22.5t24 8.5q12 0 19.5 -8.5t12 -21t6 -25.5t1.5 -22q0 -10 -1 -25.5t-5 -29.5t-12 -24.5t-23 -10.5q-12 0 -22 8.5t-10 20.5q0 2 1.5 11.5t2.5 10.5h-162v-321h231q0 20 -5 33.5t-5 27.5q0 13 10 22t23 9q15 0 23.5 -10.5t12 -25.5t4.5 -31t1 -26t-1.5 -21
t-5.5 -20.5t-11.5 -16t-19.5 -6.5h-414z" />
    <glyph glyph-name="F" unicode="F" horiz-adv-x="490" 
d="M466 617q0 -10 -1 -26.5t-5 -32t-12 -27t-23 -11.5q-11 0 -22 9.5t-11 20.5q0 14 4.5 28t4.5 34h-188v-161h162q0 5 -2 10t-2 10q0 13 10 22t23 9t21.5 -9.5t12.5 -23t5.5 -27.5t1.5 -24t-1.5 -24t-6 -27t-12.5 -22.5t-21 -9.5q-11 0 -22 9.5t-11 20.5q0 5 2 10.5t2 10.5
h-162v-320q9 2 16.5 5.5t16.5 3.5q14 0 23 -9.5t9 -23.5q0 -16 -13.5 -25t-31.5 -13.5t-37 -6t-30 -1.5t-31.5 1t-40.5 5.5t-35 13t-15 24.5q0 14 9 24.5t24 10.5q7 0 16 -3t15 -6v545h-36q-18 0 -33 6t-15 28q0 15 10 23.5t24 8.5h370q12 0 19 -6t11.5 -15t6 -19.5
t1.5 -19.5z" />
    <glyph glyph-name="G" unicode="G" horiz-adv-x="696" 
d="M672 246q0 -15 -10.5 -23.5t-24.5 -8.5v-63q11 -2 16.5 -11.5t5.5 -19.5q0 -8 -4 -14.5t-9 -11.5q-25 -23 -57 -42.5t-67 -33t-71.5 -21t-70.5 -7.5q-73 0 -138 27t-113.5 74t-76.5 110.5t-28 137.5q0 73 28 137t76 111t112.5 74t137.5 27q32 0 62.5 -5.5t59.5 -17.5
q10 -4 30 -13.5t39.5 -22.5t34 -27t14.5 -27v-80q0 -12 -10 -20.5t-22 -8.5q-13 0 -23 7q-5 4 -8 13.5l-7 21.5t-11 25.5t-20 25.5q-26 25 -64 44.5t-75 19.5q-56 0 -101 -25t-76.5 -65.5t-48.5 -91t-17 -102.5t16.5 -103t48 -91.5t76.5 -65.5t102 -25q41 0 80 11t74 30v119
h-84q-14 0 -24.5 8.5t-10.5 23.5t10 24t25 9h188q15 0 25.5 -8.5t10.5 -24.5z" />
    <glyph glyph-name="H" unicode="H" horiz-adv-x="667" 
d="M258 42q0 -16 -13.5 -25t-31.5 -13.5t-37 -6t-30 -1.5t-31.5 1t-40.5 5.5t-35 13t-15 24.5q0 13 8 24t22 11q8 0 17 -2.5t17 -6.5v541q-8 -2 -16.5 -5t-16.5 -3q-11 0 -21 8.5t-10 20.5q0 17 13 27t31 15t37 6.5t31 1.5q11 0 31.5 -1t40.5 -5.5t35 -13.5t15 -25
q0 -13 -7.5 -23.5t-21.5 -10.5q-10 0 -18.5 3.5t-17.5 5.5v-542q9 2 17 5.5t17 3.5q14 0 22.5 -9.5t8.5 -23.5zM643 40q0 -14 -13.5 -23t-31.5 -13.5t-36.5 -6t-28.5 -1.5q-11 0 -31.5 1t-41 5t-36 13t-15.5 25q0 13 7.5 24t21.5 11q6 0 18 -3.5t16 -5.5v323h-221
q-15 0 -25 9t-10 24t10.5 23.5t24.5 8.5h221v153q-8 0 -15.5 -4t-16.5 -4q-12 0 -21.5 8t-9.5 21q0 18 13.5 28t32.5 15t39 6t33 1q12 0 32 -1.5t38.5 -6.5t32 -15t13.5 -27q0 -11 -9 -20t-20 -9q-10 0 -18.5 3.5t-18.5 5.5v-542q9 2 17.5 5.5t17.5 3.5q14 0 22.5 -10.5
t8.5 -24.5z" />
    <glyph glyph-name="I" unicode="I" horiz-adv-x="281" 
d="M257 40q0 -15 -13.5 -24t-32 -13.5t-37.5 -5.5t-29 -1q-12 0 -32.5 0.5t-40 5t-34 14t-14.5 27.5q0 11 7.5 21.5t20.5 10.5q3 0 7.5 -1t9.5 -3t12 -3l5 -2v541q-8 0 -15.5 -4t-16.5 -4q-13 0 -21.5 8t-8.5 21q0 17 12.5 27t30 15t36.5 6.5t32 1.5t33.5 -1t40 -6t34 -15
t14.5 -28q0 -11 -9 -20t-20 -9q-10 0 -18 3.5t-18 5.5v-542q9 2 17 5.5t17 3.5q14 0 22.5 -10.5t8.5 -24.5z" />
    <glyph glyph-name="J" unicode="J" horiz-adv-x="416" 
d="M362 599q-9 0 -17.5 3.5t-17.5 5.5v-469q0 -34 -13.5 -61.5t-36.5 -47t-53 -30t-62 -10.5q-18 0 -41.5 7.5t-45 21t-36.5 31.5t-15 38q0 16 10 28.5t27 12.5q18 0 28 -11.5t19 -25.5t20 -25.5t30 -11.5q15 0 27 7.5t20.5 19.5t12.5 26.5t4 28.5v470q-8 -2 -16.5 -5
t-16.5 -3q-12 0 -21.5 8.5t-9.5 20.5q0 17 13 27t31 15t37 6.5t31 1.5q11 0 31.5 -1t40.5 -5.5t35 -13.5t15 -24q0 -14 -7.5 -24.5t-22.5 -10.5z" />
    <glyph glyph-name="K" unicode="K" horiz-adv-x="648" 
d="M624 65q0 -7 -6.5 -14.5t-11.5 -10.5q-6 -3 -18 -11t-25.5 -16t-26 -14t-18.5 -6q-5 0 -16 2.5t-14 7.5l-250 308l-46 -63v-180q9 2 17 5.5t17 3.5q14 0 22.5 -9.5t8.5 -23.5q0 -17 -14 -26t-33.5 -13.5t-39.5 -5.5t-31 -1t-30.5 1t-38.5 5.5t-32.5 14t-13.5 25.5
q0 12 8 22.5t21 10.5q9 0 17.5 -3l16.5 -6v541q-8 0 -16 -4t-17 -4q-12 0 -21 9t-9 21q0 17 13.5 27t32 15t38.5 6.5t33 1.5q10 0 29.5 -1.5t39 -6.5t33.5 -14t14 -24q0 -12 -7.5 -23t-21.5 -11q-10 0 -18.5 3.5t-17.5 5.5v-251l184 252q-10 -2 -19.5 -6t-19.5 -4
q-15 0 -23 10.5t-8 24.5t14 22.5t32.5 13.5t37 7t28.5 2t30.5 -1.5t41 -6t35.5 -14t15 -24.5q0 -12 -7.5 -23t-21.5 -11t-26 5t-26 7l-157 -215l219 -270q7 -8 17 -21.5t22 -13.5q8 0 16 4.5t17 4.5q17 0 24 -11.5t7 -25.5z" />
    <glyph glyph-name="L" unicode="L" horiz-adv-x="536" 
d="M59 0q-15 0 -25 9t-10 24q0 21 16 26.5t35 5.5h36v543q-9 -2 -18 -5.5t-18 -3.5q-14 0 -22.5 9.5t-8.5 23.5q0 15 13.5 24.5t31.5 14t37 6t30 1.5t31.5 -1t40.5 -5.5t35 -13.5t15 -25q0 -14 -7.5 -24t-21.5 -10q-7 0 -17 2.5t-16 5.5v-542h231v7q0 14 -5 27t-5 27
t11 22.5t24 8.5q12 0 19.5 -9.5t12 -22t6.5 -26t2 -22.5q0 -10 -1 -23t-5 -25t-12 -20.5t-21 -8.5h-414z" />
    <glyph glyph-name="M" unicode="M" 
d="M753 42q0 -15 -13 -24.5t-31 -14t-36.5 -6t-29.5 -1.5q-12 0 -33 1t-41.5 5.5t-35.5 13.5t-15 26q0 11 9.5 22t20.5 11q9 0 17.5 -2.5t16.5 -6.5v436l-182 -370q-9 -17 -30 -17q-8 0 -16.5 4.5t-12.5 12.5l-168 345v-415q13 2 27 7.5t26 5.5q14 0 23 -9.5t9 -23.5
q0 -15 -13 -24.5t-31 -14t-36.5 -6t-29.5 -1.5q-12 0 -32.5 1t-41 5.5t-35.5 13.5t-15 26q0 11 8.5 22t20.5 11q13 0 28 -5.5t27 -7.5v549q-14 -2 -27 -7t-26 -5q-14 0 -22.5 9.5t-8.5 23.5q0 16 14 25t33.5 14t39.5 6.5t31 1.5q7 0 16 -0.5t17.5 -2t15.5 -6t11 -11.5
l191 -392l100 199.5l98 199.5q7 5 12 7.5t10 4t10.5 1.5h13.5q11 0 30.5 -1.5t38.5 -6.5t33 -14.5t14 -25.5q0 -12 -8.5 -22t-21.5 -10q-10 0 -18.5 3.5t-17.5 5.5v-542q9 2 17 5.5t17 3.5q14 0 23 -9.5t9 -23.5z" />
    <glyph glyph-name="N" unicode="N" horiz-adv-x="694" 
d="M640 594q-14 0 -27.5 5.5t-27.5 7.5v-481q0 -14 1.5 -28.5t5.5 -28.5q5 -14 12.5 -25t7.5 -25q0 -11 -8.5 -20.5t-19.5 -9.5q-21 0 -33 15l-378 509v-451q13 2 27 7.5t26 5.5q14 0 23 -9.5t9 -23.5q0 -15 -13 -24.5t-31 -14t-36.5 -6t-29.5 -1.5q-13 0 -34 0.5t-41 5
t-34.5 14.5t-14.5 28q0 11 9 21t20 10q13 0 28 -5.5t27 -7.5v545q-14 -2 -27 -7.5t-26 -5.5q-12 0 -21.5 9t-9.5 21t5 20t19.5 14t32 9.5t34.5 5t26 1.5q13 0 32 -2t27 -13l320 -430v378q-14 -2 -27 -7.5t-26 -5.5q-14 0 -23 10t-9 23q0 16 14.5 25t34 14t39 6.5t30.5 1.5
t30.5 -1.5t39 -6.5t33.5 -14.5t14 -24.5q0 -11 -9 -22t-21 -11z" />
    <glyph glyph-name="O" unicode="O" horiz-adv-x="766" 
d="M742 339q0 -74 -28.5 -138t-77.5 -111t-114.5 -73.5t-138.5 -26.5q-74 0 -139 26.5t-114 73t-77.5 110.5t-28.5 139q0 74 29 138t78 111t114 73.5t138 26.5t138 -27t114 -74t78 -110.5t29 -137.5zM630 339q0 52 -17.5 103t-50 91t-78 65t-101.5 25q-57 0 -102.5 -24.5
t-78 -64.5t-49.5 -91t-17 -104t17 -104t49.5 -91.5t78 -65t102.5 -24.5t102.5 25t77.5 65t49.5 91t17.5 104z" />
    <glyph glyph-name="P" unicode="P" horiz-adv-x="501" 
d="M477 505q0 -39 -17 -71.5t-45 -56.5t-63.5 -37t-72.5 -13q-10 0 -21.5 0.5t-21 4t-15.5 10.5t-6 21q0 13 10 22t22 9q7 0 13 -1t13 -1q22 0 39 10t29 26t18.5 36t6.5 40q0 36 -13 59t-35.5 35.5t-51.5 17.5t-62 5q-11 0 -11 -11v-539q8 3 17 6t17 3q13 0 22 -10t9 -23
q0 -15 -14.5 -24.5t-34 -14.5t-39 -6.5t-30.5 -1.5q-12 0 -31.5 1.5t-38 6.5t-32.5 14.5t-14 25.5q0 12 8.5 22t21.5 10q9 0 17 -3l16 -6v532q-10 -2 -15.5 -6t-16.5 -4q-14 0 -22.5 9.5t-8.5 23.5q0 19 24 31t55 18.5t61.5 9t44.5 2.5q43 0 90.5 -9t87 -30t65 -56t25.5 -87
z" />
    <glyph glyph-name="Q" unicode="Q" horiz-adv-x="806" 
d="M750 -69q18 0 25 -9.5t7 -24.5t-15.5 -27.5t-36.5 -21.5t-43 -13.5t-34 -4.5q-38 0 -65.5 15.5t-47 40t-32 55.5t-20.5 63q-18 -6 -44 -10t-45 -4q-74 0 -142 25.5t-120 72t-82.5 110.5t-30.5 141q0 74 29 137.5t78 110.5t114 74t138 27t138 -27t114 -74t78 -110.5
t29 -137.5q0 -91 -44 -168.5t-121 -125.5q8 -17 17 -40.5t21.5 -44.5t29 -36t39.5 -15q12 0 21.5 3.5t17 7.5l14 7.5t13.5 3.5zM465 71l-11 24t-14 24.5t-19 19t-24 7.5q-9 0 -19.5 -3.5t-19.5 -9.5t-14.5 -15t-5.5 -19q0 -19 18.5 -31.5t36.5 -12.5q17 0 37 4.5t35 11.5z
M630 339q0 52 -17.5 103t-50 91t-78 65t-101.5 25q-57 0 -102.5 -24.5t-77.5 -65t-49.5 -91.5t-17.5 -103q0 -38 9 -76t27 -71.5t44 -62t60 -47.5q0 5 -0.5 8.5t-0.5 8.5q0 25 10.5 45.5t28 34.5t39.5 22t46 8q50 0 84 -23t58 -65q44 44 66.5 100t22.5 118z" />
    <glyph glyph-name="R" unicode="R" horiz-adv-x="650" 
d="M626 73q0 -8 -6 -14.5t-12 -10.5q-9 -5 -21 -13.5t-24.5 -16t-25 -13t-22.5 -5.5q-6 0 -13.5 3t-11.5 8l-267 330q-8 9 -8 23q0 13 10.5 22t22.5 9q7 0 13 -1t13 -1q22 0 39 10t29 26.5t18 36t6 39.5q0 40 -24 75q-11 15 -26.5 23.5t-33 12.5t-36.5 5t-36 1t-17 -11v-539
q8 3 17 6t17 3q14 0 23 -9.5t9 -23.5q0 -15 -14.5 -24.5t-34 -14.5t-39.5 -6.5t-31 -1.5t-30.5 1.5t-38.5 7t-33 14.5t-14 24q0 12 9.5 22.5t21.5 10.5q8 0 16.5 -3l16.5 -6v532q-10 -2 -16 -6t-17 -4q-14 0 -22.5 9.5t-8.5 22.5q0 20 24 32t55.5 19t62 9t44.5 2
q43 0 90.5 -8.5t87 -29.5t65 -56t25.5 -88q0 -59 -35.5 -101t-88.5 -62l169 -207q7 -8 17 -21.5t22 -13.5q9 0 16.5 4.5t16.5 4.5q16 0 23.5 -11.5t7.5 -25.5z" />
    <glyph glyph-name="S" unicode="S" horiz-adv-x="454" 
d="M430 193q0 -44 -17.5 -81.5t-47.5 -64.5t-69 -42t-82 -15q-54 0 -104 26t-81 72q-5 8 -5 16v75q0 14 8 24.5t24 10.5t24.5 -10t8.5 -25q0 -54 33.5 -89t88.5 -35q24 0 45 9t36.5 24.5t24.5 36.5t9 45q0 27 -10 48q-10 22 -34.5 43t-56 42l-65 43t-61.5 48.5t-46 57.5
t-18 70t17.5 69.5t45 52t62.5 33t71 11.5q20 0 44.5 -3.5t47.5 -12t43 -22t31 -33.5q3 -5 4 -14t1 -20q0 -12 -0.5 -23t-0.5 -17q0 -16 -9.5 -25.5t-25.5 -9.5q-15 0 -23.5 11t-8.5 25q0 18 -10 33t-25.5 25t-33.5 15.5t-34 5.5q-17 0 -34 -5.5t-30.5 -15.5t-22 -24.5
t-8.5 -33.5q0 -22 11 -37q9 -11 32 -30t50 -39l52 -38t39 -27q49 -35 79.5 -76.5t30.5 -103.5z" />
    <glyph glyph-name="T" unicode="T" horiz-adv-x="477" 
d="M453 606q0 -10 -1.5 -25t-6.5 -28.5t-13.5 -23t-21.5 -9.5t-22.5 8.5t-9.5 21.5q0 14 4.5 27.5t4.5 28.5v6h-96v-546q8 2 15.5 5.5t16.5 3.5q14 0 23.5 -9.5t9.5 -23.5q0 -15 -13 -24.5t-31 -14t-36.5 -6t-29.5 -1.5q-12 0 -33 1t-41.5 5.5t-35.5 13.5t-15 26
q0 11 9.5 22t21.5 11q10 0 17.5 -3.5t16.5 -5.5v546h-96v-6q0 -14 5 -27t5 -27t-10 -23t-23 -9q-12 0 -20 8t-13 20t-7.5 25t-2.5 22q0 10 1 24t5 27t12 22t22 9h349q13 0 21 -7.5t12 -18.5t5.5 -23.5t1.5 -21.5z" />
    <glyph glyph-name="U" unicode="U" horiz-adv-x="680" 
d="M627 599q-14 0 -27.5 5.5t-27.5 7.5v-412q0 -48 -21 -87t-55.5 -66t-77.5 -42t-88 -15q-44 0 -87.5 15t-78 42.5t-56 66t-21.5 86.5v407q-8 0 -15.5 -4t-16.5 -4q-12 0 -21.5 8t-9.5 21q0 18 13.5 28t32.5 15t39 6t33 1q12 0 32 -1.5t38.5 -6.5t32 -15t13.5 -27
q0 -11 -9 -20t-20 -9q-4 0 -18.5 3t-18.5 5v-407q0 -29 10.5 -55.5t28.5 -46.5t43.5 -32t55.5 -12q31 0 62 10t56.5 29t41.5 46t16 61v412q-14 -2 -27 -7.5t-26 -5.5q-12 0 -21.5 8t-9.5 21q0 17 13 27t31 15t37 6.5t31 1.5q11 0 31.5 -1t40.5 -5.5t35 -13.5t15 -25
q0 -13 -7.5 -23.5t-21.5 -10.5z" />
    <glyph glyph-name="V" unicode="V" horiz-adv-x="701" 
d="M644 595q-11 0 -21.5 5.5t-21.5 7.5l-224 -607q-4 -9 -13 -14t-18 -5t-18 5t-12 14l-225 604q-8 -2 -16.5 -6t-17.5 -4q-14 0 -23.5 10t-9.5 24q0 16 14 25.5t33 14t38.5 5.5t30.5 1q12 0 33.5 -0.5t43.5 -5t38 -14t16 -26.5q0 -14 -9.5 -24t-23.5 -10q-5 0 -11 2.5
t-10 4.5q-3 0 -7 2l160 -418l161 420q-9 -2 -17.5 -6.5t-18.5 -4.5q-13 0 -22.5 10t-9.5 23q0 15 11.5 24t28 14.5t34 7t28.5 1.5t30 -1.5t37 -6t31.5 -14t13.5 -25.5q0 -14 -9.5 -23.5t-23.5 -9.5z" />
    <glyph glyph-name="W" unicode="W" horiz-adv-x="918" 
d="M861 595q-11 0 -21.5 5.5t-21.5 7.5l-224 -607q-3 -8 -12 -13.5t-17 -5.5q-10 0 -19 4.5t-13 14.5l-78 222l-77 -222q-3 -9 -12.5 -14t-18.5 -5t-18 5t-12 14l-225 604q-8 -2 -17 -6t-18 -4q-14 0 -23.5 10t-9.5 24q0 16 14 25.5t33.5 14t39 5.5t30.5 1q16 0 32 -1t32 -3
q23 -3 46 -12q2 -1 3.5 -2t2.5 -1q5 5 18.5 8.5t29 6t30 3.5t22.5 1q10 0 27 -1t35 -3t34 -6.5t23 -11.5q5 6 16.5 10t25 6.5t26 4t20.5 1.5q11 0 30.5 -1t38 -6t32 -14.5t13.5 -25.5q0 -14 -9.5 -23.5t-23.5 -9.5q-11 0 -21.5 5.5t-21.5 7.5l-88 -231l73 -191l160 420
q-8 -3 -17 -7t-18 -4q-13 0 -22.5 10t-9.5 23q0 15 11.5 24t28 14.5t33.5 7t28 1.5t30 -1.5t37.5 -6t32 -14t13.5 -25.5q0 -14 -9.5 -23.5t-23.5 -9.5zM307 605q-9 -2 -17 -6t-17 -4t-17 5q-10 -5 -18 -5q-5 0 -11.5 2t-9.5 5q-2 0 -6 2l160 -418l49 128zM531 606
q-9 -2 -17 -6.5t-18 -4.5q-12 0 -20 8q-8 -8 -21 -8q-6 0 -14.5 3t-13.5 6l52 -136z" />
    <glyph glyph-name="X" unicode="X" horiz-adv-x="674" 
d="M650 42q0 -17 -16.5 -26.5t-39 -14t-44.5 -5t-34 -0.5t-34 0.5t-44.5 5t-39 14t-16.5 26.5q0 13 10 23t23 10q5 0 10 -1t8 -4l-126 206l-131 -214q11 2 24.5 7.5t24.5 5.5q14 0 23.5 -9.5t9.5 -23.5q0 -15 -13 -24.5t-31 -14t-36.5 -6t-29.5 -1.5q-12 0 -32.5 1t-41 5.5
t-35.5 13.5t-15 26q0 11 8 22t21 11q12 0 24 -4.5t23 -7.5l169 276l-165 269q-10 -2 -19 -5.5t-19 -3.5q-14 0 -23 9.5t-9 23.5q0 17 16.5 26t39 13.5t45 5.5t33.5 1q12 0 34 -1t44.5 -5.5t39 -14t16.5 -26.5q0 -12 -8.5 -22t-21.5 -10q-11 0 -20.5 3.5t-20.5 5.5l101 -165
l103 167q-11 -2 -22.5 -6.5t-22.5 -4.5q-14 0 -22.5 9.5t-8.5 23.5q0 15 13.5 24t31.5 14t37 6.5t30 1.5t31.5 -1t40.5 -5.5t35 -13.5t15 -25q0 -13 -7.5 -23.5t-21.5 -10.5q-13 0 -25.5 5t-26.5 7l-141 -231l194 -317q13 2 27 7t26 5q14 0 23 -9.5t9 -23.5z" />
    <glyph glyph-name="Y" unicode="Y" horiz-adv-x="675" 
d="M618 595q-9 0 -17 4.5t-17 6.5l-182 -272v-268q8 2 15.5 5.5t16.5 3.5q14 0 23.5 -9.5t9.5 -23.5q0 -15 -13 -24.5t-31 -14t-36.5 -6t-29.5 -1.5q-12 0 -33 1t-41.5 5.5t-35.5 13.5t-15 26q0 11 9.5 22t20.5 11q10 0 18 -3.5t17 -5.5v254l-195 290q-12 -2 -23.5 -6.5
t-22.5 -4.5q-14 0 -23 9.5t-9 23.5q0 17 16.5 26t39 13.5t45 5.5t33.5 1q12 0 34 -1t44.5 -5.5t39 -14t16.5 -26.5q0 -12 -8.5 -22t-21.5 -10q-7 0 -13.5 2.5t-12.5 2.5l134 -200l136 203q-10 -2 -18.5 -7t-19.5 -5q-14 0 -22.5 10.5t-8.5 23.5q0 15 11.5 24t28 14t33.5 6.5
t28 1.5t30 -1.5t37.5 -6t32 -14t13.5 -25.5q0 -14 -9.5 -23.5t-23.5 -9.5z" />
    <glyph glyph-name="Z" unicode="Z" horiz-adv-x="518" 
d="M57 0q-16 0 -24.5 9t-8.5 22q0 8 4 16l281 565h-216v-6q0 -15 5 -27.5t5 -26.5t-10 -23t-23 -9q-12 0 -20 8t-13.5 20t-7.5 25t-2 22q0 10 1 24t5.5 27t12 22t21.5 9h345q14 0 23.5 -9.5t9.5 -23.5q0 -6 -4 -14l-280 -565h267v7q0 15 -4.5 27.5t-4.5 26.5t10 22.5t24 8.5
q12 0 20 -9.5t12.5 -22t6.5 -26t2 -22.5q0 -10 -1 -23.5t-5 -25.5t-12 -20t-22 -8h-397z" />
    <glyph glyph-name="backslash" unicode="\" horiz-adv-x="334" 
d="M80 693l230 -760h-56l-230 760h56z" />
    <glyph glyph-name="bracketright" unicode="]" horiz-adv-x="230" 
d="M206 -229h-182v26h63v856h-63v25h182v-907z" />
    <glyph glyph-name="asciicircum" unicode="^" horiz-adv-x="368" 
d="M151 600h67l126 -288h-72l-88 199l-87 -199h-73z" />
    <glyph glyph-name="underscore" unicode="_" horiz-adv-x="500" 
d="M500 -19v-36h-500v36h500z" />
    <glyph glyph-name="grave" unicode="`" horiz-adv-x="218" 
d="M194 387q0 -15 -9.5 -23t-23.5 -8q-11 0 -17 7t-11 16.5t-10 20t-13 17.5q-11 10 -22.5 15t-22 8t-19.5 6t-13 9q-9 12 -9 26q0 15 9 24.5t24 9.5q20 0 44 -12t44.5 -31t34.5 -41.5t14 -43.5z" />
    <glyph glyph-name="a" unicode="a" horiz-adv-x="439" 
d="M415 47q0 -14 -14 -23.5t-33 -15t-38.5 -8t-29.5 -2.5q-14 0 -25 1.5t-23 11.5q-27 -8 -53 -8q-36 0 -68 12t-56 34t-37.5 52.5t-13.5 67.5q0 36 18.5 66.5t47.5 52.5t64.5 34.5t68.5 12.5h84q11 0 19 -8.5t8 -19.5v-251q13 2 28.5 10.5t25.5 8.5q12 0 19.5 -8.5
t7.5 -19.5zM246 280h-20q-52 0 -82 -30.5t-30 -82.5q0 -20 5.5 -39.5t17 -35t28 -25t38.5 -9.5q10 0 22 2.5t21 6.5v213z" />
    <glyph glyph-name="b" unicode="b" horiz-adv-x="381" 
d="M357 169q0 -35 -13 -65t-36 -52.5t-53.5 -35.5t-64.5 -13t-64.5 13t-53 35.5t-35.5 53t-13 64.5v423q0 19 7.5 36.5t20 30.5t29.5 20.5t37 7.5q18 0 35 -7t29.5 -19t20.5 -28.5t8 -34.5q0 -13 -8 -20t-20 -7q-13 0 -17.5 7t-7 16t-7 16t-17.5 7q-10 0 -16 -7t-6 -16v-280
q18 10 39.5 15.5t42.5 5.5q33 0 63 -13.5t52 -36.5t35 -53t13 -63zM190 58q18 0 31 9.5t22 25t13.5 35t4.5 40.5t-4.5 41t-13.5 36t-22.5 25.5t-31.5 9.5t-31 -9.5t-21.5 -24.5t-13 -34.5t-4.5 -40.5t4.5 -41.5t13.5 -36t22 -25.5t31 -10z" />
    <glyph glyph-name="c" unicode="c" horiz-adv-x="358" 
d="M334 73q0 -16 -16.5 -29t-38.5 -22t-44.5 -14t-35.5 -5q-35 0 -66.5 12.5t-55.5 34.5t-38.5 52.5t-14.5 66.5t14.5 66t38.5 52.5t55.5 35t66.5 12.5q17 0 37.5 -5t38 -15t29.5 -25.5t12 -36.5q0 -14 -6.5 -24.5t-16.5 -18t-23 -11.5t-25 -4q-9 0 -21 2.5t-22 7.5t-17 13
t-7 19t8.5 17.5t18.5 6.5q5 0 9.5 -2t9.5 -2q2 3 2 5q0 9 -8.5 13.5t-16.5 4.5q-21 0 -36 -10.5t-25.5 -27t-15.5 -36t-5 -37.5q0 -21 6 -40.5t17.5 -34.5t29 -24.5t40.5 -9.5q18 0 32.5 6.5t25.5 14l20 14t16 6.5q11 0 19.5 -8.5t8.5 -19.5z" />
    <glyph glyph-name="d" unicode="d" horiz-adv-x="477" 
d="M453 599q0 -11 -7 -21t-19 -10q-13 0 -18 7.5t-8 17t-7.5 17t-16.5 7.5q-10 0 -16.5 -6.5t-6.5 -16.5v-538q13 2 28 10.5t26 8.5q27 0 27 -28q0 -14 -14.5 -23.5t-33.5 -15t-38.5 -8t-29.5 -2.5q-17 0 -31 3t-21 20q-18 -8 -37 -13t-39 -5q-35 0 -65 13t-53 35.5
t-36 52.5t-13 65q0 34 13.5 64.5t36 53t53 35.5t64.5 13q20 0 39 -5t36 -13v275q0 19 7.5 36.5t20 30.5t29.5 20.5t37 7.5q18 0 34.5 -7t29.5 -19t21 -28t8 -34zM191 58q18 0 32 9.5t23 25t13.5 35t4.5 40.5t-4.5 41t-14 36t-23 25.5t-31.5 9.5t-32 -9.5t-23 -25t-13.5 -35
t-4.5 -40.5t4.5 -41t14 -36t23 -25.5t31.5 -9.5z" />
    <glyph glyph-name="e" unicode="e" horiz-adv-x="362" 
d="M338 225q0 -29 -14 -49.5t-36.5 -34t-50 -20t-54.5 -6.5q-36 0 -62 10q2 -11 9 -22.5t17.5 -21t24 -15.5t28.5 -6q22 0 39 6.5t29.5 14t21.5 14t17 6.5q11 0 19 -8.5t8 -19.5q0 -16 -16.5 -29t-38.5 -22t-44.5 -14t-35.5 -5q-35 0 -66.5 12.5t-55.5 34.5t-38.5 52.5
t-14.5 66.5q0 34 14 64.5t37 53t54 35.5t65 13q24 0 49.5 -7t46.5 -20.5t34.5 -34t13.5 -48.5zM254 225q0 29 -19 42t-42 13q-16 0 -29.5 -9t-23.5 -22.5t-15.5 -30.5t-5.5 -33q20 -14 54 -14q29 0 53.5 12.5t27.5 41.5z" />
    <glyph glyph-name="f" unicode="f" horiz-adv-x="297" 
d="M280 598q0 -17 -11.5 -30.5t-28.5 -13.5q-18 0 -31.5 14t-13.5 32q0 6 1 11.5t3 11.5q-2 1 -7 1q-8 0 -13 -5.5t-5 -13.5v-281q8 3 18 8t19 5q11 0 18.5 -8.5t7.5 -19.5q0 -9 -7 -16.5t-17 -12.5t-21 -8t-18 -4v-229q0 -42 -10.5 -85t-31.5 -81.5t-52 -69t-71 -48.5
q-8 -4 -20 -4q-9 0 -17.5 5.5t-8.5 15.5q0 11 5 19q5 7 13.5 11.5t19.5 11.5t22.5 18.5t22.5 31.5q19 35 29.5 80.5t10.5 85.5v248q-8 -2 -15.5 -5t-15.5 -3q-13 0 -19 5.5t-11 16.5v6q0 10 6.5 16.5t16.5 10.5t20 5.5t18 2.5v259q0 19 7.5 36.5t20 30.5t29.5 20.5t37 7.5
q16 0 34 -6t32.5 -17.5t24 -28t9.5 -37.5z" />
    <glyph glyph-name="g" unicode="g" horiz-adv-x="383" 
d="M359 315q0 -14 -9.5 -25t-12.5 -24q-6 -23 -10 -48.5t-4 -48.5v-275q0 -29 -11 -54t-29.5 -43.5t-44 -29.5t-53.5 -11q-31 0 -56.5 11t-43.5 30.5t-28 46t-10 56.5q0 12 9 17.5t19 5.5q11 0 18 -7q5 -5 7 -19t8 -30t19.5 -28t40.5 -12q29 0 48.5 19.5t19.5 48.5v115
q-9 -4 -23 -5.5t-23 -1.5q-37 0 -67.5 12t-52.5 34t-34 52.5t-12 67.5q0 33 14 61t37 49.5t52.5 35t60.5 18.5q14 2 27.5 2.5t27.5 0.5q19 0 37.5 -0.5t36.5 -0.5q6 0 11.5 1t11.5 1q10 0 14.5 -6.5t4.5 -15.5zM219 280q-21 0 -40 -10t-33 -26t-22.5 -36.5t-8.5 -40.5
q0 -17 3.5 -36t12 -35t22.5 -27t34 -11q25 0 49 9q0 17 -0.5 35.5t-0.5 37.5q0 37 5.5 73t25.5 67h-47z" />
    <glyph glyph-name="h" unicode="h" horiz-adv-x="442" 
d="M418 37q0 -12 -10 -19.5t-24 -11.5t-28.5 -5t-23.5 -1q-8 0 -22.5 1.5t-28.5 5t-24.5 10.5t-10.5 19q0 29 29 29q1 -1 5 -1v131q0 29 -12.5 52t-45.5 23q-20 0 -33.5 -10t-22.5 -25t-13 -33.5t-4 -34.5v-107q5 0 10.5 2.5t10.5 2.5q9 0 17 -5.5t8 -21.5
q0 -12 -11.5 -19.5t-26.5 -11.5t-30.5 -5.5t-24.5 -1.5q-8 0 -21.5 1.5t-26 5.5t-21.5 11t-9 18q0 29 25 29q4 0 12 -2v529q0 19 7.5 36.5t20 30.5t29.5 20.5t37 7.5q16 0 33 -7t30 -18.5t21.5 -27t8.5 -33.5q0 -16 -7.5 -22.5t-18.5 -6.5q-12 0 -17 7t-9 15.5t-8.5 15.5
t-16.5 7q-10 0 -16 -7t-6 -16v-291q19 15 41.5 23.5t46.5 8.5q57 0 97 -38q40 -40 40 -98v-139q1 2 8.5 3.5t9.5 1.5q12 0 19 -8.5t7 -19.5z" />
    <glyph glyph-name="i" unicode="i" horiz-adv-x="234" 
d="M210 36q0 -12 -10.5 -19t-25 -10.5t-29 -5t-22.5 -1.5t-22.5 1t-28.5 5t-24 11t-10 19q0 15 7.5 21.5t18.5 6.5q6 0 10 -1v189q-5 -2 -11.5 -5t-12.5 -3q-12 0 -19 9t-7 20q0 9 5 15t13 9q22 9 43.5 19t43.5 18h6q11 0 19 -8t8 -19v-248l10.5 4t11.5 2q15 0 20.5 -8.5
t5.5 -20.5zM152 479q0 -23 -16 -39t-39 -16t-39 16t-16 39t16 39t39 16t39 -16t16 -39z" />
    <glyph glyph-name="j" unicode="j" horiz-adv-x="213" 
d="M34 -243q-14 0 -24 7.5t-10 22.5q0 19 11 27t23.5 16t23.5 21.5t11 43.5v269q0 23 4 45.5t12 43.5l-17 -6.5t-18 -3.5q-15 0 -20.5 8t-5.5 21q0 8 6.5 15t13.5 9q9 3 25.5 10t34 13.5t34 11.5t25.5 5q10 0 18 -7t8 -17q0 -13 -5 -25l-11 -27.5t-11 -37t-5 -53.5v-275
q0 -23 -10 -47.5t-27 -44.5t-39 -32.5t-47 -12.5zM155 479q0 -23 -16 -39t-39 -16t-39 16t-16 39t16 39t39 16t39 -16t16 -39z" />
    <glyph glyph-name="k" unicode="k" horiz-adv-x="427" 
d="M403 36q0 -12 -10.5 -19t-25 -10.5t-29 -5t-22.5 -1.5q-9 0 -23.5 1.5t-28.5 5t-24 11t-10 19.5q0 9 7 17.5t16 10.5q-14 23 -29.5 41t-38.5 32q-13 8 -13 25q3 7 3.5 11t7.5 9t24 5.5t35 3.5t31.5 12t13.5 30q0 18 -15.5 25t-30.5 7q-18 0 -34.5 -8.5t-28.5 -22t-19 -31
t-7 -35.5v-108q2 1 6 2q6 2 11 2q12 0 19 -8.5t7 -19.5q0 -12 -10 -19.5t-24 -11.5t-28.5 -5t-23.5 -1t-23.5 1t-28 5t-23.5 11.5t-10 20.5q0 27 28 27q3 0 7.5 -2.5t5.5 -1.5v531q0 19 7.5 36.5t20 30.5t29.5 20.5t37 7.5q32 0 60 -22t33 -55q0 -3 1 -5q-2 -6 -3.5 -11.5
t-4 -10.5t-7 -8t-13.5 -3q-12 0 -17 7t-8 15.5t-7.5 15.5t-16.5 7q-10 0 -16.5 -6.5t-6.5 -16.5v-301q25 21 53.5 29t60.5 8q20 0 39.5 -6t35 -17.5t25 -28.5t9.5 -38q0 -36 -24.5 -60t-56.5 -35q38 -35 63 -85l9 3.5t10 1.5q26 0 26 -29z" />
    <glyph glyph-name="l" unicode="l" horiz-adv-x="278" 
d="M254 602q0 -11 -8.5 -20.5t-21.5 -9.5q-4 3 -7.5 3.5t-7.5 4.5q-5 5 -7 11.5t-4.5 12t-7 9.5t-13.5 4q-10 0 -16.5 -6.5t-6.5 -16.5v-533q2 0 7 2t10 2q12 0 19.5 -8.5t7.5 -19.5t-10 -18t-23.5 -11.5t-27 -6t-21.5 -1.5q-9 0 -24.5 1t-30.5 4.5t-26 11t-11 20.5t9 20.5
t21 7.5q2 0 6.5 -1.5t5.5 -2.5v531q0 19 7.5 36.5t20.5 30.5t30 20.5t37 7.5q16 0 33 -7t30 -18.5t21.5 -27t8.5 -32.5z" />
    <glyph glyph-name="m" unicode="m" horiz-adv-x="644" 
d="M620 36q0 -11 -9.5 -18t-23 -11t-27 -5.5t-21.5 -1.5q-9 0 -24.5 1t-30.5 4.5t-26 11t-11 19.5q0 14 8.5 21.5t21.5 7.5q5 0 8.5 -2.5t8.5 -2.5q10 20 14.5 43t4.5 46q0 15 -2.5 34.5t-9 37t-19 30t-32.5 12.5q-19 0 -33.5 -9.5t-22.5 -26.5q2 -16 3 -32t1 -33
q0 -25 -1 -49.5t-1 -48.5q3 1 9 1q12 0 19.5 -8.5t7.5 -20.5t-10.5 -19t-25 -10.5t-29 -5t-22.5 -1.5q-9 0 -23.5 1t-28 5t-23.5 11.5t-10 20.5t9 20t20 7q4 0 7 -1.5t7 -2.5v134q0 29 -12.5 52t-45.5 23q-20 0 -34 -10t-23 -25t-13 -33.5t-4 -35.5v-107q6 2 11 4t11 2
q12 0 19 -9t7 -20q0 -12 -10.5 -19t-25 -10.5t-29 -5t-22.5 -1.5q-9 0 -23.5 1.5t-28.5 5t-24 11t-10 19.5q0 13 9 20.5t21 7.5q2 0 5.5 -1t5.5 -2v186q-8 -5 -18 -10.5t-20 -5.5q-12 0 -18.5 8.5t-6.5 19.5q0 16 16 24q7 3 21.5 11.5l31 17.5t31 15.5t20.5 6.5
q14 0 20.5 -9.5t6.5 -22.5q20 14 42.5 23t46.5 9q64 0 106 -48q20 23 47 35.5t57 12.5t56 -11.5t44.5 -31t29.5 -45.5t11 -56q0 -67 -31 -129q6 3 13 3q12 0 19.5 -8.5t7.5 -20.5z" />
    <glyph glyph-name="n" unicode="n" horiz-adv-x="429" 
d="M405 36q0 -12 -11.5 -19.5t-26.5 -11t-30.5 -4.5t-24.5 -1q-8 0 -21.5 1.5t-26 5.5t-22 11t-9.5 18q0 29 29 29q5 0 10 -3t10 -3q11 23 15 48.5t4 51.5q0 14 -3 32t-10.5 34t-19.5 27t-30 11q-14 0 -26 -6t-20.5 -16t-13.5 -23t-5 -26v-132q1 2 8.5 3.5t9.5 1.5
q12 0 19 -8.5t7 -19.5q0 -12 -10 -19.5t-24 -11.5t-28.5 -5t-23.5 -1q-8 0 -22.5 1.5t-28.5 5t-24.5 10.5t-10.5 19q0 29 29 29q2 0 7.5 -1.5t7.5 -2.5v187q-8 -4 -18.5 -10t-20.5 -6q-11 0 -18.5 8.5t-7.5 19.5q0 9 4.5 14.5t12.5 9.5q7 3 21.5 11.5l31 17.5t31 15.5
t20.5 6.5q13 0 20.5 -9t7.5 -21q36 30 85 30q30 0 55 -11.5t44 -31t29.5 -46t10.5 -55.5q0 -35 -9 -67.5t-25 -62.5q10 4 16 4q12 0 19 -9t7 -20z" />
    <glyph glyph-name="o" unicode="o" horiz-adv-x="390" 
d="M366 161q0 -35 -14 -65t-37 -52.5t-54.5 -35t-65.5 -12.5q-35 0 -66 12.5t-54 34.5t-37 52.5t-14 65.5t13.5 65.5t37 53t54.5 35t66 12.5q34 0 65.5 -13t54.5 -35.5t37 -52.5t14 -65zM172 267q-32 0 -46.5 -21.5t-14.5 -52.5q0 -23 7.5 -47.5t21.5 -44.5t34 -33t44 -13
q32 0 46.5 21.5t14.5 50.5q0 23 -8 48t-22 45.5t-33.5 33.5t-43.5 13z" />
    <glyph glyph-name="p" unicode="p" horiz-adv-x="457" 
d="M433 164q0 -35 -13.5 -65t-36 -52t-53 -35t-64.5 -13q-39 0 -75 17v-200q3 3 7.5 4t9.5 1q12 0 19.5 -8t7.5 -19q0 -12 -9.5 -19.5t-22.5 -11.5t-26.5 -5.5t-22.5 -1.5q-11 0 -26.5 1t-30 5t-25 12t-10.5 23q0 11 6.5 17.5t18.5 6.5q5 0 8.5 -1t7.5 -2v457
q-11 -3 -28.5 -10.5t-25.5 -7.5q-10 0 -17.5 7.5t-7.5 17.5q0 15 12 25t30 16t39 9t39 3q14 0 27.5 -3.5t18.5 -19.5q18 8 37 13t39 5q34 0 64.5 -13t53 -35.5t36 -53t13.5 -64.5zM341 164q0 16 -4.5 35t-14 36t-23.5 28.5t-33 11.5q-20 0 -34.5 -12t-23.5 -29.5t-13 -37.5
t-4 -36q0 -15 5 -34t14.5 -35t23.5 -27t32 -11q19 0 33 11.5t23.5 28.5t14 36t4.5 35z" />
    <glyph glyph-name="q" unicode="q" horiz-adv-x="458" 
d="M406 257q-3 0 -9.5 2.5t-14.5 6l-16 7t-13 4.5v-460q0 2 6.5 3t8.5 1q11 0 18.5 -8t7.5 -19q0 -13 -10 -20.5t-24.5 -11.5t-29 -5t-23.5 -1t-23.5 1t-28 5t-23.5 11.5t-10 20.5q0 11 6.5 19t17.5 8q2 0 10 -1t9 -3v199q-36 -17 -75 -17q-34 0 -64.5 13t-53 35.5
t-35.5 52.5t-13 64t13 64.5t35.5 53t53 35.5t64.5 13q20 0 39 -5t37 -13q5 17 20 20t30 3q13 0 33.5 -2.5t39 -8.5t32 -16t13.5 -25q0 -26 -28 -26zM265 168q0 16 -4.5 34.5t-14 34.5t-23.5 27t-33 11t-33 -11.5t-23.5 -28.5t-14 -36t-4.5 -35t4.5 -35t14 -36t23.5 -28.5
t33 -11.5q21 0 35 12t23 29t13 37t4 37z" />
    <glyph glyph-name="r" unicode="r" horiz-adv-x="368" 
d="M282 194q-13 0 -29.5 7.5t-16.5 23.5q0 10 3.5 19t15.5 9q3 2 3 2.5t2 2.5q0 8 -10.5 11.5t-16.5 3.5q-15 0 -28 -9.5t-22.5 -23.5t-15 -30.5t-5.5 -29.5v-119q3 0 7.5 1.5t8.5 1.5q11 0 18.5 -8t7.5 -19q0 -12 -10 -19.5t-24 -11.5t-28.5 -5t-23.5 -1t-23.5 1t-28.5 5
t-24 11.5t-10 20.5t9 20t20 7q3 0 6 -2t7 -2v190q-4 -2 -11.5 -4.5t-12.5 -2.5q-13 0 -19.5 7.5t-6.5 19.5q0 8 4.5 15.5t12.5 10.5q22 9 43.5 19t44.5 18h6q17 0 22 -12t5 -26q19 16 37.5 25t44.5 9q16 0 34 -5.5t32.5 -16t24 -25.5t9.5 -34q0 -26 -19 -40.5t-43 -14.5z
" />
    <glyph glyph-name="s" unicode="s" horiz-adv-x="337" 
d="M313 259q0 -22 -11 -36t-34 -14q-24 0 -32 12t-11 26t-5 26t-12 12q-14 0 -14 -22q0 -14 10.5 -31.5l23.5 -37.5t23.5 -42.5t10.5 -46.5q0 -26 -11 -46t-29 -33.5t-41 -20.5t-46 -7q-18 0 -37.5 6t-36 17t-27 27t-10.5 36q0 18 10 31t29 13q23 0 32.5 -14.5t9.5 -34.5
q0 -2 -0.5 -3.5t-0.5 -3.5q5 -9 14.5 -14.5t20.5 -5.5q17 0 26.5 12.5t9.5 28.5q0 19 -9 37t-20 37t-20 39t-9 43q0 19 8 35.5t21 29t30.5 19.5t35.5 7t36.5 -5.5t32.5 -16t23 -25.5t9 -34z" />
    <glyph glyph-name="t" unicode="t" horiz-adv-x="249" 
d="M225 307q0 -18 -13 -22.5t-27 -4.5h-22v-219q5 0 8 1.5t8 1.5q11 0 18.5 -8t7.5 -19q0 -13 -11 -20.5t-26 -11t-31.5 -4.5t-28.5 -1h-8q-9 0 -17 9.5t-8 18.5v252h-11q-14 0 -27 4t-13 23t13 23t27 4h11q4 50 16 98t17 99q1 11 10 16.5t19 5.5t18 -7t8 -17v-195h22
q15 0 27.5 -4.5t12.5 -22.5z" />
    <glyph glyph-name="u" unicode="u" horiz-adv-x="434" 
d="M410 37q0 -12 -10.5 -19.5t-24.5 -11.5t-28.5 -5t-23.5 -1q-16 0 -28 3t-16 22q-17 -11 -36 -19t-39 -8q-25 0 -48.5 7.5t-41.5 22.5t-29 36t-11 48v139q-5 -2 -12 -4.5t-12 -2.5q-12 0 -19 8t-7 20q0 17 18 25q22 9 43.5 19t43.5 18h6q11 0 19 -8t8 -19v-209
q0 -20 11 -33t31 -13q35 0 55 22t20 56v121q-5 -2 -12 -4.5t-12 -2.5q-11 0 -19 8.5t-8 19.5q0 9 5.5 15.5t13.5 9.5q22 9 43.5 19t43.5 18h6q11 0 19 -8t8 -19v-246q5 0 8 1.5t8 1.5q11 0 19 -8t8 -19z" />
    <glyph glyph-name="v" unicode="v" horiz-adv-x="399" 
d="M232 -2q-35 0 -65 13.5t-52 36.5t-34.5 53.5t-12.5 64.5q0 30 11 61q-7 -5 -14 -9t-15 -4q-9 0 -17.5 8t-8.5 17q0 11 3.5 16.5t11.5 10.5l23.5 15l37 23t36.5 21.5t22 9.5q16 0 23.5 -4t7.5 -21q0 -5 -4.5 -21t-9.5 -39t-9.5 -50t-4.5 -53q0 -19 3 -36.5t11 -30.5
t21.5 -21t34.5 -8q18 0 29 10.5t17.5 26t9 33t2.5 30.5q0 56 -29 105q-13 20 -26.5 29.5t-13.5 23.5q0 11 6.5 18t18.5 7q8 0 16 -3q27 -12 48 -31t36 -43t22.5 -51.5t7.5 -56.5q0 -33 -9.5 -60.5t-28 -47.5t-45 -31.5t-60.5 -11.5z" />
    <glyph glyph-name="w" unicode="w" horiz-adv-x="551" 
d="M384 -4q-21 0 -41.5 4.5t-38.5 15.5q-18 -11 -38.5 -15.5t-41.5 -4.5q-35 0 -64.5 13t-52 35.5t-35 53t-12.5 64.5q0 38 17 74l-12 -6t-14 -3q-11 0 -19 8t-8 19q0 16 17 25l22 11.5l33.5 17.5t32.5 16t20 7q14 0 23 -6.5t9 -20.5q0 -15 -4.5 -27t-10.5 -25.5
t-10.5 -32.5t-4.5 -49q0 -18 2 -39.5t9.5 -39.5t21.5 -30t38 -12q20 0 34 14v186q-5 -2 -11.5 -5t-12.5 -3q-12 0 -19 9t-8 20q0 10 4.5 14.5t14.5 9.5q22 9 43.5 19t43.5 18h6q11 0 19 -8t8 -19v-243q8 -7 18 -9.5t21 -2.5q18 0 29 10t17 25t8.5 32t2.5 31q0 39 -6 61
t-15 35.5t-20 22.5t-21 23q-5 7 -5 13q0 13 6 21.5t20 8.5q6 0 12 -3q52 -24 84 -73.5t32 -106.5q0 -67 -37 -110t-106 -43z" />
    <glyph glyph-name="x" unicode="x" horiz-adv-x="445" 
d="M421 39q0 -12 -11.5 -19.5t-27 -12t-31 -6t-23.5 -1.5q-30 0 -45.5 4.5t-25 15.5t-16.5 29.5t-19 46.5q-8 -17 -19 -34t-24.5 -30.5t-30.5 -22.5t-38 -9q-11 0 -23 3.5t-23 10.5t-18 17t-7 22q0 14 9 20.5t21 6.5q15 -7 22 -16.5t17 -9.5q14 0 27 12.5t24 29.5t19.5 35
t14.5 29l-15 34t-21.5 40.5t-28 33.5t-32.5 14q-5 0 -9 -1.5l-9 -3.5q-4 -25 -29 -25q-11 0 -18 8.5t-7 18.5q0 14 7 24.5t18 17t24.5 10t25.5 3.5q50 0 83 -26t59 -65q8 12 22.5 28t32 30t35.5 24t33 10q11 0 18.5 -8.5t7.5 -19.5q0 -9 -7.5 -16t-19 -13.5l-25 -14.5
t-25.5 -19q-12 -12 -22 -25.5t-19 -27.5l75 -136q12 2 24.5 5.5t23.5 3.5q26 0 26 -25z" />
    <glyph glyph-name="y" unicode="y" horiz-adv-x="392" 
d="M368 -107q0 -29 -11 -53.5t-30 -43.5t-44.5 -29.5t-53.5 -10.5t-53 10.5t-44 29t-30 43.5t-11 53q0 14 6.5 23t20.5 9q17 0 21.5 -15l10 -33.5t18 -33.5t44.5 -15q28 0 48 19t20 48v126q-14 -10 -34 -16t-37 -6q-27 0 -50 6.5t-44 23.5t-30.5 38t-9.5 47v138
q-5 -2 -12 -4.5t-12 -2.5q-12 0 -19.5 8t-7.5 19q0 10 5.5 16t13.5 10q22 9 43.5 19t43.5 18h6q11 0 19 -8t8 -19v-208q0 -18 10.5 -32.5t30.5 -14.5q30 0 53 18.5t23 50.5v130q-5 -2 -12 -4.5t-12 -2.5q-12 0 -19.5 8t-7.5 19q0 10 5.5 16t13.5 10q22 9 43.5 19t43.5 18h6
q11 0 19 -8t8 -19v-414v0z" />
    <glyph glyph-name="z" unicode="z" horiz-adv-x="377" 
d="M353 72q0 -35 -25.5 -54.5t-57.5 -19.5q-31 0 -60 8.5t-60 8.5h-14q-19 0 -30 -7t-23 -7q-11 0 -20.5 8t-9.5 19q0 10 4 15l129 228q-8 4 -22.5 6.5t-22.5 2.5q-25 0 -38.5 -7t-22 -15.5t-14 -15.5t-14.5 -7q-11 0 -19.5 8t-8.5 19q0 18 11 31.5t28.5 22.5t38 13.5
t39.5 4.5q25 0 47 -8t46 -8q9 0 14 2t9.5 5t8.5 5t11 2q12 0 19.5 -7t7.5 -19q0 -10 -4 -15l-117 -208q6 1 12.5 1.5t12.5 0.5q11 0 21.5 -3.5l21 -7l21 -7t21.5 -3.5q6 0 6 7q0 6 -3.5 11.5t-3.5 13.5q0 11 8.5 18t19.5 7q18 0 25.5 -17t7.5 -32z" />
    <glyph glyph-name="braceleft" unicode="{" horiz-adv-x="326" 
d="M24 248q19 3 38.5 10.5t35 19.5t25 28t9.5 36q0 17 -3.5 36l-8.5 48l-6 31.5t-3 33.5q0 38 16 71t42 58t60.5 41.5t72.5 21.5v-30q-22 -4 -42 -12.5t-35 -22.5t-24 -32.5t-9 -41.5q0 -37 9.5 -74t9.5 -77q0 -29 -10.5 -53.5t-27.5 -44.5t-39.5 -35.5t-47.5 -25.5
q25 -11 47.5 -27t39.5 -36.5t27.5 -45t10.5 -53.5q0 -42 -9.5 -79t-9.5 -72q0 -24 9 -42.5t24 -32.5t35 -23t42 -15v-27q-38 5 -72 21t-60.5 41t-42 58t-15.5 72q0 40 10.5 75.5t10.5 71.5q0 21 -9.5 37.5t-25 28.5t-35 19.5t-39.5 11.5v31z" />
    <glyph glyph-name="bar" unicode="|" horiz-adv-x="1194" 
d="M1059 148q-16 0 -16 13q0 2 0.5 5t3.5 4q5 2 9 2t9 2q7 3 16.5 9.5t17.5 15.5t13.5 18.5t5.5 17.5t-5.5 10.5t-12.5 2.5q-21 0 -40.5 -15t-34.5 -37t-23.5 -46.5t-8.5 -43.5q0 -9 4.5 -24t16.5 -15q9 0 21 4t23.5 10t21.5 13.5t16 14.5q2 3 5.5 6.5t8.5 3.5t9 -3t4 -8
q0 -3 -0.5 -4.5t-2.5 -4.5q-5 -11 -18 -21t-29.5 -17.5t-33 -12t-28.5 -4.5q-32 0 -50.5 20.5t-18.5 51.5q0 27 14.5 55t38 50t51.5 36t55 14q10 0 22.5 -2.5t22.5 -8t17 -14.5t7 -22q0 -15 -12.5 -28.5t-30.5 -24t-37 -17t-31 -6.5zM1006 459q0 16 -8.5 29t-26.5 13
q-17 0 -33.5 -12.5t-31.5 -30.5t-27.5 -37t-19.5 -32q24 -7 51 -7q18 0 35 4.5t30.5 14t22 24t8.5 34.5zM840 353q-14 -23 -26 -46l-25 -46q26 13 53 13q38 0 63.5 -22.5t25.5 -61.5q0 -27 -13 -53t-33.5 -46.5t-46.5 -33t-53 -12.5q-22 0 -34.5 16.5t-12.5 36.5
q0 8 2.5 13.5t11.5 5.5q3 0 5 -2l4 -4l1 -21q0 -14 9 -18t20 -4q20 0 35 13.5t24.5 32.5t14.5 40.5t5 37.5q0 22 -8 39.5t-34 17.5q-20 0 -37.5 -10t-28.5 -27q-23 -36 -39 -75t-38 -76q-11 -8 -28 -8q-21 0 -41.5 0.5t-40.5 0.5q-12 0 -12 13q0 8 8 10t19 2h24l81 143.5
t86 140.5q-77 17 -142 57l-192 -341q5 0 10 0.5t10 0.5q7 0 12.5 -2.5t5.5 -10.5q0 -7 -2 -10t-10 -3h-123q-11 0 -11 13q0 8 6 10.5t14 2.5q5 0 9 -0.5t7 -0.5l211 375q-35 23 -70.5 49t-73 47.5t-77.5 36t-85 14.5q-37 0 -76.5 -12t-72.5 -35t-54 -56t-21 -75
q0 -16 4.5 -32t13.5 -29.5t22.5 -22t31.5 -8.5q11 0 23 3t22.5 9t17.5 15.5t7 22.5q0 12 -8.5 19.5t-8.5 15.5q2 5 4 8.5t8 3.5q7 0 12.5 -5t9.5 -12.5t6 -15.5t2 -14q0 -35 -28 -55.5t-69 -20.5q-26 0 -45 12.5t-31.5 32t-19 43.5t-6.5 46q0 49 27 89.5t68 69t90 44
t93 15.5q40 0 75 -10t67.5 -26.5t63.5 -37.5l62 -42l115.5 -75.5t123.5 -61.5q18 23 39 47t45 43.5t52 32t60 12.5q23 0 44 -14t21 -40q0 -14 -6 -26.5t-14 -23.5q-34 -44 -81 -63.5t-101 -19.5h-14t-14 1z" />
    <glyph glyph-name="braceright" unicode="}" horiz-adv-x="326" 
d="M302 217q-20 -4 -39.5 -11.5t-35 -19.5t-25 -28.5t-9.5 -37.5q0 -36 10.5 -71.5t10.5 -75.5q0 -39 -15.5 -72t-42 -58t-61 -41t-71.5 -21v27q22 6 42 15t35 23t24 32.5t9 42.5q0 35 -9.5 72t-9.5 79q0 29 10 53.5t27.5 45t40 36.5t47.5 27q-25 10 -47.5 25.5t-40 35.5
t-27.5 44.5t-10 53.5q0 40 9.5 77t9.5 74q0 23 -9 41.5t-24 32.5t-35 22.5t-42 12.5v30q37 -5 72 -21.5t61 -41.5t42 -58t16 -71q0 -18 -3 -33.5l-6 -31.5l-8.5 -48t-3.5 -36q0 -20 9.5 -36t25 -28t35 -19.5t38.5 -10.5v-31z" />
    <glyph glyph-name="asciitilde" unicode="~" horiz-adv-x="503" 
d="M479 323q-25 -25 -55.5 -39.5t-65.5 -14.5q-27 0 -54.5 8.5t-55 18l-53.5 18t-48 8.5q-20 0 -38 -7.5t-37 -26.5l-48 47q30 30 61 42t63 12q26 0 53.5 -8.5t54.5 -18l52.5 -18t48.5 -8.5q18 0 37 8t37 26z" />
    <glyph glyph-name="quotesinglbase" unicode="&#x201a;" horiz-adv-x="159" 
d="M135 47q0 -17 -6.5 -38.5t-16.5 -40.5t-22.5 -31.5t-25.5 -12.5q-6 0 -11 4.5t-5 10.5t4.5 13t10.5 15t10.5 17.5t4.5 18.5q-22 2 -38 17t-16 38t16.5 38.5t38.5 15.5q28 0 42 -19.5t14 -45.5z" />
    <glyph glyph-name="quotedblbase" unicode="&#x201e;" horiz-adv-x="283" 
d="M135 47q0 -17 -6.5 -38.5t-16.5 -40.5t-22.5 -31.5t-25.5 -12.5q-6 0 -11 4.5t-5 10.5t4.5 13t10.5 15t10.5 17.5t4.5 18.5q-22 2 -38 17t-16 38t16.5 38.5t38.5 15.5q28 0 42 -19.5t14 -45.5zM259 47q0 -17 -6.5 -38.5t-16.5 -40.5t-22.5 -31.5t-25.5 -12.5
q-6 0 -11 4.5t-5 10.5t4.5 13t10.5 15t10.5 17.5t4.5 18.5q-22 2 -38 17t-16 38t16.5 38.5t38.5 15.5q28 0 42 -19.5t14 -45.5z" />
    <glyph glyph-name="ellipsis" unicode="&#x2026;" horiz-adv-x="457" 
d="M133 54q0 -23 -15.5 -38.5t-38.5 -15.5q-22 0 -38.5 15.5t-16.5 38.5t16 38.5t39 15.5t38.5 -15.5t15.5 -38.5zM283 54q0 -23 -15.5 -38.5t-38.5 -15.5q-22 0 -38.5 15.5t-16.5 38.5t16 38.5t39 15.5t38.5 -15.5t15.5 -38.5zM433 54q0 -23 -15.5 -38.5t-38.5 -15.5
q-22 0 -38.5 15.5t-16.5 38.5t16 38.5t39 15.5t38.5 -15.5t15.5 -38.5z" />
    <glyph glyph-name="dagger" unicode="&#x2020;" horiz-adv-x="604" 
d="M390 -76q-26 -5 -48.5 -17t-39.5 -31q-17 19 -39.5 31t-48.5 17q32 102 51 214t20 215q-48 -5 -91 -25t-77 -52q-14 32 -38 56t-55 38q31 14 55 38t38 56q34 -33 76.5 -53t91.5 -25q-4 55 -26.5 104t-57.5 87q34 14 59.5 40t41.5 60q16 -34 41.5 -60t59.5 -40
q-36 -38 -58 -87t-26 -104q49 5 91.5 25t76.5 53q14 -32 38 -56t55 -38q-31 -14 -55 -38t-38 -56q-34 32 -77 52t-91 25q1 -103 20 -215t51 -214z" />
    <glyph glyph-name="circumflex" unicode="&#x2c6;" horiz-adv-x="299" 
d="M275 379q-2 -9 -7 -15.5t-15 -6.5q-6 0 -21 8.5t-31 19l-31 21l-21 14.5q-5 -3 -19.5 -13.5l-31 -22t-31.5 -20t-21 -8.5q-9 0 -15.5 7t-6.5 16q0 7 6 15l104 107q6 6 16 6q9 0 15 -6l104 -107q6 -6 6 -15z" />
    <glyph glyph-name="perthousand" unicode="&#x2030;" horiz-adv-x="554" 
d="M253 564q0 -23 -9 -43.5t-25 -35.5t-36.5 -23.5t-43.5 -8.5t-44 8.5t-36.5 23.5t-25 35.5t-9.5 43.5q0 24 9 44t25 35t37 23.5t44 8.5t44 -8.5t36.5 -23.5t24.5 -35t9 -44zM123 635q-23 0 -31.5 -18t-8.5 -37q0 -13 5.5 -28.5t15.5 -28.5t22.5 -22t27.5 -9q24 0 32 17.5
t8 37.5q0 13 -5.5 28.5t-15.5 28.5t-22.5 22t-27.5 9zM451 157q0 -23 -9 -43.5t-25 -35.5t-36.5 -23.5t-43.5 -8.5t-44 8.5t-36.5 23.5t-25 35.5t-9.5 43.5q0 24 9 44t25 35t37 23.5t44 8.5t44 -8.5t36.5 -23.5t24.5 -35t9 -44zM321 228q-23 0 -31.5 -18t-8.5 -37
q0 -13 5.5 -28.5t15.5 -28.5t22.5 -22t27.5 -9q24 0 32 17.5t8 37.5q0 13 -5.5 28.5t-15.5 28.5t-22.5 22t-27.5 9zM127 -1h-75l288 680h29zM530 390q0 -23 -9 -43.5t-25 -35.5t-36.5 -23.5t-43.5 -8.5t-44 8.5t-36.5 23.5t-25 35.5t-9.5 43.5q0 24 9 44t25 35t37 23.5
t44 8.5t44 -8.5t36.5 -23.5t24.5 -35t9 -44zM400 461q-23 0 -31.5 -18t-8.5 -37q0 -13 5.5 -28.5t15.5 -28.5t22.5 -22t27.5 -9q24 0 32 17.5t8 37.5q0 13 -5.5 28.5t-15.5 28.5t-22.5 22t-27.5 9z" />
    <glyph glyph-name="guilsinglleft" unicode="&#x2039;" horiz-adv-x="225" 
d="M201 176q0 -11 -7.5 -18.5t-18.5 -7.5q-7 0 -12.5 3.5t-10.5 8.5l-121 121q-7 7 -7 16q0 15 7 22l121 121q5 5 11 8.5t13 3.5q9 0 17 -6.5t8 -16.5q0 -13 -6 -23l-66 -106l66 -106q6 -9 6 -20z" />
    <glyph glyph-name="OE" unicode="&#x152;" horiz-adv-x="939" 
d="M382 -10q-73 0 -138 26.5t-114 73.5t-77.5 111t-28.5 138q0 73 28.5 137t77.5 111t114 74t138 27q11 0 22.5 -0.5t22.5 -1.5q11 -2 23 -5.5t22 -3.5h361q12 0 19.5 -5.5t12 -14.5t6 -19.5t1.5 -19.5q0 -12 -1.5 -29t-6.5 -32t-14 -26t-23 -11q-11 0 -20.5 10t-9.5 20
q0 14 5 27.5t5 28.5v6h-187v-161h162q0 5 -2 10t-2 10q0 14 10 22.5t23 8.5q12 0 20 -8.5t12.5 -20.5t6 -25.5t1.5 -22.5q0 -12 -1 -27.5t-5 -29.5t-13 -23.5t-25 -9.5q-11 0 -20 9t-9 20q0 6 2 11.5t2 10.5h-162v-321h229v7q0 14 -4 27t-4 27t10.5 22.5t23.5 8.5
q15 0 23 -11t11.5 -26t4.5 -30.5t1 -25.5t-1.5 -21t-5.5 -20.5t-11.5 -16t-19.5 -6.5h-405q-19 0 -43 -5t-47 -5zM515 578q-59 45 -133 45q-56 0 -101.5 -25t-77.5 -65t-49.5 -91t-17.5 -103t17 -103t49 -91.5t77.5 -65.5t102.5 -25q74 0 133 45v479z" />
    <glyph glyph-name="quoteleft" unicode="&#x2018;" horiz-adv-x="159" 
d="M24 563q0 17 6.5 38.5t16.5 40t22.5 31.5t25.5 13q6 0 11 -4.5t5 -10.5t-4.5 -13t-10.5 -15.5t-10.5 -17.5t-4.5 -18q22 -2 38 -17t16 -38t-16.5 -38.5t-38.5 -15.5q-28 0 -42 19.5t-14 45.5z" />
    <glyph glyph-name="quoteright" unicode="&#x2019;" horiz-adv-x="159" 
d="M135 621q0 -17 -6.5 -38.5t-16.5 -40.5t-22.5 -31.5t-25.5 -12.5q-6 0 -11 4.5t-5 10.5t4.5 13t10.5 15t10.5 17.5t4.5 18.5q-22 2 -38 17t-16 38t16.5 38.5t38.5 15.5q28 0 42 -19.5t14 -45.5z" />
    <glyph glyph-name="quotedblleft" unicode="&#x201c;" horiz-adv-x="282" 
d="M147 563q0 17 6.5 38.5t16.5 40t22.5 31.5t25.5 13q6 0 11 -4.5t5 -10.5t-4.5 -13t-10.5 -15.5t-10.5 -17.5t-4.5 -18q22 -2 38 -17t16 -38t-16.5 -38.5t-38.5 -15.5q-28 0 -42 19.5t-14 45.5zM24 563q0 17 6.5 38.5t16.5 40t22.5 31.5t25.5 13q6 0 11 -4.5t5 -10.5
t-4.5 -13t-10.5 -15.5t-10.5 -17.5t-4.5 -18q22 -2 38 -17t16 -38t-16.5 -38.5t-38.5 -15.5q-28 0 -42 19.5t-14 45.5z" />
    <glyph glyph-name="quotedblright" unicode="&#x201d;" horiz-adv-x="282" 
d="M135 621q0 -17 -6.5 -38.5t-16.5 -40.5t-22.5 -31.5t-25.5 -12.5q-6 0 -11 4.5t-5 10.5t4.5 13t10.5 15t10.5 17.5t4.5 18.5q-22 2 -38 17t-16 38t16.5 38.5t38.5 15.5q28 0 42 -19.5t14 -45.5zM258 621q0 -17 -6.5 -38.5t-16.5 -40.5t-22.5 -31.5t-25.5 -12.5
q-6 0 -11 4.5t-5 10.5t4.5 13t10.5 15t10.5 17.5t4.5 18.5q-22 2 -38 17t-16 38t16.5 38.5t38.5 15.5q28 0 42 -19.5t14 -45.5z" />
    <glyph glyph-name="bullet" unicode="&#x2022;" horiz-adv-x="316" 
d="M158 448q28 0 52.5 -10.5t42.5 -28.5t28.5 -42.5t10.5 -52.5t-10.5 -52.5t-28.5 -42.5t-42.5 -28.5t-52.5 -10.5t-52.5 10.5t-42.5 28.5t-28.5 42.5t-10.5 52.5t10.5 52.5t28.5 42.5t42.5 28.5t52.5 10.5z" />
    <glyph glyph-name="endash" unicode="&#x2013;" horiz-adv-x="523" 
d="M465 203h-441l34 97h441z" />
    <glyph glyph-name="emdash" unicode="&#x2014;" horiz-adv-x="1023" 
d="M965 203h-941l34 97h941z" />
    <glyph glyph-name="tilde" unicode="&#x2dc;" horiz-adv-x="361" 
d="M221 350q-15 0 -29 8t-26.5 18l-23 18t-18.5 8t-15 -6.5l-14.5 -14t-15.5 -14t-17 -6.5q-10 0 -16 7t-6 17q0 2 1 5.5t2 5.5l40 51q10 13 24 20.5t31 7.5t31 -8t26 -17.5l22.5 -17.5t19.5 -8t14.5 6l11.5 12.5t13.5 12.5t19.5 6q8 0 14 -6t6 -17q0 -14 -13.5 -29
t-25.5 -31q-10 -13 -24.5 -20.5t-31.5 -7.5z" />
    <glyph glyph-name="guilsinglright" unicode="&#x203a;" horiz-adv-x="225" 
d="M30 408q-6 9 -6 17q0 12 7 20.5t19 8.5q7 0 12.5 -3.5t10.5 -8.5l121 -121q7 -7 7 -16q0 -7 -1 -12t-6 -10l-121 -121q-5 -5 -11 -8.5t-13 -3.5q-9 0 -17 7.5t-8 16.5q0 11 6 22l66 106z" />
    <glyph glyph-name="oe" unicode="&#x153;" horiz-adv-x="579" 
d="M555 219q0 -28 -14 -49t-36 -34.5t-49 -20t-54 -6.5q-31 0 -59 10q0 -26 21.5 -46.5t51.5 -20.5q23 0 40 7t30 15t22 15t16 7q11 0 19 -9t8 -20q0 -8 -11.5 -20t-30.5 -23t-43.5 -18.5t-49.5 -7.5q-30 0 -59 9.5t-53 28.5q-23 -19 -52 -28.5t-58 -9.5q-35 0 -65.5 12.5
t-54 35t-37 52.5t-13.5 65t13.5 65t37 52.5t54 35.5t65.5 13q30 0 58 -9.5t51 -29.5q22 18 48.5 28.5t55.5 10.5q24 0 50.5 -6.5t48 -20t35.5 -34.5t14 -49zM264 81q-23 38 -23 82q0 14 2.5 27.5t7.5 26.5q-16 23 -37.5 37.5t-49.5 14.5q-14 0 -24 -7.5t-16.5 -19
t-9.5 -24.5t-3 -24q0 -21 8 -45t22 -44.5t33.5 -34t43.5 -13.5q14 0 26 6.5t20 17.5zM338 181q11 -6 27.5 -10t33.5 -4q13 0 25.5 3t23 9t17 16t6.5 25q0 25 -19 39.5t-42 14.5q-17 0 -30.5 -9t-22.5 -22.5t-14 -30t-5 -31.5z" />
    <glyph glyph-name="exclamdown" unicode="&#xa1;" horiz-adv-x="169" 
d="M24 -144q0 51 4.5 103t9.5 103q5 53 8.5 104.5t7.5 104.5q1 15 6 28t24 13q18 0 23.5 -12.5t7.5 -28.5q5 -62 10.5 -123.5t9.5 -123.5q3 -42 6.5 -83.5t3.5 -83.5q0 -26 -17 -44t-44 -18q-24 0 -42 17t-18 44zM30 409q0 23 15.5 39t38.5 16t39 -16t16 -39t-16 -38.5
t-39 -15.5q-22 0 -38 16t-16 38z" />
    <glyph glyph-name="cent" unicode="&#xa2;" horiz-adv-x="347" 
d="M323 311q0 -13 -11.5 -25t-29.5 -21.5t-41.5 -15.5t-47.5 -6q-16 0 -31 3l-55 -223q-5 -22 -27 -22q-9 0 -17 7.5t-8 16.5q0 7 1 10l56 228q-39 21 -63.5 58t-24.5 82q0 34 13 63t35.5 50t52 33t62.5 14l28 115q5 22 27 22q10 0 17.5 -6.5t7.5 -17.5q0 -10 -3.5 -26
t-8 -33.5l-9 -33.5l-7.5 -27q24 -8 45.5 -26t21.5 -47q0 -13 -6 -23t-15.5 -17t-21 -11t-23.5 -4q-18 0 -31 4l-33 -129q8 -2 14.5 -2h14.5q18 0 31.5 5.5t24 12.5l19.5 12.5t18 5.5q11 0 18 -7.5t7 -18.5zM173 507q-14 -6 -24.5 -17.5t-18 -26t-11 -30.5t-3.5 -30
q0 -32 16 -62z" />
    <glyph glyph-name="sterling" unicode="&#xa3;" horiz-adv-x="545" 
d="M521 85q0 -29 -19.5 -48t-47 -30.5t-57.5 -16.5t-52 -5q-46 0 -90 11t-87 25q-34 -22 -74 -22q-11 0 -23.5 2.5t-23 8.5t-17 15.5t-6.5 23.5q0 13 7 22t17 15t22 9t23 3q16 0 31 -4.5t30 -9.5q17 18 21 39.5t4 45.5q0 20 -2.5 44t-5.5 48.5t-6.5 48.5l-6.5 44
q-4 -1 -12 -1q-9 0 -21 1t-23 4.5t-19 10.5t-8 19q0 10 7.5 18t17.5 8q11 0 20.5 -3t21.5 -3h9q-4 24 -7 49t-3 50q0 39 16 72.5t42.5 58t61 39t72.5 14.5q29 0 60.5 -8t58 -24.5t44 -41.5t17.5 -59q0 -17 -17 -31t-33 -14t-33.5 13t-18.5 30q-2 33 -20.5 55t-53.5 22
q-25 0 -43.5 -11.5t-31 -29.5t-19 -40t-6.5 -44q0 -20 3.5 -38.5t3.5 -37.5q7 1 13.5 1.5t13.5 0.5q8 0 19.5 -1t22 -4.5t18 -10.5t7.5 -18q0 -13 -9.5 -20t-20.5 -7q-8 0 -19 3t-19 3h-10t-10 -1l4.5 -37.5l5 -44t4.5 -43.5t2 -36q0 -41 -14.5 -81t-38.5 -73
q29 -9 60 -16.5t62 -7.5q20 0 40.5 7t37.5 18q12 8 16.5 20l9 23t12.5 19t28 8q21 0 31.5 -15t10.5 -34z" />
    <glyph glyph-name="currency" unicode="&#xa4;" horiz-adv-x="681" 
d="M572 433q-11 0 -20.5 8.5t-9.5 19.5q0 7 3 12.5t7 11.5t7 13t3 16q0 22 -14.5 41t-35.5 33t-45.5 22.5t-43.5 8.5q-47 0 -86.5 -18t-70.5 -48t-52 -69.5t-31 -82.5h348q14 0 22 -7.5t8 -21.5q0 -13 -9.5 -19.5t-20.5 -6.5h-355q-1 -5 -1 -8.5v-8.5q0 -4 0.5 -7.5
t0.5 -8.5h327q14 0 21.5 -8t7.5 -21q0 -12 -9 -19t-20 -7h-320q10 -44 31 -83.5t52 -69.5t70.5 -47.5t86.5 -17.5q22 0 40 3.5t32.5 7t26 7t21.5 3.5q26 0 26 -24q0 -14 -16 -23.5t-39 -15.5t-48 -9t-43 -3q-61 0 -117 20t-101.5 56t-77.5 86t-45 110h-20q-14 0 -26 4
t-12 21q0 21 11.5 25.5t25.5 4.5h14v33h-19q-14 0 -23 4.5t-9 21.5q0 20 11.5 24.5t26.5 4.5h20q13 60 45 110t77.5 86.5t101.5 56.5t117 20q64 0 121 -23t105 -65q4 -3 6 -8.5t2 -10.5t-0.5 -8t-2.5 -7l-62 -107q-3 -5 -9 -8.5t-11 -3.5z" />
    <glyph glyph-name="yen" unicode="&#xa5;" horiz-adv-x="675" 
d="M618 588q-9 0 -17 4.5t-17 6.5l-133 -198h105q14 0 21.5 -8t7.5 -21q0 -12 -9 -19t-20 -7h-141l-13 -19v-14h154q14 0 21.5 -8t7.5 -21q0 -12 -9 -19t-20 -7h-154v-199q8 2 15.5 5.5t16.5 3.5q14 0 23.5 -9.5t9.5 -23.5q0 -15 -13 -24.5t-31 -14t-37 -6t-30 -1.5t-32 1
t-41.5 5.5t-35.5 13.5t-15 26q0 13 10 23t23 10q9 0 16.5 -3.5t15.5 -5.5v199h-178q-11 0 -20 7t-9 18q0 14 7.5 22t21.5 8h178l-22 33h-156q-11 0 -20 7t-9 18q0 14 7.5 22t21.5 8h119l-136 202q-12 -2 -23.5 -6.5t-22.5 -4.5q-14 0 -23 9.5t-9 23.5q0 17 16.5 26t39 13.5
t45 5.5t33.5 1q12 0 34 -1t44.5 -5.5t39 -14t16.5 -26.5q0 -12 -8.5 -22t-21.5 -10q-7 0 -13.5 2.5t-12.5 2.5l132 -196h5l133 199q-10 -2 -18.5 -7t-19.5 -5q-14 0 -22.5 10.5t-8.5 23.5q0 15 11.5 24t28 14t33.5 6.5t28 1.5t30 -1.5t37.5 -6t32 -14t13.5 -25.5
q0 -14 -9.5 -23.5t-23.5 -9.5z" />
    <glyph glyph-name="brokenbar" unicode="&#xa6;" horiz-adv-x="500" 
 />
    <glyph glyph-name="section" unicode="&#xa7;" horiz-adv-x="1231" 
d="M1207 646v-277h-81v195h-48v82h129zM930 304q-8 0 -8 -9q0 -8 8 -8h163v-39h-163q-8 0 -8 -9q0 -8 8 -8h163v-39h-163q-19 0 -33 13.5t-14 33.5q0 14 9 28q-9 14 -9 28q0 20 14 33.5t33 13.5h163v-38h-163zM348 287v-39h-171v-56h-39v103q0 20 13.5 33.5t33.5 13.5h163
v-38h-163q-8 0 -8 -9v-8h171zM385 342h221v-52q0 -23 -15.5 -40t-38.5 -20l36 -38h-52l-36 38h-57v40h104q8 0 14 6t6 14v13h-143v-111h-39v150zM687 304q-8 0 -8 -9q0 -8 8 -8h163v-39h-163q-8 0 -8 -9q0 -8 8 -8h163v-39h-163q-20 0 -34 13.5t-14 33.5q0 14 9 28
q-9 14 -9 28q0 20 14 33.5t34 13.5h163v-38h-163zM966 166v-39h-110v-73h47v-39h-87v112h-67v39h217zM1131 54q20 0 31 17h-168v19q0 32 22 54t53 22h138v-39h-138q-20 0 -30 -17h168v-20q0 -31 -22 -53t-54 -22h-137v39h137zM235 110v-39h-171v-56h-40v103q0 20 14 34
t34 14h163v-39h-163q-8 0 -8 -9v-8h171zM716 15h-58q-7 26 -19.5 46t-35.5 37q-14 11 -29.5 18t-32.5 9v-110h-39v150h22q56 0 103 -36q16 -12 28 -26.5t22 -31.5v95h39v-151zM467 165v-69q0 -34 -24 -57.5t-57 -23.5h-129v69q0 34 24 57.5t58 23.5h128zM339 126
q-17 0 -29.5 -12.5t-12.5 -29.5v-30h89q17 0 29 12.5t12 29.5v30h-88zM153 646v-277h-82v195h-47v82h129zM1023 646v-128q0 -31 -12 -58t-32 -47.5t-47 -32t-58 -11.5h-230v128q0 31 11.5 58t32 47t47.5 32t58 12h230zM793 564q-29 0 -48.5 -19.5t-19.5 -47.5v-47h149
q27 0 47 19.5t20 48.5v46h-148zM588 646v-128q0 -31 -12 -58t-32 -47.5t-47 -32t-58 -11.5h-230v128q0 31 11.5 58t32 47t47.5 32t58 12h230zM358 564q-28 0 -48 -19.5t-20 -47.5v-47h149q28 0 47.5 19.5t19.5 48.5v46h-148z" />
    <glyph glyph-name="dieresis" unicode="&#xa8;" horiz-adv-x="245" 
d="M108 397q0 -17 -12.5 -29t-29.5 -12t-29.5 12t-12.5 29t12.5 29.5t29.5 12.5t29.5 -12.5t12.5 -29.5zM221 397q0 -17 -12.5 -29t-29.5 -12t-29.5 12t-12.5 29t12.5 29.5t29.5 12.5t29.5 -12.5t12.5 -29.5z" />
    <glyph glyph-name="copyright" unicode="&#xa9;" horiz-adv-x="689" 
d="M24 341q0 66 25 124.5t68.5 102t102 69t124.5 25.5t124.5 -25.5t102 -69t69 -102t25.5 -124.5t-25.5 -124.5t-69 -102t-102 -68.5t-124.5 -25t-124.5 25t-102 68.5t-68.5 102t-25 124.5zM64 341q0 -58 22 -109t60 -89t89 -60t109 -22t109 22t89.5 60t60.5 89t22 109
t-22 109t-60.5 89.5t-89.5 60.5t-109 22t-109 -22t-89 -60.5t-60 -89.5t-22 -109zM519 192q0 -10 -9 -17q-31 -28 -70.5 -43t-81.5 -15q-48 0 -90.5 17.5t-74.5 48.5t-50.5 73t-18.5 90t18.5 90t50 72.5t73.5 48.5t90 18q42 0 80 -15q7 -3 19.5 -9t25.5 -14.5t22.5 -17.5
t9.5 -18v-52q0 -10 -6 -15.5t-15 -5.5q-8 0 -15 5q-6 6 -8 21t-12 26q-17 20 -46 36.5t-55 16.5q-37 0 -66.5 -16.5t-50.5 -43t-32 -60t-11 -67.5t11 -67.5t32 -60t50.5 -43t66.5 -16.5q30 0 54 8.5t41 19t28.5 19t17.5 8.5q8 0 15 -7t7 -15z" />
    <glyph glyph-name="ordfeminine" unicode="&#xaa;" horiz-adv-x="309" 
d="M285 487q-3 -9 -12.5 -15.5t-21.5 -10.5t-24 -5.5t-19 -1.5q-8 0 -17 1t-15 8q-20 -5 -36 -5q-24 0 -45 8t-37 22.5t-25 35t-9 45.5q0 24 12 44.5t31.5 35.5t42.5 23t46 8h57q7 0 12.5 -5.5t5.5 -12.5v-168q10 0 18.5 5.5t17.5 7.5q18 -5 18 -20zM172 644h-14
q-35 0 -55 -20.5t-20 -55.5q0 -27 15.5 -50t45.5 -23q8 0 14 2t14 4v143z" />
    <glyph glyph-name="guillemotleft" unicode="&#xab;" horiz-adv-x="355" 
d="M201 176q0 -11 -7.5 -18.5t-18.5 -7.5q-7 0 -12.5 3.5t-10.5 8.5l-121 121q-7 7 -7 16q0 15 7 22l121 121q5 5 11 8.5t13 3.5q9 0 17 -6.5t8 -16.5q0 -13 -6 -23l-66 -106l66 -106q6 -9 6 -20zM331 176q0 -11 -7.5 -18.5t-18.5 -7.5q-7 0 -12.5 3.5t-10.5 8.5l-121 121
q-7 7 -7 16q0 15 7 22l121 121q5 5 11 8.5t13 3.5q9 0 17 -6.5t8 -16.5q0 -13 -6 -23l-66 -106l66 -106q6 -9 6 -20z" />
    <glyph glyph-name="registered" unicode="&#xae;" horiz-adv-x="424" 
d="M24 490q0 39 14.5 73.5t40 60t60 40.5t73.5 15t73 -15t59.5 -40.5t40.5 -60t15 -73.5t-15 -73t-40.5 -59.5t-59.5 -40t-73 -14.5t-73.5 14.5t-60 40t-40 59.5t-14.5 73zM48 490q0 -34 13 -63.5t35 -51.5t52 -35t64 -13t63.5 13t52 35t35.5 51.5t13 63.5t-13 64
t-35.5 52.5t-52 35.5t-63.5 13t-64 -13t-52 -35.5t-35 -52.5t-13 -64zM329 402q0 -2 -4 -6.5t-10 -9t-13 -7.5t-12 -3q-2 0 -5 0.5t-4 2.5l-95 118q-3 2 -3 8q0 5 3.5 8t8.5 3q2 0 4.5 -0.5t4.5 -0.5q16 0 24.5 13t8.5 27t-5 22t-13.5 12.5t-18.5 5.5t-19 1q-6 0 -6 -3v-192
q2 1 5.5 2t6.5 1q11 0 11 -11q0 -6 -5 -9t-12 -5t-14 -2.5t-11 -0.5t-11 0.5t-13.5 2.5t-11.5 5.5t-5 8.5q0 4 3 7.5t8 3.5q3 0 6 -1l6 -2v189q-4 -1 -6 -2t-6 -1q-11 0 -11 11q0 7 8.5 11.5t19.5 6.5t22 3t16 1q15 0 32 -3t31 -10.5t23 -20t9 -30.5q0 -21 -12.5 -36
t-30.5 -23l59 -73q3 -3 6.5 -8t7.5 -5q3 0 5.5 1.5t6.5 1.5q6 0 8.5 -3.5t2.5 -8.5z" />
    <glyph glyph-name="macron" unicode="&#xaf;" horiz-adv-x="228" 
d="M177 345h-153l27 58h153z" />
    <glyph glyph-name="acute" unicode="&#xb4;" horiz-adv-x="217" 
d="M193 481q0 -12 -4.5 -19.5t-11 -11.5t-15 -6l-17.5 -4q-25 -7 -36.5 -21t-18.5 -28t-14 -24.5t-24 -10.5q-13 0 -20.5 9.5t-7.5 23.5q0 21 13.5 43t34 40.5t44.5 30.5t44 12q15 0 24 -10t9 -24z" />
    <glyph glyph-name="periodcentered" unicode="&#xb7;" horiz-adv-x="157" 
d="M133 348q0 -23 -15.5 -39t-38.5 -16t-39 16t-16 39t16 38.5t39 15.5t38.5 -15.5t15.5 -38.5z" />
    <glyph glyph-name="cedilla" unicode="&#xb8;" horiz-adv-x="302" 
d="M278 -117q0 -23 -14.5 -35.5t-34.5 -18.5t-43 -7t-39 -1q-9 0 -29.5 1t-41.5 5.5t-36.5 12.5t-15.5 23q0 8 7 15t15 7q13 0 39 -10.5t64 -10.5q5 0 12 1t13.5 3.5t11 6.5t4.5 11t-6.5 10.5t-16.5 4.5t-23.5 1.5t-26.5 1.5q-26 2 -48 16t-22 40q0 8 4.5 16.5t11 17
t13.5 16.5l12 14h73q-13 -18 -29.5 -32t-16.5 -27q0 -4 8.5 -7t21 -5t28 -4t29.5 -3q14 -2 28 -5.5t24.5 -11t17 -19t6.5 -27.5z" />
    <glyph glyph-name="ordmasculine" unicode="&#xba;" horiz-adv-x="277" 
d="M253 564q0 -23 -9 -43.5t-25 -35.5t-36.5 -23.5t-43.5 -8.5t-44 8.5t-36.5 23.5t-25 35.5t-9.5 43.5q0 24 9 44t25 35t37 23.5t44 8.5t44 -8.5t36.5 -23.5t24.5 -35t9 -44zM123 635q-23 0 -31.5 -18t-8.5 -37q0 -13 5.5 -28.5t15.5 -28.5t22.5 -22t27.5 -9q24 0 32 17.5
t8 37.5q0 13 -5.5 28.5t-15.5 28.5t-22.5 22t-27.5 9z" />
    <glyph glyph-name="guillemotright" unicode="&#xbb;" horiz-adv-x="355" 
d="M30 408q-6 9 -6 17q0 12 7 20.5t19 8.5q7 0 12.5 -3.5t10.5 -8.5l121 -121q7 -7 7 -16q0 -7 -1 -12t-6 -10l-121 -121q-5 -5 -11 -8.5t-13 -3.5q-9 0 -17 7.5t-8 16.5q0 11 6 22l66 106zM160 408q-6 9 -6 17q0 12 7 20.5t19 8.5q7 0 12.5 -3.5t10.5 -8.5l121 -121
q7 -7 7 -16q0 -7 -1 -12t-6 -10l-121 -121q-5 -5 -11 -8.5t-13 -3.5q-9 0 -17 7.5t-8 16.5q0 11 6 22l66 106z" />
    <glyph glyph-name="questiondown" unicode="&#xbf;" horiz-adv-x="423" 
d="M24 -49q0 42 19.5 74.5t47.5 60t60 52.5t57 51q18 18 29 43q4 10 4.5 23.5t2.5 26.5t8.5 22t21.5 9q17 0 21 -13.5t4 -26.5q0 -35 -13 -62.5t-33 -51t-43 -46t-43 -47.5t-33 -54.5t-13 -67.5q0 -18 6.5 -38.5t18.5 -38t29 -28.5t38 -11q20 0 37 7.5t30 20.5t20 30t7 36
q0 38 -12.5 53t-28 21t-28 10t-12.5 22q0 14 8 20.5t21 6.5q22 0 47 -8t46.5 -23.5t36 -39t14.5 -54.5q0 -37 -16.5 -66t-43 -49.5t-59.5 -31t-67 -10.5q-37 0 -71 13.5t-60.5 37.5t-42 56.5t-15.5 70.5zM208 388q0 23 15.5 39t38.5 16t39 -16t16 -39t-16 -38.5t-39 -15.5
q-22 0 -38 16t-16 38z" />
    <glyph glyph-name="AE" unicode="&#xc6;" horiz-adv-x="939" 
d="M463 0q-15 0 -25 9t-10 24q0 21 11.5 26.5t30.5 5.5h45v320h-111l-218 -321q10 3 20.5 7t20.5 4q14 0 22.5 -10.5t8.5 -24.5t-13.5 -23t-31.5 -13.5t-36.5 -6t-28.5 -1.5q-11 0 -31.5 1t-41 5t-36 13t-15.5 25q0 13 7.5 24t21.5 11q12 0 26 -5t26 -8l220 323h-20
q-17 0 -32.5 5t-15.5 28q0 15 10.5 24t24.5 9h77l110 161q-18 0 -34.5 4.5t-16.5 28.5q0 15 10.5 23.5t24.5 8.5h370q12 0 19 -6t11.5 -15t6 -19.5t1.5 -19.5q0 -10 -1 -26.5t-5 -32t-12 -27t-23 -11.5q-11 0 -22 9.5t-11 20.5q0 16 4.5 31t4.5 31h-186v-161h162
q-2 1 -3.5 9.5t-1.5 10.5q0 14 11 22.5t24 8.5q12 0 19.5 -8.5t12 -21t6 -25.5t1.5 -22q0 -10 -1 -25.5t-5 -29.5t-12 -24.5t-23 -10.5q-11 0 -22 9.5t-11 20.5q0 2 1.5 11t3.5 10h-162v-321h230q0 17 -4.5 31.5t-4.5 29.5q0 13 10 22t23 9q14 0 22.5 -11t12.5 -26t5 -31
t1 -25q0 -10 -1.5 -21t-5.5 -20.5t-11.5 -16t-19.5 -6.5h-414zM515 548l-66 -97h66v97z" />
    <glyph glyph-name="Eth" unicode="&#xd0;" horiz-adv-x="691" 
d="M24 280l34 67h50v264h-37q-17 0 -24 8.5t-7 22.5q0 17 9.5 26t25.5 9h201q80 0 151 -23.5t124.5 -69t84.5 -111.5t31 -151q0 -68 -25.5 -126.5t-69.5 -102t-103.5 -68.5t-126.5 -25h-267q-15 0 -25 9t-10 24q0 32 34 32h34v215h-84zM309 347l-34 -67h-62v-215h83
q55 0 102.5 19.5t83 54t56 82t20.5 102.5q0 58 -22 110.5t-60.5 92t-90 63t-110.5 23.5h-62v-265h96z" />
    <glyph glyph-name="multiply" unicode="&#xd7;" horiz-adv-x="394" 
d="M150 337l-126 126l48 47l125 -125l126 125l47 -47l-125 -126l125 -125l-47 -48l-126 126l-125 -126l-48 48z" />
    <glyph glyph-name="Oslash" unicode="&#xd8;" horiz-adv-x="766" 
d="M742 339q0 -74 -28.5 -137.5t-77.5 -110.5t-114.5 -74t-138.5 -27q-56 0 -108.5 15.5t-98.5 47.5q-22 -26 -33 -40.5t-24 -14.5q-22 0 -22 21q0 8 13 23l32 38q-56 56 -87 117t-31 142q0 74 28.5 137.5t77.5 110.5t114.5 74t138.5 27q56 0 108.5 -16t98.5 -48l32.5 42
t24.5 14q9 0 15 -5.5t6 -15.5q0 -8 -10 -20.5l-34 -41.5q25 -21 46.5 -52t37.5 -66t25 -72t9 -68zM630 339q0 51 -15.5 100t-47.5 89l-339 -411q32 -29 71.5 -46t83.5 -17q56 0 101.5 25t78 65t50 91t17.5 104zM537 560q-32 29 -71 46t-83 17q-56 0 -102 -24.5t-78 -65
t-49.5 -91.5t-17.5 -103q0 -51 15.5 -99.5t47.5 -89.5z" />
    <glyph glyph-name="Thorn" unicode="&#xde;" horiz-adv-x="507" 
d="M483 347q0 -39 -17 -72t-45 -56.5t-64 -36.5t-73 -13q-11 0 -22 0.5t-20 4t-15 11t-6 21.5q0 11 6 17t15 8.5t19.5 3t18.5 0.5q21 0 38 10t29 26t18.5 35.5t6.5 39.5q0 37 -12.5 60t-34 36t-49.5 18t-59 5h-12.5t-12.5 -1v-398q9 2 17 5.5t17 3.5q14 0 22.5 -9.5
t8.5 -23.5q0 -17 -14 -26t-33.5 -13.5t-39.5 -5.5t-31 -1q-12 0 -31 1t-38 5.5t-32.5 14t-13.5 25.5q0 12 8.5 22.5t21.5 10.5q3 0 15.5 -3.5t17.5 -5.5v541q-8 0 -16 -4t-17 -4q-14 0 -22 9.5t-8 23.5q0 15 13 24t31 14t36.5 6.5t29.5 1.5q12 0 32.5 -1t40.5 -5.5t35 -14
t15 -25.5q0 -14 -7.5 -23.5t-22.5 -9.5q-9 0 -17.5 3.5t-17.5 5.5v-78h39q42 0 87 -10.5t81.5 -32.5t60 -57t23.5 -83z" />
    <glyph glyph-name="germandbls" unicode="&#xdf;" horiz-adv-x="462" 
d="M438 94q0 -24 -10 -43.5t-27 -34t-38.5 -22t-43.5 -7.5q-20 0 -40.5 5.5t-38 16.5t-28.5 27.5t-11 38.5q0 17 11.5 29.5t28.5 12.5q20 0 30.5 -14t10.5 -31q0 -7 -1 -11q2 -10 15.5 -15t21.5 -5q15 0 24.5 12.5t9.5 26.5q0 12 -11.5 30.5t-28 40.5t-36.5 45.5t-36.5 46.5
t-28 43.5t-11.5 35.5q0 19 10 39l22 43t22 50.5t10 62.5q0 10 -2 26t-7 31t-13.5 26t-22.5 11q-21 0 -35.5 -15.5t-23 -37.5t-12.5 -45t-4 -39q0 -27 4.5 -48t10 -41t10 -40.5t4.5 -45.5v-285q0 -9 -5.5 -14.5t-13.5 -7.5t-17 -2.5t-15 -0.5q-11 0 -26.5 1t-29.5 4.5
t-24.5 11.5t-10.5 23l9 16.5t16 7.5q9 0 15 -2.5t14 -4.5v221h-23q-15 0 -26.5 5t-11.5 25q0 17 12.5 22t26.5 5h22q0 24 -0.5 47.5t-0.5 46.5q0 54 9 105.5t43 99.5q31 43 85 43q27 0 49 -10t37 -27.5t23 -41t8 -49.5q0 -35 -13.5 -67t-27.5 -62l-31 -64q11 -27 39 -59
l57.5 -65.5t52.5 -66.5t23 -60z" />
    <glyph glyph-name="ae" unicode="&#xe6;" horiz-adv-x="598" 
d="M423 -7q-35 0 -67 12t-56 34t-38.5 52t-14.5 66v111h-20q-53 0 -82.5 -30.5t-29.5 -82.5q0 -17 5.5 -36.5t16 -35.5t26 -26.5t35.5 -10.5q17 0 31.5 6t28.5 6q12 0 19.5 -8.5t7.5 -20.5q0 -11 -9.5 -18t-23 -11t-27 -5.5t-21.5 -1.5q-37 0 -70 11t-57.5 32t-38.5 51.5
t-14 69.5q0 37 19 67.5t48.5 52.5t65.5 34t70 12h81q9 0 16.5 -6.5t9.5 -15.5q38 22 79 22q25 0 51 -6.5t47.5 -20t35.5 -34t14 -49.5q0 -28 -14.5 -48.5t-36 -34t-48 -20t-50.5 -6.5q-16 0 -31.5 2.5t-30.5 6.5q8 -26 26 -46.5t47 -20.5q28 0 48 10t33.5 21.5t23.5 21.5
t19 10q11 0 19 -8t8 -19q0 -5 -2 -9.5t-4 -8.5q-11 -17 -27.5 -30t-36 -22t-41 -14t-40.5 -5zM477 212q0 24 -16.5 40t-40.5 16q-18 0 -32 -8.5t-23.5 -21.5t-14.5 -30t-5 -33q11 -6 25.5 -11t26.5 -5q11 0 25 3t26 9.5t20.5 16.5t8.5 24z" />
    <glyph glyph-name="eth" unicode="&#xf0;" horiz-adv-x="390" 
d="M366 157q0 -35 -14 -65t-37 -52t-54.5 -34.5t-65.5 -12.5q-35 0 -66 12.5t-54 34.5t-37 52t-14 65t13.5 65.5t37 53t54.5 35t66 12.5q9 0 18.5 -1t18.5 -3q-4 17 -9.5 32l-11.5 31q-20 -4 -42.5 -10t-42.5 -6q-11 0 -21 5.5t-10 19.5q0 24 24 29l70 13q-3 8 -12.5 24.5
l-19 33.5l-17 31.5t-7.5 18.5q0 12 7.5 19.5t19.5 7.5t29.5 -14.5t34.5 -34t31 -39.5t20 -30q14 3 30 7t30 4t22.5 -7t8.5 -21q0 -11 -7.5 -17.5t-17.5 -9.5t-21.5 -4.5t-18.5 -2.5q12 -24 23.5 -54.5t21 -63.5t15 -65.5t5.5 -58.5zM171 263q-17 0 -28.5 -7t-18 -18
t-9.5 -25t-3 -28q0 -20 8.5 -43.5t22.5 -43.5t33.5 -33.5t41.5 -13.5q17 0 28.5 7.5t18.5 19t10 25.5t3 28q0 20 -8.5 43.5t-23 43t-34 32.5t-41.5 13z" />
    <glyph glyph-name="oslash" unicode="&#xf8;" horiz-adv-x="391" 
d="M364 158q0 -35 -13.5 -65t-37 -52.5t-54.5 -35t-65 -12.5q-61 0 -109 37q-12 -13 -18.5 -21.5t-11.5 -13.5t-9.5 -7t-10.5 -2q-4 0 -7.5 2.5t-3.5 7.5q0 10 9 19t32 34q-41 47 -41 109q0 35 13.5 65.5t36.5 53t54 35t66 12.5q61 0 108 -39q14 13 22.5 22l13.5 14t8.5 7
t7.5 2q13 0 13 -13q0 -7 -9.5 -15.5t-35.5 -34.5q42 -47 42 -109zM147 92q13 -14 31.5 -27t38.5 -13q32 0 46 23t14 52q0 18 -5 39t-16 36zM241 224q-13 16 -30.5 27.5t-38.5 11.5q-17 0 -29 -6.5t-19 -17.5t-10 -25t-3 -29q0 -17 5.5 -37t14.5 -34z" />
    <glyph glyph-name="thorn" unicode="&#xfe;" horiz-adv-x="403" 
d="M379 153q0 -35 -13.5 -64.5t-36 -52t-53 -35t-64.5 -12.5t-60 11v-185q0 1 7.5 3t9.5 2q11 0 18.5 -8.5t7.5 -19.5q0 -13 -11 -20.5t-26.5 -11t-31 -4.5t-24.5 -1t-22 1.5t-25.5 6t-21.5 12.5t-9 20q5 11 9 18t19 7q3 0 6.5 -2t5.5 -2v759q0 19 7.5 36t20.5 30t30 20.5
t36 7.5q18 0 34.5 -7t30 -19t21.5 -28.5t8 -34.5q0 -11 -6.5 -20.5t-19.5 -9.5q-14 0 -19 7.5t-8 17t-7.5 17t-16.5 7.5q-10 0 -16.5 -6.5t-6.5 -16.5v-268q30 11 60 11q34 0 64.5 -13t53.5 -35.5t36 -53t13 -64.5zM287 153q0 16 -4.5 35.5t-13.5 36.5t-23.5 28.5
t-33.5 11.5q-22 0 -36.5 -14t-23.5 -32v-131q9 -18 23.5 -32t36.5 -14q19 0 33.5 11.5t23.5 28t13.5 36t4.5 35.5z" />
    <glyph glyph-name="Euro" unicode="&#x20ac;" horiz-adv-x="681" 
d="M572 433q-11 0 -20.5 8.5t-9.5 19.5q0 7 3 12.5t7 11.5t7 13t3 16q0 22 -14.5 41t-35.5 33t-45.5 22.5t-43.5 8.5q-47 0 -86.5 -18t-70.5 -48t-52 -69.5t-31 -82.5h348q14 0 22 -7.5t8 -21.5q0 -13 -9.5 -19.5t-20.5 -6.5h-355q-1 -5 -1 -8.5v-8.5q0 -4 0.5 -7.5
t0.5 -8.5h327q14 0 21.5 -8t7.5 -21q0 -12 -9 -19t-20 -7h-320q10 -44 31 -83.5t52 -69.5t70.5 -47.5t86.5 -17.5q22 0 40 3.5t32.5 7t26 7t21.5 3.5q26 0 26 -24q0 -14 -16 -23.5t-39 -15.5t-48 -9t-43 -3q-61 0 -117 20t-101.5 56t-77.5 86t-45 110h-20q-14 0 -26 4
t-12 21q0 21 11.5 25.5t25.5 4.5h14v33h-19q-14 0 -23 4.5t-9 21.5q0 20 11.5 24.5t26.5 4.5h20q13 60 45 110t77.5 86.5t101.5 56.5t117 20q64 0 121 -23t105 -65q4 -3 6 -8.5t2 -10.5t-0.5 -8t-2.5 -7l-62 -107q-3 -5 -9 -8.5t-11 -3.5z" />
    <glyph glyph-name="trademark" unicode="&#x2122;" horiz-adv-x="506" 
d="M186 651q0 -8 -4 -21.5t-15 -13.5q-6 0 -10.5 4t-4.5 10q0 4 2 10t2 10h-29v-192q4 2 8 2q15 0 15 -15q0 -7 -5 -10.5t-12 -5.5t-14.5 -2.5t-11.5 -0.5q-5 0 -13 0.5t-15.5 2t-13.5 5.5t-6 11q0 5 4 10t10 5q3 0 9 -2v192h-28q0 -4 1 -7q2 -8 2 -12q0 -7 -5 -11t-10 -4
q-10 0 -14 11.5t-4 19.5t2.5 20t14.5 12h127q12 0 15 -10t3 -18zM482 445q0 -7 -5 -10.5t-12 -5.5t-14.5 -2.5t-11.5 -0.5q-5 0 -13 0.5t-16 2t-14 5.5t-6 11q0 5 4.5 10t9.5 5q7 0 10 -1v140l-61 -122q-5 -8 -14 -8q-8 0 -13 8l-55 113v-133h1q1 0 1 0.5t1 0.5q8 2 13 2
q15 0 15 -15q0 -7 -5 -10.5t-12 -5.5t-14.5 -2.5t-11.5 -0.5q-5 0 -13 0.5t-16 2t-14 5.5t-6 11q0 5 4 10t10 5t14 -2q1 -1 3 -1v192q-2 0 -3.5 -1t-2.5 -1q-6 -2 -10 -2q-15 0 -15 15q0 7 5.5 11t13 6t15.5 2.5t12 0.5q6 0 14 -1.5t11 -7.5l33.5 -68l33.5 -68l69 138
q8 5 11 6t9 1q4 0 12 -0.5t15 -2.5t12.5 -6t5.5 -11q0 -6 -4 -10.5t-10 -4.5q-3 0 -5 1t-5 2v-190q4 2 9 2q15 0 15 -15z" />
    <glyph glyph-name="at" unicode="@" horiz-adv-x="667" 
d="M552 101q-106 -71 -236 -71q-65 0 -118.5 25t-92 67t-60 98t-21.5 118q0 70 28.5 131t76.5 106t111.5 71t134.5 26q55 0 104 -17t85.5 -49t57.5 -77t21 -101q0 -49 -16 -90t-42 -73q-31 -38 -69 -58.5t-76 -20.5q-22 0 -39 12.5t-28 32.5q-47 -42 -94 -42q-19 0 -34 7
t-26 19t-17 27t-6 31q0 36 14.5 73.5t40 69t60 51.5t73.5 20q22 0 40.5 -11.5t32.5 -31.5l11 11l35 -24l-48 -161q0 -2 -0.5 -5t-0.5 -9q0 -7 3 -15t12 -8q12 0 29 14t33 37q14 20 22.5 47t8.5 59q0 49 -18 88.5t-49 67.5t-71.5 42.5t-86.5 14.5q-51 0 -94 -20t-73.5 -54.5
t-48 -79.5t-17.5 -95q0 -56 24 -103.5t63 -82t89 -54t101 -19.5q39 0 77.5 9.5t73.5 26.5zM310 258q16 0 32.5 12t30.5 29q14 19 23.5 43.5t9.5 52.5q0 7 -2 15.5t-6 16.5t-10 13.5t-14 5.5q-14 0 -29 -12t-29 -32q-16 -22 -25 -49t-9 -50q0 -12 7 -28.5t21 -16.5z" />
    <glyph glyph-name="less" unicode="&#x3c;" horiz-adv-x="416" 
d="M121 337l271 -118v-73l-368 161v61l368 160v-73z" />
    <glyph glyph-name="equal" unicode="=" horiz-adv-x="431" 
d="M407 305v-66h-383v66h383zM407 436v-67h-383v67h383z" />
    <glyph glyph-name="bracketleft" unicode="[" horiz-adv-x="230" 
d="M24 678h182v-25h-63v-856h63v-26h-182v907z" />
    <glyph glyph-name="florin" unicode="&#x192;" horiz-adv-x="724" 
d="M411 385q0 -8 -1 -12q4 1 14 1q18 0 36.5 -8t20.5 -27q9 4 21.5 6t23.5 2q28 0 50 -13.5t22 -42.5q0 -7 -2.5 -13.5t-6.5 -11.5q-3 -4 -7 -4q-9 0 -9 8q0 1 2 5t4 7.5t2 8.5q0 17 -13.5 27.5t-33.5 10.5q-21 0 -37 -5.5t-27.5 -14t-17.5 -18t-6 -17.5q0 -9 6 -17.5
t29 -8.5q8 0 18 2.5t11 2.5q9 0 9 -10q-3 -28 -29 -49q-24 -19 -58 -19q-20 0 -38.5 7.5t-31.5 22.5q-13 -15 -31.5 -22.5t-38.5 -7.5q-34 0 -59 19q-26 21 -29 49q0 10 8 10q3 0 3 -1q12 -4 27 -4q24 0 30.5 8.5t6.5 17.5q0 8 -6.5 17.5t-18 18t-28.5 14t-38 5.5
q-19 0 -32 -10.5t-13 -27.5q0 -8 5 -16q3 -3 3 -5q0 -4 -3 -6t-6 -2q-5 0 -8 4q-8 11 -8 25q0 29 21.5 42.5t49.5 13.5q11 0 23.5 -2t21.5 -6q1 9 7 16t14 11t17.5 6t17.5 2h8t8 -1q-1 5 -1 15q0 25 4 38q4 15 10 15t11 -15l3 -21l-16 -20h17q0 -6 -0.5 -12t-1.5 -11
q15 -12 15 -27q0 -14 -7.5 -21.5t-18.5 -12.5q-10 -5 -18 -10t-8 -12q0 -8 6 -13.5t15 -8.5t19 -4.5t19 -1.5q8 0 18 1.5t19 4.5t15 8.5t6 13.5q0 7 -7.5 12t-18.5 10q-10 5 -17.5 12t-7.5 22q0 16 15 27q-2 6 -2 12.5v13.5q0 25 4 38q4 15 10 15q7 0 10 -15q2 -5 2.5 -10.5
t1.5 -11.5l-16 -19h17zM425 363q-21 0 -33 -9q-12 -8 -12 -19q0 -12 12 -19q12 -9 33 -9t33 9q12 7 12 19q0 11 -12 19q-12 9 -33 9zM298 363q-20 0 -33 -9q-12 -9 -12 -19t12 -19q13 -9 33 -9q21 0 33 9q13 8 13 19t-13 19q-12 9 -33 9zM421 251q-12 -10 -28.5 -14
t-30.5 -4t-31 4t-28 14q-28 -20 -61 -20h-9t-9 1q8 -20 27.5 -30t40.5 -10q18 0 35 8t27 24q3 5 8 5t7 -5q10 -16 27.5 -24t35.5 -8q20 0 39.5 10t27.5 30q-5 -1 -9 -1h-9q-34 0 -60 20zM296 492q-45 -10 -75.5 -31.5t-30.5 -61.5q0 -7 1.5 -13t1.5 -14q0 -4 -3 -6.5
t-6 -2.5q-7 0 -8 8q-3 15 -3 28q0 29 11.5 56t31.5 48q-16 9 -28 24.5t-17 36.5q0 8 8 8t9 -8q7 -27 31 -42t51 -15q26 0 49 13t31 39q1 5 8 5q8 0 9 -5q8 -26 31 -39t49 -13t51 15t31 42q1 8 8 8q8 0 8 -11q-3 -18 -14 -32t-26 -23q21 -22 33 -49.5t12 -57.5
q0 -7 -0.5 -13.5t-1.5 -14.5q-3 -8 -9 -8q-9 0 -9 11q3 13 3 25q0 43 -26 63t-65 28q-25 5 -47.5 14.5t-36.5 31.5q-10 -17 -26.5 -28t-35.5 -16zM623 112q-21 -23 -50.5 -36t-61.5 -13q-33 -18 -74 -18h-9q-30 -15 -66 -15t-66 15h-10q-41 0 -74 18q-32 0 -61.5 13
t-50.5 36q-30 22 -53 53t-23 71q0 29 13.5 55t33.5 46q-10 20 -16 41t-6 43q0 48 25 90t68 74q43 31 99 49t121 18q64 0 120.5 -18t98.5 -49q43 -32 68 -74t25 -90q0 -43 -22 -84q21 -20 34.5 -46t13.5 -55q0 -40 -23 -71t-54 -53zM540 84q41 8 70 38t29 75q0 35 -22 65
q-2 4 -2 5q0 9 8 9q5 0 8 -4q25 -33 25 -75q0 -11 -1.5 -20t-3.5 -18q14 16 22.5 35.5t8.5 41.5q0 28 -13 51t-33 41q-3 3 -3 7q0 1 0.5 1.5t0.5 2.5q23 38 23 82q0 45 -23 83t-63 67q-41 29 -94 46.5t-115 17.5t-115.5 -17.5t-93.5 -46.5t-63 -67t-23 -83q0 -43 22 -82
q1 -1 1 -4t-2 -7q-20 -18 -33.5 -41t-13.5 -51q0 -22 9 -41.5t23 -35.5q-6 18 -6 38q0 43 26 75q3 4 7 4q3 0 6 -2.5t3 -6.5q0 -1 -2 -5q-22 -28 -22 -65q0 -45 29 -75t70 -38q-20 17 -31.5 41t-11.5 53q0 44 29 78q3 4 7 4q8 0 8 -8q0 -2 -2 -6q-25 -30 -25 -68
q0 -23 9 -42.5t24 -34.5t34.5 -25t40.5 -13q-22 18 -35.5 43.5t-13.5 56.5q0 9 8 9q9 0 9 -9q0 -26 11 -47.5t29 -36.5t41 -23.5t47 -8.5t47 8.5t41 23.5t29 36.5t11 47.5q0 9 9 9q8 0 8 -9q0 -31 -13.5 -56.5t-36.5 -43.5q22 3 41.5 13t34.5 25t23.5 34.5t8.5 42.5
q0 38 -24 68q-2 2 -2 6q0 8 8 8q4 0 7 -4q29 -35 29 -78q0 -29 -12 -53t-31 -41z" />
    <glyph glyph-name="daggerdbl" unicode="&#x2021;" horiz-adv-x="578" 
d="M373 262q-16 -14 -27 -25t-19.5 -23t-13.5 -27t-9 -35q48 4 88.5 23t72.5 49q14 -29 37 -51.5t52 -36.5q-61 -28 -89 -88q-32 31 -72 49.5t-88 23.5q4 -53 25 -98.5t56 -80.5q-32 -14 -57 -38.5t-40 -56.5q-14 32 -39.5 56.5t-57.5 38.5q35 35 56 80.5t25 98.5
q-47 -5 -87.5 -23.5t-72.5 -49.5q-29 61 -89 88q29 14 52 36.5t37 51.5q32 -30 73 -49t87 -23q-3 20 -8.5 35t-13.5 27t-19.5 23l-26.5 25q15 13 26.5 24.5t19.5 23.5t13.5 27t8.5 35q-46 -4 -87 -23t-73 -49q-14 29 -37 51.5t-52 36.5q60 27 89 88q32 -31 72.5 -49.5
t87.5 -23.5q-4 53 -25 98.5t-56 80.5q32 14 57.5 38.5t39.5 56.5q15 -32 40 -56.5t57 -38.5q-35 -35 -56 -80.5t-25 -98.5q48 5 88 23.5t72 49.5q28 -60 89 -88q-29 -14 -52 -36.5t-37 -51.5q-32 30 -72.5 49t-88.5 23q4 -20 9 -35t13.5 -27t19.5 -23.5t27 -24.5z" />
    <glyph glyph-name="logicalnot" unicode="&#xac;" horiz-adv-x="438" 
d="M347 304h-323v67h390v-178h-67v111z" />
    <glyph glyph-name="degree" unicode="&#xb0;" horiz-adv-x="252" 
d="M126 675q21 0 39.5 -8t32.5 -22t22 -32.5t8 -39.5t-8 -40t-22 -32.5t-32.5 -21.5t-39.5 -8t-39.5 8t-32.5 21.5t-22 32.5t-8 40t8 39.5t22 32.5t32.5 22t39.5 8zM126 627q-23 0 -38.5 -16t-15.5 -38q0 -23 15.5 -38.5t38.5 -15.5q22 0 38 15.5t16 38.5q0 22 -16 38
t-38 16z" />
    <glyph glyph-name="plusminus" unicode="&#xb1;" horiz-adv-x="431" 
d="M182 371v158h67v-158h158v-67h-158v-158h-67v158h-158v67h158zM407 113v-67h-383v67h383z" />
    <glyph glyph-name="divide" unicode="&#xf7;" horiz-adv-x="431" 
d="M407 371v-67h-383v67h383zM216 485q18 0 31 -12.5t13 -31.5t-13 -32t-31 -13q-19 0 -32 13t-13 32t13 31.5t32 12.5zM216 278q18 0 31 -12.5t13 -31.5t-13 -32t-31 -13q-19 0 -32 13t-13 32t13 31.5t32 12.5z" />
    <glyph glyph-name="mu" unicode="&#xb5;" horiz-adv-x="430" 
d="M333 101q0 -10 1 -21.5t4 -21.5t8.5 -16.5t15.5 -6.5q8 0 13 5t8.5 12.5t5 15t2.5 13.5h15q-2 -16 -6 -32t-12 -28.5t-21 -20t-32 -7.5q-31 0 -46 22t-18 53q-12 -13 -27 -26.5t-31.5 -24t-35 -17.5t-37.5 -7q-18 0 -34.5 6.5t-30.5 15.5q0 -16 9 -52q4 -15 6 -25t2 -16
q0 -14 -8.5 -29t-25.5 -15t-25.5 15.5t-8.5 30.5q0 9 5 26q10 34 14 62t4 63v260h62v-204q0 -43 11.5 -67t50.5 -24q28 0 54.5 15.5t45.5 33.5v246h62v-234z" />
    <glyph glyph-name="mu" unicode="&#x3bc;" horiz-adv-x="430" 
d="M333 101q0 -10 1 -21.5t4 -21.5t8.5 -16.5t15.5 -6.5q8 0 13 5t8.5 12.5t5 15t2.5 13.5h15q-2 -16 -6 -32t-12 -28.5t-21 -20t-32 -7.5q-31 0 -46 22t-18 53q-12 -13 -27 -26.5t-31.5 -24t-35 -17.5t-37.5 -7q-18 0 -34.5 6.5t-30.5 15.5q0 -16 9 -52q4 -15 6 -25t2 -16
q0 -14 -8.5 -29t-25.5 -15t-25.5 15.5t-8.5 30.5q0 9 5 26q10 34 14 62t4 63v260h62v-204q0 -43 11.5 -67t50.5 -24q28 0 54.5 15.5t45.5 33.5v246h62v-234z" />
    <glyph glyph-name="paragraph" unicode="&#xb6;" horiz-adv-x="664" 
d="M640 679v-32h-45q-24 0 -41 -17t-17 -41v-808h-61v850h-100v-850h-58v382h-36q-53 0 -100 20.5t-82 55.5t-55.5 82t-20.5 100t20.5 100t55.5 82t82 55.5t100 20.5h358z" />
    <glyph glyph-name="twosuperior" unicode="&#xb2;" horiz-adv-x="297" 
d="M273 576q0 -41 -21.5 -66t-49.5 -45l-55.5 -40.5t-38.5 -50.5h104q-2 5 -6 12t-4 12q0 7 5 11.5t12 4.5q6 0 11.5 -6.5t9.5 -15.5t6 -18.5t2 -14.5q0 -7 -4 -12t-12 -5h-163q-16 0 -16 16q0 23 12 40.5t30.5 32.5t40 29.5t40 31.5t30.5 38t12 50q0 32 -21.5 48.5
t-50.5 16.5q-28 0 -52 -15.5t-24 -46.5q0 -17 5 -30t13 -13q7 0 11.5 3.5t12.5 3.5q14 0 14 -16q0 -13 -14 -17.5t-24 -4.5q-29 0 -46.5 23.5t-17.5 50.5q0 25 11.5 43t29.5 29.5t40 17t43 5.5q23 0 45.5 -6.5t40 -19t28.5 -32t11 -44.5z" />
    <glyph glyph-name="threesuperior" unicode="&#xb3;" horiz-adv-x="306" 
d="M282 490q0 -26 -13 -51t-33.5 -45t-46.5 -32.5t-51 -12.5q-29 0 -58.5 7.5t-50.5 29.5q-5 5 -5 12q0 6 4.5 11t10.5 5q8 0 14 -5q14 -15 33 -21.5t39 -6.5q22 0 40 9t31.5 24.5t21 35t7.5 40.5q0 12 -3 25.5t-10 24t-17 17.5t-25 7q-8 0 -14.5 -3t-13.5 -3q-8 0 -13 4.5
t-5 12.5q0 4 4.5 11.5t10.5 15.5l11.5 15t7.5 10h-71l-6 -18t-15 -12q-7 0 -12 4t-5 12q0 9 6.5 27.5t9.5 28.5q2 4 7 7.5t9 3.5h146q17 0 17 -16q0 -11 -7.5 -14t-16.5 -3h-7l-36 -50q45 -1 75 -31.5t30 -75.5z" />
    <glyph glyph-name="onesuperior" unicode="&#xb9;" horiz-adv-x="166" 
d="M142 401q0 -7 -6.5 -11t-15 -6t-17 -2.5t-13.5 -0.5t-13.5 0.5t-17.5 2.5t-15.5 6t-6.5 11q0 6 4 11t10 5q3 0 7.5 -1.5l7.5 -2.5v206q-5 -3 -13 -9t-15 -6q-6 0 -10 4.5t-4 10.5q0 8 8 13l76 48q4 3 9 3q6 0 10 -5t4 -10q0 -8 -6.5 -12t-11.5 -8v-235q4 1 7 2.5t8 1.5
q6 0 10 -5t4 -11z" />
    <glyph glyph-name="onequarter" unicode="&#xbc;" horiz-adv-x="630" 
d="M201 264q0 -11 -9.5 -17t-22.5 -9t-26 -3.5t-20 -0.5t-20 0.5t-26 3.5t-23 9t-10 16q0 9 5.5 16.5t15.5 7.5q5 0 11 -2t11 -4v306q-8 -5 -19.5 -13t-21.5 -8q-9 0 -15.5 6.5t-6.5 15.5q0 6 3.5 11t8.5 8l113 72q7 4 14 4q9 0 15 -7.5t6 -15.5q0 -11 -9.5 -17l-17.5 -11
v-351l10.5 4t11.5 2q9 0 15.5 -7t6.5 -16zM168 0h-38l284 677h38zM606 195q0 -4 -0.5 -8t-2.5 -7q-3 -5 -12 -11.5t-20 -11.5t-21.5 -9t-16.5 -5v-97q5 2 11 4t11 2q9 0 15.5 -7.5t6.5 -15.5q0 -11 -9.5 -17t-22.5 -9t-26 -3.5t-20 -0.5t-20 0.5t-26 3.5t-23 9t-10 16
q0 9 6 16.5t15 7.5q5 0 11.5 -2t10.5 -4v104l-41.5 10t-42.5 5q-12 0 -24.5 -2.5t-24 -6t-20.5 -6t-13 -2.5q-9 0 -14.5 7t-5.5 16q0 11 6 17l211 252q7 7 16 7t16 -7t7 -15v-225h7q16 0 26 7t19 7q8 0 14.5 -6t6.5 -13zM463 334l-96 -114q11 2 22.5 3t23.5 1t25 -1t25 -5
v116z" />
    <glyph glyph-name="onehalf" unicode="&#xbd;" horiz-adv-x="703" 
d="M679 313q0 -36 -13.5 -63t-35 -48t-47 -38.5l-50 -35.5t-45 -38.5t-30.5 -47.5h140q-3 7 -8 16.5t-5 15.5q0 9 7 15t16 6q8 0 15 -9t12 -21t8 -24t3 -19q0 -10 -5.5 -16.5t-15.5 -6.5h-219q-10 0 -16 6.5t-6 15.5q0 30 16.5 53.5t41 43.5t53.5 39t53.5 42t41 51.5
t16.5 67.5q0 42 -28.5 64.5t-68.5 22.5q-18 0 -36.5 -5t-33 -15.5t-23.5 -26t-9 -36.5q0 -33 10 -45t21 -12q9 0 16 4t17 4q11 0 14.5 -5.5t3.5 -14.5t-5.5 -14.5t-13.5 -9t-16.5 -5t-15.5 -1.5q-20 0 -36.5 8.5t-29 23t-19.5 32t-7 35.5q0 33 15 57.5t39 40t53.5 23
t58.5 7.5q31 0 61 -9t53.5 -26t38 -42.5t14.5 -59.5zM201 264q0 -11 -9.5 -17t-22.5 -9t-26 -3.5t-20 -0.5t-20 0.5t-26 3.5t-23 9t-10 16q0 9 5.5 16.5t15.5 7.5q5 0 11 -2t11 -4v306q-8 -5 -19.5 -13t-21.5 -8q-9 0 -15.5 6.5t-6.5 15.5q0 6 3.5 11t8.5 8l113 72q7 4 14 4
q9 0 15 -7.5t6 -15.5q0 -11 -9.5 -17l-17.5 -11v-351l10.5 4t11.5 2q9 0 15.5 -7t6.5 -16zM168 0h-38l284 677h38z" />
    <glyph glyph-name="threequarters" unicode="&#xbe;" horiz-adv-x="743" 
d="M370 423q0 -35 -17 -68.5t-44.5 -60t-62 -43t-68.5 -16.5q-38 0 -78 10t-68 39q-8 8 -8 16t6 15t14 7q11 0 19 -8q20 -20 44.5 -28.5t52.5 -8.5q29 0 53.5 12.5t42.5 33t28 46.5t10 54q0 17 -4 34.5t-13 32t-23 23.5t-33 9q-11 0 -20 -4t-19 -4q-9 0 -16 6.5t-7 16.5
q0 5 6 15t14 21l15.5 20.5l10.5 13.5h-96q-2 -4 -4 -11t-5 -13.5t-7.5 -11.5t-11.5 -5q-9 0 -16 6t-7 16q0 6 2.5 16t6.5 21l7.5 21.5l5.5 16.5q2 5 9 10t12 5h195q11 0 17.5 -6t6.5 -16q0 -15 -10.5 -18.5t-21.5 -3.5h-10l-49 -68q30 0 56 -11t45 -30.5t29.5 -45.5
t10.5 -56zM281 0h-38l284 677h38zM719 195q0 -4 -0.5 -8t-2.5 -7q-3 -5 -12 -11.5t-20 -11.5t-21.5 -9t-16.5 -5v-97q5 2 11 4t11 2q9 0 15.5 -7.5t6.5 -15.5q0 -11 -9.5 -17t-22.5 -9t-26 -3.5t-20 -0.5t-20 0.5t-26 3.5t-23 9t-10 16q0 9 6 16.5t15 7.5q5 0 11.5 -2
t10.5 -4v104l-41.5 10t-42.5 5q-12 0 -24.5 -2.5t-24 -6t-20.5 -6t-13 -2.5q-9 0 -14.5 7t-5.5 16q0 11 6 17l211 252q7 7 16 7t16 -7t7 -15v-225h7q16 0 26 7t19 7q8 0 14.5 -6t6.5 -13zM576 334l-96 -114q11 2 22.5 3t23.5 1t25 -1t25 -5v116z" />
    <glyph glyph-name="minus" unicode="&#x2212;" horiz-adv-x="431" 
d="M407 371v-67h-383v67h383z" />
    <glyph glyph-name="dotlessi" unicode="&#x131;" horiz-adv-x="234" 
d="M210 36q0 -12 -10.5 -19t-25 -10.5t-29 -5t-22.5 -1.5t-22.5 1t-28.5 5t-24 11t-10 19q0 15 7.5 21.5t18.5 6.5q6 0 10 -1v189q-5 -2 -11.5 -5t-12.5 -3q-12 0 -19 9t-7 20q0 9 5 15t13 9q22 9 43.5 19t43.5 18h6q11 0 19 -8t8 -19v-248l10.5 4t11.5 2q15 0 20.5 -8.5
t5.5 -20.5z" />
    <glyph glyph-name="caron" unicode="&#x2c7;" horiz-adv-x="299" 
d="M24 484q2 9 7 15.5t15 6.5q6 0 21 -8.5t31 -19l31 -21l21 -14.5q5 3 19.5 13.5l31 22t31.5 20t21 8.5q9 0 15.5 -7t6.5 -16q0 -7 -6 -15l-104 -107q-6 -6 -16 -6q-9 0 -15 6l-104 107q-6 6 -6 15z" />
    <glyph glyph-name="ring" unicode="&#x2da;" horiz-adv-x="168" 
d="M84 475q24 0 42 -17.5t18 -42.5t-18 -42t-42 -17q-25 0 -42.5 17t-17.5 42t17.5 42.5t42.5 17.5zM84 447q-14 0 -23 -9t-9 -23q0 -13 9 -22t23 -9q13 0 22.5 9t9.5 22q0 14 -9.5 23t-22.5 9z" />
    <glyph glyph-name="Agrave" unicode="&#xc0;" 
d="M753 42q0 -17 -14.5 -26t-34 -13.5t-39.5 -5.5t-31 -1t-30.5 1t-38.5 5.5t-33 14t-14 25.5q0 11 9.5 22t20.5 11q9 0 18 -3l-57 130h-191q-14 0 -24.5 8.5t-10.5 22.5q0 17 9.5 26t25.5 9h162l-105 241l-194 -446q11 3 22.5 7.5t22.5 4.5q14 0 23 -9.5t9 -23.5
q0 -15 -13 -24.5t-31 -14t-36.5 -6t-29.5 -1.5q-13 0 -34 0.5t-41 5t-34.5 14.5t-14.5 28q0 11 9 21t20 10q13 0 28 -5.5t28 -7.5l246 564q2 5 2 13q0 11 -5 21.5t-5 21.5q0 12 10.5 21.5t22.5 9.5q22 0 30 -22l273 -626l19 6.5t19 3.5q14 0 23 -9.5t9 -23.5zM473 730
q0 -15 -9.5 -23t-23.5 -8q-11 0 -17 7t-11 16.5t-10 20t-13 17.5q-11 10 -22.5 15t-22 8t-19.5 6t-13 9q-9 12 -9 26q0 15 9 24.5t24 9.5q20 0 44 -12t44.5 -31t34.5 -41.5t14 -43.5z" />
    <glyph glyph-name="Aacute" unicode="&#xc1;" 
d="M753 42q0 -17 -14.5 -26t-34 -13.5t-39.5 -5.5t-31 -1t-30.5 1t-38.5 5.5t-33 14t-14 25.5q0 11 9.5 22t20.5 11q9 0 18 -3l-57 130h-191q-14 0 -24.5 8.5t-10.5 22.5q0 17 9.5 26t25.5 9h162l-105 241l-194 -446q11 3 22.5 7.5t22.5 4.5q14 0 23 -9.5t9 -23.5
q0 -15 -13 -24.5t-31 -14t-36.5 -6t-29.5 -1.5q-13 0 -34 0.5t-41 5t-34.5 14.5t-14.5 28q0 11 9 21t20 10q13 0 28 -5.5t28 -7.5l246 564q2 5 2 13q0 11 -5 21.5t-5 21.5q0 12 10.5 21.5t22.5 9.5q22 0 30 -22l273 -626l19 6.5t19 3.5q14 0 23 -9.5t9 -23.5zM444 823
q0 -12 -4.5 -19.5t-11 -11.5t-15 -6l-17.5 -4q-25 -7 -36.5 -21t-18.5 -28t-14 -24.5t-24 -10.5q-13 0 -20.5 9.5t-7.5 23.5q0 21 13.5 43t34 40.5t44.5 30.5t44 12q15 0 24 -10t9 -24z" />
    <glyph glyph-name="Acircumflex" unicode="&#xc2;" 
d="M753 42q0 -17 -14.5 -26t-34 -13.5t-39.5 -5.5t-31 -1t-30.5 1t-38.5 5.5t-33 14t-14 25.5q0 11 9.5 22t20.5 11q9 0 18 -3l-57 130h-191q-14 0 -24.5 8.5t-10.5 22.5q0 17 9.5 26t25.5 9h162l-105 241l-194 -446q11 3 22.5 7.5t22.5 4.5q14 0 23 -9.5t9 -23.5
q0 -15 -13 -24.5t-31 -14t-36.5 -6t-29.5 -1.5q-13 0 -34 0.5t-41 5t-34.5 14.5t-14.5 28q0 11 9 21t20 10q13 0 28 -5.5t28 -7.5l246 564q2 5 2 13q0 11 -5 21.5t-5 21.5q0 12 10.5 21.5t22.5 9.5q22 0 30 -22l273 -626l19 6.5t19 3.5q14 0 23 -9.5t9 -23.5zM514 722
q-2 -9 -7 -15.5t-15 -6.5q-6 0 -21 8.5t-31 19l-31 21l-21 14.5q-5 -3 -19.5 -13.5l-31 -22t-31.5 -20t-21 -8.5q-9 0 -15.5 7t-6.5 16q0 7 6 15l104 107q6 6 16 6q9 0 15 -6l104 -107q6 -6 6 -15z" />
    <glyph glyph-name="Atilde" unicode="&#xc3;" 
d="M753 42q0 -17 -14.5 -26t-34 -13.5t-39.5 -5.5t-31 -1t-30.5 1t-38.5 5.5t-33 14t-14 25.5q0 11 9.5 22t20.5 11q9 0 18 -3l-57 130h-191q-14 0 -24.5 8.5t-10.5 22.5q0 17 9.5 26t25.5 9h162l-105 241l-194 -446q11 3 22.5 7.5t22.5 4.5q14 0 23 -9.5t9 -23.5
q0 -15 -13 -24.5t-31 -14t-36.5 -6t-29.5 -1.5q-13 0 -34 0.5t-41 5t-34.5 14.5t-14.5 28q0 11 9 21t20 10q13 0 28 -5.5t28 -7.5l246 564q2 5 2 13q0 11 -5 21.5t-5 21.5q0 12 10.5 21.5t22.5 9.5q22 0 30 -22l273 -626l19 6.5t19 3.5q14 0 23 -9.5t9 -23.5zM436 704
q-15 0 -29 8t-26.5 18l-23 18t-18.5 8t-15 -6.5l-14.5 -14t-15.5 -14t-17 -6.5q-10 0 -16 7t-6 17q0 2 1 5.5t2 5.5l40 51q10 13 24 20.5t31 7.5t31 -8t26 -17.5l22.5 -17.5t19.5 -8t14.5 6l11.5 12.5t13.5 12.5t19.5 6q8 0 14 -6t6 -17q0 -14 -13.5 -29t-25.5 -31
q-10 -13 -24.5 -20.5t-31.5 -7.5z" />
    <glyph glyph-name="Adieresis" unicode="&#xc4;" 
d="M753 42q0 -17 -14.5 -26t-34 -13.5t-39.5 -5.5t-31 -1t-30.5 1t-38.5 5.5t-33 14t-14 25.5q0 11 9.5 22t20.5 11q9 0 18 -3l-57 130h-191q-14 0 -24.5 8.5t-10.5 22.5q0 17 9.5 26t25.5 9h162l-105 241l-194 -446q11 3 22.5 7.5t22.5 4.5q14 0 23 -9.5t9 -23.5
q0 -15 -13 -24.5t-31 -14t-36.5 -6t-29.5 -1.5q-13 0 -34 0.5t-41 5t-34.5 14.5t-14.5 28q0 11 9 21t20 10q13 0 28 -5.5t28 -7.5l246 564q2 5 2 13q0 11 -5 21.5t-5 21.5q0 12 10.5 21.5t22.5 9.5q22 0 30 -22l273 -626l19 6.5t19 3.5q14 0 23 -9.5t9 -23.5zM361 751
q0 -17 -12.5 -29t-29.5 -12t-29.5 12t-12.5 29t12.5 29.5t29.5 12.5t29.5 -12.5t12.5 -29.5zM474 751q0 -17 -12.5 -29t-29.5 -12t-29.5 12t-12.5 29t12.5 29.5t29.5 12.5t29.5 -12.5t12.5 -29.5z" />
    <glyph glyph-name="Aring" unicode="&#xc5;" 
d="M753 42q0 -17 -14.5 -26t-34 -13.5t-39.5 -5.5t-31 -1t-30.5 1t-38.5 5.5t-33 14t-14 25.5q0 11 9.5 22t20.5 11q9 0 18 -3l-57 130h-191q-14 0 -24.5 8.5t-10.5 22.5q0 17 9.5 26t25.5 9h162l-105 241l-194 -446q11 3 22.5 7.5t22.5 4.5q14 0 23 -9.5t9 -23.5
q0 -15 -13 -24.5t-31 -14t-36.5 -6t-29.5 -1.5q-13 0 -34 0.5t-41 5t-34.5 14.5t-14.5 28q0 11 9 21t20 10q13 0 28 -5.5t28 -7.5l246 564q2 5 2 13q0 11 -5 21.5t-5 21.5q0 12 10.5 21.5t22.5 9.5q22 0 30 -22l273 -626l19 6.5t19 3.5q14 0 23 -9.5t9 -23.5zM380 808
q24 0 42 -17.5t18 -42.5t-18 -42t-42 -17q-25 0 -42.5 17t-17.5 42t17.5 42.5t42.5 17.5zM380 780q-14 0 -23 -9t-9 -23q0 -13 9 -22t23 -9q13 0 22.5 9t9.5 22q0 14 -9.5 23t-22.5 9z" />
    <glyph glyph-name="Ccedilla" unicode="&#xc7;" horiz-adv-x="651" 
d="M627 103q0 -7 -4 -13.5t-9 -11.5q-48 -43 -109 -65.5t-124 -22.5q-73 0 -138 27t-113.5 74t-77 110.5t-28.5 137.5q0 73 28 136.5t76.5 111t113 74.5t136.5 27q63 0 123 -23q10 -4 30 -13.5t39 -22.5t33.5 -27t14.5 -27v-80q0 -14 -9 -22.5t-23 -8.5t-22 7
q-5 4 -7.5 12.5l-5.5 18.5t-7 20.5t-11 19.5q-12 15 -30.5 30t-39.5 26t-43 18t-42 7q-56 0 -101 -25t-76.5 -65.5t-48.5 -91t-17 -102.5t17 -103t48.5 -91.5t76.5 -65.5t101 -25q47 0 83 13t62.5 28.5t44 28.5t26.5 13q13 0 23 -10.5t10 -23.5zM465.734 -111.053
q0 -20.8477 -13.1309 -32.1787q-13.1299 -11.3301 -31.2402 -16.7686t-38.9375 -6.34473q-20.8262 -0.907227 -35.3145 -0.907227q-8.15039 0 -26.7129 0.907227q-18.5635 0.90625 -37.5791 4.98535q-19.0156 4.07812 -33.0518 11.3301q-14.0352 7.25195 -14.0352 20.8477
q0 7.25195 6.33887 13.5967t13.583 6.34473q11.7715 0 35.3145 -9.51758q23.5439 -9.51758 57.9531 -9.51758q4.52734 0 10.8662 0.907227q6.33887 0.90625 12.2246 3.17188q5.88574 2.2666 9.96094 5.89258q4.0752 3.625 4.0752 9.9707q0 6.34473 -5.88672 9.51758
q-5.88574 3.17188 -14.9404 4.07812q-9.05566 0.907227 -21.2803 1.36035t-23.9961 1.35938q-23.543 1.8125 -43.4648 14.5029q-19.9209 12.6904 -19.9209 36.2568q0 7.25195 4.07422 14.957q4.0752 7.7041 9.96094 15.4092q5.88574 7.7041 12.2246 14.9561l10.8662 12.6895
h66.1025q-11.7715 -16.3154 -26.7129 -29.0059q-14.9404 -12.6895 -14.9404 -24.4736q0 -3.625 7.69629 -6.34473q7.69727 -2.71875 19.0166 -4.53223q11.3184 -1.8125 25.3545 -3.62598q14.0352 -1.8125 26.7119 -2.71875q12.6777 -1.8125 25.3555 -4.98535
q12.6768 -3.17285 22.1846 -9.9707q9.50781 -6.79883 15.3936 -17.2227q5.88672 -10.4238 5.88672 -24.9268z" />
    <glyph glyph-name="Egrave" unicode="&#xc8;" horiz-adv-x="535" 
d="M59 0q-15 0 -25 9t-10 24q0 21 16 26.5t35 5.5h36v547h-36q-19 0 -35 5.5t-16 27.5q0 15 10.5 23.5t24.5 8.5h370q12 0 19 -6t11.5 -15t6 -19.5t1.5 -19.5q0 -12 -0.5 -28.5t-5 -31.5t-13.5 -26t-25 -11q-14 0 -22 10t-8 20q0 14 5 28t5 34h-187v-161h162q-1 0 -2.5 9
t-1.5 11q0 14 10 22.5t24 8.5q12 0 19.5 -8.5t12 -21t6 -25.5t1.5 -22q0 -10 -1 -25.5t-5 -29.5t-12 -24.5t-23 -10.5q-12 0 -22 8.5t-10 20.5q0 2 1.5 11.5t2.5 10.5h-162v-321h231q0 20 -5 33.5t-5 27.5q0 13 10 22t23 9q15 0 23.5 -10.5t12 -25.5t4.5 -31t1 -26t-1.5 -21
t-5.5 -20.5t-11.5 -16t-19.5 -6.5h-414zM352 730q0 -15 -9.5 -23t-23.5 -8q-11 0 -17 7t-11 16.5t-10 20t-13 17.5q-11 10 -22.5 15t-22 8t-19.5 6t-13 9q-9 12 -9 26q0 15 9 24.5t24 9.5q20 0 44 -12t44.5 -31t34.5 -41.5t14 -43.5z" />
    <glyph glyph-name="Eacute" unicode="&#xc9;" horiz-adv-x="535" 
d="M59 0q-15 0 -25 9t-10 24q0 21 16 26.5t35 5.5h36v547h-36q-19 0 -35 5.5t-16 27.5q0 15 10.5 23.5t24.5 8.5h370q12 0 19 -6t11.5 -15t6 -19.5t1.5 -19.5q0 -12 -0.5 -28.5t-5 -31.5t-13.5 -26t-25 -11q-14 0 -22 10t-8 20q0 14 5 28t5 34h-187v-161h162q-1 0 -2.5 9
t-1.5 11q0 14 10 22.5t24 8.5q12 0 19.5 -8.5t12 -21t6 -25.5t1.5 -22q0 -10 -1 -25.5t-5 -29.5t-12 -24.5t-23 -10.5q-12 0 -22 8.5t-10 20.5q0 2 1.5 11.5t2.5 10.5h-162v-321h231q0 20 -5 33.5t-5 27.5q0 13 10 22t23 9q15 0 23.5 -10.5t12 -25.5t4.5 -31t1 -26t-1.5 -21
t-5.5 -20.5t-11.5 -16t-19.5 -6.5h-414zM388 824q0 -12 -4.5 -19.5t-11 -11.5t-15 -6l-17.5 -4q-25 -7 -36.5 -21t-18.5 -28t-14 -24.5t-24 -10.5q-13 0 -20.5 9.5t-7.5 23.5q0 21 13.5 43t34 40.5t44.5 30.5t44 12q15 0 24 -10t9 -24z" />
    <glyph glyph-name="Ecircumflex" unicode="&#xca;" horiz-adv-x="535" 
d="M59 0q-15 0 -25 9t-10 24q0 21 16 26.5t35 5.5h36v547h-36q-19 0 -35 5.5t-16 27.5q0 15 10.5 23.5t24.5 8.5h370q12 0 19 -6t11.5 -15t6 -19.5t1.5 -19.5q0 -12 -0.5 -28.5t-5 -31.5t-13.5 -26t-25 -11q-14 0 -22 10t-8 20q0 14 5 28t5 34h-187v-161h162q-1 0 -2.5 9
t-1.5 11q0 14 10 22.5t24 8.5q12 0 19.5 -8.5t12 -21t6 -25.5t1.5 -22q0 -10 -1 -25.5t-5 -29.5t-12 -24.5t-23 -10.5q-12 0 -22 8.5t-10 20.5q0 2 1.5 11.5t2.5 10.5h-162v-321h231q0 20 -5 33.5t-5 27.5q0 13 10 22t23 9q15 0 23.5 -10.5t12 -25.5t4.5 -31t1 -26t-1.5 -21
t-5.5 -20.5t-11.5 -16t-19.5 -6.5h-414zM393 722q-2 -9 -7 -15.5t-15 -6.5q-6 0 -21 8.5t-31 19l-31 21l-21 14.5q-5 -3 -19.5 -13.5l-31 -22t-31.5 -20t-21 -8.5q-9 0 -15.5 7t-6.5 16q0 7 6 15l104 107q6 6 16 6q9 0 15 -6l104 -107q6 -6 6 -15z" />
    <glyph glyph-name="Edieresis" unicode="&#xcb;" horiz-adv-x="535" 
d="M59 0q-15 0 -25 9t-10 24q0 21 16 26.5t35 5.5h36v547h-36q-19 0 -35 5.5t-16 27.5q0 15 10.5 23.5t24.5 8.5h370q12 0 19 -6t11.5 -15t6 -19.5t1.5 -19.5q0 -12 -0.5 -28.5t-5 -31.5t-13.5 -26t-25 -11q-14 0 -22 10t-8 20q0 14 5 28t5 34h-187v-161h162q-1 0 -2.5 9
t-1.5 11q0 14 10 22.5t24 8.5q12 0 19.5 -8.5t12 -21t6 -25.5t1.5 -22q0 -10 -1 -25.5t-5 -29.5t-12 -24.5t-23 -10.5q-12 0 -22 8.5t-10 20.5q0 2 1.5 11.5t2.5 10.5h-162v-321h231q0 20 -5 33.5t-5 27.5q0 13 10 22t23 9q15 0 23.5 -10.5t12 -25.5t4.5 -31t1 -26t-1.5 -21
t-5.5 -20.5t-11.5 -16t-19.5 -6.5h-414zM253 740q0 -17 -12.5 -29t-29.5 -12t-29.5 12t-12.5 29t12.5 29.5t29.5 12.5t29.5 -12.5t12.5 -29.5zM366 740q0 -17 -12.5 -29t-29.5 -12t-29.5 12t-12.5 29t12.5 29.5t29.5 12.5t29.5 -12.5t12.5 -29.5z" />
    <glyph glyph-name="Igrave" unicode="&#xcc;" horiz-adv-x="281" 
d="M257 40q0 -15 -13.5 -24t-32 -13.5t-37.5 -5.5t-29 -1q-12 0 -32.5 0.5t-40 5t-34 14t-14.5 27.5q0 11 7.5 21.5t20.5 10.5q3 0 7.5 -1t9.5 -3t12 -3l5 -2v541q-8 0 -15.5 -4t-16.5 -4q-13 0 -21.5 8t-8.5 21q0 17 12.5 27t30 15t36.5 6.5t32 1.5t33.5 -1t40 -6t34 -15
t14.5 -28q0 -11 -9 -20t-20 -9q-10 0 -18 3.5t-18 5.5v-542q9 2 17 5.5t17 3.5q14 0 22.5 -10.5t8.5 -24.5zM203 730q0 -15 -9.5 -23t-23.5 -8q-11 0 -17 7t-11 16.5t-10 20t-13 17.5q-11 10 -22.5 15t-22 8t-19.5 6t-13 9q-9 12 -9 26q0 15 9 24.5t24 9.5q20 0 44 -12
t44.5 -31t34.5 -41.5t14 -43.5z" />
    <glyph glyph-name="Iacute" unicode="&#xcd;" horiz-adv-x="281" 
d="M257 40q0 -15 -13.5 -24t-32 -13.5t-37.5 -5.5t-29 -1q-12 0 -32.5 0.5t-40 5t-34 14t-14.5 27.5q0 11 7.5 21.5t20.5 10.5q3 0 7.5 -1t9.5 -3t12 -3l5 -2v541q-8 0 -15.5 -4t-16.5 -4q-13 0 -21.5 8t-8.5 21q0 17 12.5 27t30 15t36.5 6.5t32 1.5t33.5 -1t40 -6t34 -15
t14.5 -28q0 -11 -9 -20t-20 -9q-10 0 -18 3.5t-18 5.5v-542q9 2 17 5.5t17 3.5q14 0 22.5 -10.5t8.5 -24.5zM242 824q0 -12 -4.5 -19.5t-11 -11.5t-15 -6l-17.5 -4q-25 -7 -36.5 -21t-18.5 -28t-14 -24.5t-24 -10.5q-13 0 -20.5 9.5t-7.5 23.5q0 21 13.5 43t34 40.5
t44.5 30.5t44 12q15 0 24 -10t9 -24z" />
    <glyph glyph-name="Icircumflex" unicode="&#xce;" horiz-adv-x="281" 
d="M257 40q0 -15 -13.5 -24t-32 -13.5t-37.5 -5.5t-29 -1q-12 0 -32.5 0.5t-40 5t-34 14t-14.5 27.5q0 11 7.5 21.5t20.5 10.5q3 0 7.5 -1t9.5 -3t12 -3l5 -2v541q-8 0 -15.5 -4t-16.5 -4q-13 0 -21.5 8t-8.5 21q0 17 12.5 27t30 15t36.5 6.5t32 1.5t33.5 -1t40 -6t34 -15
t14.5 -28q0 -11 -9 -20t-20 -9q-10 0 -18 3.5t-18 5.5v-542q9 2 17 5.5t17 3.5q14 0 22.5 -10.5t8.5 -24.5zM267 722q-2 -9 -7 -15.5t-15 -6.5q-6 0 -21 8.5t-31 19l-31 21l-21 14.5q-5 -3 -19.5 -13.5l-31 -22t-31.5 -20t-21 -8.5q-9 0 -15.5 7t-6.5 16q0 7 6 15l104 107
q6 6 16 6q9 0 15 -6l104 -107q6 -6 6 -15z" />
    <glyph glyph-name="Idieresis" unicode="&#xcf;" horiz-adv-x="281" 
d="M257 40q0 -15 -13.5 -24t-32 -13.5t-37.5 -5.5t-29 -1q-12 0 -32.5 0.5t-40 5t-34 14t-14.5 27.5q0 11 7.5 21.5t20.5 10.5q3 0 7.5 -1t9.5 -3t12 -3l5 -2v541q-8 0 -15.5 -4t-16.5 -4q-13 0 -21.5 8t-8.5 21q0 17 12.5 27t30 15t36.5 6.5t32 1.5t33.5 -1t40 -6t34 -15
t14.5 -28q0 -11 -9 -20t-20 -9q-10 0 -18 3.5t-18 5.5v-542q9 2 17 5.5t17 3.5q14 0 22.5 -10.5t8.5 -24.5zM126 740q0 -17 -12.5 -29t-29.5 -12t-29.5 12t-12.5 29t12.5 29.5t29.5 12.5t29.5 -12.5t12.5 -29.5zM239 740q0 -17 -12.5 -29t-29.5 -12t-29.5 12t-12.5 29
t12.5 29.5t29.5 12.5t29.5 -12.5t12.5 -29.5z" />
    <glyph glyph-name="Ntilde" unicode="&#xd1;" horiz-adv-x="694" 
d="M640 594q-14 0 -27.5 5.5t-27.5 7.5v-481q0 -14 1.5 -28.5t5.5 -28.5q5 -14 12.5 -25t7.5 -25q0 -11 -8.5 -20.5t-19.5 -9.5q-21 0 -33 15l-378 509v-451q13 2 27 7.5t26 5.5q14 0 23 -9.5t9 -23.5q0 -15 -13 -24.5t-31 -14t-36.5 -6t-29.5 -1.5q-13 0 -34 0.5t-41 5
t-34.5 14.5t-14.5 28q0 11 9 21t20 10q13 0 28 -5.5t27 -7.5v545q-14 -2 -27 -7.5t-26 -5.5q-12 0 -21.5 9t-9.5 21t5 20t19.5 14t32 9.5t34.5 5t26 1.5q13 0 32 -2t27 -13l320 -430v378q-14 -2 -27 -7.5t-26 -5.5q-14 0 -23 10t-9 23q0 16 14.5 25t34 14t39 6.5t30.5 1.5
t30.5 -1.5t39 -6.5t33.5 -14.5t14 -24.5q0 -11 -9 -22t-21 -11zM387 693q-15 0 -29 8t-26.5 18l-23 18t-18.5 8t-15 -6.5l-14.5 -14t-15.5 -14t-17 -6.5q-10 0 -16 7t-6 17q0 2 1 5.5t2 5.5l40 51q10 13 24 20.5t31 7.5t31 -8t26 -17.5l22.5 -17.5t19.5 -8t14.5 6l11.5 12.5
t13.5 12.5t19.5 6q8 0 14 -6t6 -17q0 -14 -13.5 -29t-25.5 -31q-10 -13 -24.5 -20.5t-31.5 -7.5z" />
    <glyph glyph-name="Ograve" unicode="&#xd2;" horiz-adv-x="766" 
d="M742 339q0 -74 -28.5 -138t-77.5 -111t-114.5 -73.5t-138.5 -26.5q-74 0 -139 26.5t-114 73t-77.5 110.5t-28.5 139q0 74 29 138t78 111t114 73.5t138 26.5t138 -27t114 -74t78 -110.5t29 -137.5zM630 339q0 52 -17.5 103t-50 91t-78 65t-101.5 25q-57 0 -102.5 -24.5
t-78 -64.5t-49.5 -91t-17 -104t17 -104t49.5 -91.5t78 -65t102.5 -24.5t102.5 25t77.5 65t49.5 91t17.5 104zM438 740q0 -15 -9.5 -23t-23.5 -8q-11 0 -17 7t-11 16.5t-10 20t-13 17.5q-11 10 -22.5 15t-22 8t-19.5 6t-13 9q-9 12 -9 26q0 15 9 24.5t24 9.5q20 0 44 -12
t44.5 -31t34.5 -41.5t14 -43.5z" />
    <glyph glyph-name="Oacute" unicode="&#xd3;" horiz-adv-x="766" 
d="M742 339q0 -74 -28.5 -138t-77.5 -111t-114.5 -73.5t-138.5 -26.5q-74 0 -139 26.5t-114 73t-77.5 110.5t-28.5 139q0 74 29 138t78 111t114 73.5t138 26.5t138 -27t114 -74t78 -110.5t29 -137.5zM630 339q0 52 -17.5 103t-50 91t-78 65t-101.5 25q-57 0 -102.5 -24.5
t-78 -64.5t-49.5 -91t-17 -104t17 -104t49.5 -91.5t78 -65t102.5 -24.5t102.5 25t77.5 65t49.5 91t17.5 104zM495 843q0 -12 -4.5 -19.5t-11 -11.5t-15 -6l-17.5 -4q-25 -7 -36.5 -21t-18.5 -28t-14 -24.5t-24 -10.5q-13 0 -20.5 9.5t-7.5 23.5q0 21 13.5 43t34 40.5
t44.5 30.5t44 12q15 0 24 -10t9 -24z" />
    <glyph glyph-name="Ocircumflex" unicode="&#xd4;" horiz-adv-x="766" 
d="M742 339q0 -74 -28.5 -138t-77.5 -111t-114.5 -73.5t-138.5 -26.5q-74 0 -139 26.5t-114 73t-77.5 110.5t-28.5 139q0 74 29 138t78 111t114 73.5t138 26.5t138 -27t114 -74t78 -110.5t29 -137.5zM630 339q0 52 -17.5 103t-50 91t-78 65t-101.5 25q-57 0 -102.5 -24.5
t-78 -64.5t-49.5 -91t-17 -104t17 -104t49.5 -91.5t78 -65t102.5 -24.5t102.5 25t77.5 65t49.5 91t17.5 104zM508 722q-2 -9 -7 -15.5t-15 -6.5q-6 0 -21 8.5t-31 19l-31 21l-21 14.5q-5 -3 -19.5 -13.5l-31 -22t-31.5 -20t-21 -8.5q-9 0 -15.5 7t-6.5 16q0 7 6 15l104 107
q6 6 16 6q9 0 15 -6l104 -107q6 -6 6 -15z" />
    <glyph glyph-name="Otilde" unicode="&#xd5;" horiz-adv-x="766" 
d="M742 339q0 -74 -28.5 -138t-77.5 -111t-114.5 -73.5t-138.5 -26.5q-74 0 -139 26.5t-114 73t-77.5 110.5t-28.5 139q0 74 29 138t78 111t114 73.5t138 26.5t138 -27t114 -74t78 -110.5t29 -137.5zM630 339q0 52 -17.5 103t-50 91t-78 65t-101.5 25q-57 0 -102.5 -24.5
t-78 -64.5t-49.5 -91t-17 -104t17 -104t49.5 -91.5t78 -65t102.5 -24.5t102.5 25t77.5 65t49.5 91t17.5 104zM423 693q-15 0 -29 8t-26.5 18l-23 18t-18.5 8t-15 -6.5l-14.5 -14t-15.5 -14t-17 -6.5q-10 0 -16 7t-6 17q0 2 1 5.5t2 5.5l40 51q10 13 24 20.5t31 7.5t31 -8
t26 -17.5l22.5 -17.5t19.5 -8t14.5 6l11.5 12.5t13.5 12.5t19.5 6q8 0 14 -6t6 -17q0 -14 -13.5 -29t-25.5 -31q-10 -13 -24.5 -20.5t-31.5 -7.5z" />
    <glyph glyph-name="Odieresis" unicode="&#xd6;" horiz-adv-x="766" 
d="M742 339q0 -74 -28.5 -138t-77.5 -111t-114.5 -73.5t-138.5 -26.5q-74 0 -139 26.5t-114 73t-77.5 110.5t-28.5 139q0 74 29 138t78 111t114 73.5t138 26.5t138 -27t114 -74t78 -110.5t29 -137.5zM630 339q0 52 -17.5 103t-50 91t-78 65t-101.5 25q-57 0 -102.5 -24.5
t-78 -64.5t-49.5 -91t-17 -104t17 -104t49.5 -91.5t78 -65t102.5 -24.5t102.5 25t77.5 65t49.5 91t17.5 104zM362 747q0 -17 -12.5 -29t-29.5 -12t-29.5 12t-12.5 29t12.5 29.5t29.5 12.5t29.5 -12.5t12.5 -29.5zM475 747q0 -17 -12.5 -29t-29.5 -12t-29.5 12t-12.5 29
t12.5 29.5t29.5 12.5t29.5 -12.5t12.5 -29.5z" />
    <glyph glyph-name="Scaron" unicode="&#x160;" horiz-adv-x="454" 
d="M430 193q0 -44 -17.5 -81.5t-47.5 -64.5t-69 -42t-82 -15q-54 0 -104 26t-81 72q-5 8 -5 16v75q0 14 8 24.5t24 10.5t24.5 -10t8.5 -25q0 -54 33.5 -89t88.5 -35q24 0 45 9t36.5 24.5t24.5 36.5t9 45q0 27 -10 48q-10 22 -34.5 43t-56 42l-65 43t-61.5 48.5t-46 57.5
t-18 70t17.5 69.5t45 52t62.5 33t71 11.5q20 0 44.5 -3.5t47.5 -12t43 -22t31 -33.5q3 -5 4 -14t1 -20q0 -12 -0.5 -23t-0.5 -17q0 -16 -9.5 -25.5t-25.5 -9.5q-15 0 -23.5 11t-8.5 25q0 18 -10 33t-25.5 25t-33.5 15.5t-34 5.5q-17 0 -34 -5.5t-30.5 -15.5t-22 -24.5
t-8.5 -33.5q0 -22 11 -37q9 -11 32 -30t50 -39l52 -38t39 -27q49 -35 79.5 -76.5t30.5 -103.5zM101 827q2 9 7 15.5t15 6.5q6 0 21 -8.5t31 -19l31 -21l21 -14.5q5 3 19.5 13.5l31 22t31.5 20t21 8.5q9 0 15.5 -7t6.5 -16q0 -7 -6 -15l-104 -107q-6 -6 -16 -6q-9 0 -15 6
l-104 107q-6 6 -6 15z" />
    <glyph glyph-name="Ugrave" unicode="&#xd9;" horiz-adv-x="680" 
d="M627 599q-14 0 -27.5 5.5t-27.5 7.5v-412q0 -48 -21 -87t-55.5 -66t-77.5 -42t-88 -15q-44 0 -87.5 15t-78 42.5t-56 66t-21.5 86.5v407q-8 0 -15.5 -4t-16.5 -4q-12 0 -21.5 8t-9.5 21q0 18 13.5 28t32.5 15t39 6t33 1q12 0 32 -1.5t38.5 -6.5t32 -15t13.5 -27
q0 -11 -9 -20t-20 -9q-4 0 -18.5 3t-18.5 5v-407q0 -29 10.5 -55.5t28.5 -46.5t43.5 -32t55.5 -12q31 0 62 10t56.5 29t41.5 46t16 61v412q-14 -2 -27 -7.5t-26 -5.5q-12 0 -21.5 8t-9.5 21q0 17 13 27t31 15t37 6.5t31 1.5q11 0 31.5 -1t40.5 -5.5t35 -13.5t15 -25
q0 -13 -7.5 -23.5t-21.5 -10.5zM396 721q0 -15 -9.5 -23t-23.5 -8q-11 0 -17 7t-11 16.5t-10 20t-13 17.5q-11 10 -22.5 15t-22 8t-19.5 6t-13 9q-9 12 -9 26q0 15 9 24.5t24 9.5q20 0 44 -12t44.5 -31t34.5 -41.5t14 -43.5z" />
    <glyph glyph-name="Uacute" unicode="&#xda;" horiz-adv-x="680" 
d="M627 599q-14 0 -27.5 5.5t-27.5 7.5v-412q0 -48 -21 -87t-55.5 -66t-77.5 -42t-88 -15q-44 0 -87.5 15t-78 42.5t-56 66t-21.5 86.5v407q-8 0 -15.5 -4t-16.5 -4q-12 0 -21.5 8t-9.5 21q0 18 13.5 28t32.5 15t39 6t33 1q12 0 32 -1.5t38.5 -6.5t32 -15t13.5 -27
q0 -11 -9 -20t-20 -9q-4 0 -18.5 3t-18.5 5v-407q0 -29 10.5 -55.5t28.5 -46.5t43.5 -32t55.5 -12q31 0 62 10t56.5 29t41.5 46t16 61v412q-14 -2 -27 -7.5t-26 -5.5q-12 0 -21.5 8t-9.5 21q0 17 13 27t31 15t37 6.5t31 1.5q11 0 31.5 -1t40.5 -5.5t35 -13.5t15 -25
q0 -13 -7.5 -23.5t-21.5 -10.5zM465 815q0 -12 -4.5 -19.5t-11 -11.5t-15 -6l-17.5 -4q-25 -7 -36.5 -21t-18.5 -28t-14 -24.5t-24 -10.5q-13 0 -20.5 9.5t-7.5 23.5q0 21 13.5 43t34 40.5t44.5 30.5t44 12q15 0 24 -10t9 -24z" />
    <glyph glyph-name="Ucircumflex" unicode="&#xdb;" horiz-adv-x="680" 
d="M627 599q-14 0 -27.5 5.5t-27.5 7.5v-412q0 -48 -21 -87t-55.5 -66t-77.5 -42t-88 -15q-44 0 -87.5 15t-78 42.5t-56 66t-21.5 86.5v407q-8 0 -15.5 -4t-16.5 -4q-12 0 -21.5 8t-9.5 21q0 18 13.5 28t32.5 15t39 6t33 1q12 0 32 -1.5t38.5 -6.5t32 -15t13.5 -27
q0 -11 -9 -20t-20 -9q-4 0 -18.5 3t-18.5 5v-407q0 -29 10.5 -55.5t28.5 -46.5t43.5 -32t55.5 -12q31 0 62 10t56.5 29t41.5 46t16 61v412q-14 -2 -27 -7.5t-26 -5.5q-12 0 -21.5 8t-9.5 21q0 17 13 27t31 15t37 6.5t31 1.5q11 0 31.5 -1t40.5 -5.5t35 -13.5t15 -25
q0 -13 -7.5 -23.5t-21.5 -10.5zM465 722q-2 -9 -7 -15.5t-15 -6.5q-6 0 -21 8.5t-31 19l-31 21l-21 14.5q-5 -3 -19.5 -13.5l-31 -22t-31.5 -20t-21 -8.5q-9 0 -15.5 7t-6.5 16q0 7 6 15l104 107q6 6 16 6q9 0 15 -6l104 -107q6 -6 6 -15z" />
    <glyph glyph-name="Udieresis" unicode="&#xdc;" horiz-adv-x="680" 
d="M627 599q-14 0 -27.5 5.5t-27.5 7.5v-412q0 -48 -21 -87t-55.5 -66t-77.5 -42t-88 -15q-44 0 -87.5 15t-78 42.5t-56 66t-21.5 86.5v407q-8 0 -15.5 -4t-16.5 -4q-12 0 -21.5 8t-9.5 21q0 18 13.5 28t32.5 15t39 6t33 1q12 0 32 -1.5t38.5 -6.5t32 -15t13.5 -27
q0 -11 -9 -20t-20 -9q-4 0 -18.5 3t-18.5 5v-407q0 -29 10.5 -55.5t28.5 -46.5t43.5 -32t55.5 -12q31 0 62 10t56.5 29t41.5 46t16 61v412q-14 -2 -27 -7.5t-26 -5.5q-12 0 -21.5 8t-9.5 21q0 17 13 27t31 15t37 6.5t31 1.5q11 0 31.5 -1t40.5 -5.5t35 -13.5t15 -25
q0 -13 -7.5 -23.5t-21.5 -10.5zM325 740q0 -17 -12.5 -29t-29.5 -12t-29.5 12t-12.5 29t12.5 29.5t29.5 12.5t29.5 -12.5t12.5 -29.5zM438 740q0 -17 -12.5 -29t-29.5 -12t-29.5 12t-12.5 29t12.5 29.5t29.5 12.5t29.5 -12.5t12.5 -29.5z" />
    <glyph glyph-name="Yacute" unicode="&#xdd;" horiz-adv-x="675" 
d="M618 595q-9 0 -17 4.5t-17 6.5l-182 -272v-268q8 2 15.5 5.5t16.5 3.5q14 0 23.5 -9.5t9.5 -23.5q0 -15 -13 -24.5t-31 -14t-36.5 -6t-29.5 -1.5q-12 0 -33 1t-41.5 5.5t-35.5 13.5t-15 26q0 11 9.5 22t20.5 11q10 0 18 -3.5t17 -5.5v254l-195 290q-12 -2 -23.5 -6.5
t-22.5 -4.5q-14 0 -23 9.5t-9 23.5q0 17 16.5 26t39 13.5t45 5.5t33.5 1q12 0 34 -1t44.5 -5.5t39 -14t16.5 -26.5q0 -12 -8.5 -22t-21.5 -10q-7 0 -13.5 2.5t-12.5 2.5l134 -200l136 203q-10 -2 -18.5 -7t-19.5 -5q-14 0 -22.5 10.5t-8.5 23.5q0 15 11.5 24t28 14t33.5 6.5
t28 1.5t30 -1.5t37.5 -6t32 -14t13.5 -25.5q0 -14 -9.5 -23.5t-23.5 -9.5zM489 814q0 -12 -4.5 -19.5t-11 -11.5t-15 -6l-17.5 -4q-25 -7 -36.5 -21t-18.5 -28t-14 -24.5t-24 -10.5q-13 0 -20.5 9.5t-7.5 23.5q0 21 13.5 43t34 40.5t44.5 30.5t44 12q15 0 24 -10t9 -24z" />
    <glyph glyph-name="Ydieresis" unicode="&#x178;" horiz-adv-x="675" 
d="M618 595q-9 0 -17 4.5t-17 6.5l-182 -272v-268q8 2 15.5 5.5t16.5 3.5q14 0 23.5 -9.5t9.5 -23.5q0 -15 -13 -24.5t-31 -14t-36.5 -6t-29.5 -1.5q-12 0 -33 1t-41.5 5.5t-35.5 13.5t-15 26q0 11 9.5 22t20.5 11q10 0 18 -3.5t17 -5.5v254l-195 290q-12 -2 -23.5 -6.5
t-22.5 -4.5q-14 0 -23 9.5t-9 23.5q0 17 16.5 26t39 13.5t45 5.5t33.5 1q12 0 34 -1t44.5 -5.5t39 -14t16.5 -26.5q0 -12 -8.5 -22t-21.5 -10q-7 0 -13.5 2.5t-12.5 2.5l134 -200l136 203q-10 -2 -18.5 -7t-19.5 -5q-14 0 -22.5 10.5t-8.5 23.5q0 15 11.5 24t28 14t33.5 6.5
t28 1.5t30 -1.5t37.5 -6t32 -14t13.5 -25.5q0 -14 -9.5 -23.5t-23.5 -9.5zM323 740q0 -17 -12.5 -29t-29.5 -12t-29.5 12t-12.5 29t12.5 29.5t29.5 12.5t29.5 -12.5t12.5 -29.5zM436 740q0 -17 -12.5 -29t-29.5 -12t-29.5 12t-12.5 29t12.5 29.5t29.5 12.5t29.5 -12.5
t12.5 -29.5z" />
    <glyph glyph-name="Zcaron" unicode="&#x17d;" horiz-adv-x="518" 
d="M57 0q-16 0 -24.5 9t-8.5 22q0 8 4 16l281 565h-216v-6q0 -15 5 -27.5t5 -26.5t-10 -23t-23 -9q-12 0 -20 8t-13.5 20t-7.5 25t-2 22q0 10 1 24t5.5 27t12 22t21.5 9h345q14 0 23.5 -9.5t9.5 -23.5q0 -6 -4 -14l-280 -565h267v7q0 15 -4.5 27.5t-4.5 26.5t10 22.5t24 8.5
q12 0 20 -9.5t12.5 -22t6.5 -26t2 -22.5q0 -10 -1 -23.5t-5 -25.5t-12 -20t-22 -8h-397zM133 827q2 9 7 15.5t15 6.5q6 0 21 -8.5t31 -19l31 -21l21 -14.5q5 3 19.5 13.5l31 22t31.5 20t21 8.5q9 0 15.5 -7t6.5 -16q0 -7 -6 -15l-104 -107q-6 -6 -16 -6q-9 0 -15 6l-104 107
q-6 6 -6 15z" />
    <glyph glyph-name="agrave" unicode="&#xe0;" horiz-adv-x="439" 
d="M415 47q0 -14 -14 -23.5t-33 -15t-38.5 -8t-29.5 -2.5q-14 0 -25 1.5t-23 11.5q-27 -8 -53 -8q-36 0 -68 12t-56 34t-37.5 52.5t-13.5 67.5q0 36 18.5 66.5t47.5 52.5t64.5 34.5t68.5 12.5h84q11 0 19 -8.5t8 -19.5v-251q13 2 28.5 10.5t25.5 8.5q12 0 19.5 -8.5
t7.5 -19.5zM246 280h-20q-52 0 -82 -30.5t-30 -82.5q0 -20 5.5 -39.5t17 -35t28 -25t38.5 -9.5q10 0 22 2.5t21 6.5v213zM285 387q0 -15 -9.5 -23t-23.5 -8q-11 0 -17 7t-11 16.5t-10 20t-13 17.5q-11 10 -22.5 15t-22 8t-19.5 6t-13 9q-9 12 -9 26q0 15 9 24.5t24 9.5
q20 0 44 -12t44.5 -31t34.5 -41.5t14 -43.5z" />
    <glyph glyph-name="aacute" unicode="&#xe1;" horiz-adv-x="439" 
d="M415 47q0 -14 -14 -23.5t-33 -15t-38.5 -8t-29.5 -2.5q-14 0 -25 1.5t-23 11.5q-27 -8 -53 -8q-36 0 -68 12t-56 34t-37.5 52.5t-13.5 67.5q0 36 18.5 66.5t47.5 52.5t64.5 34.5t68.5 12.5h84q11 0 19 -8.5t8 -19.5v-251q13 2 28.5 10.5t25.5 8.5q12 0 19.5 -8.5
t7.5 -19.5zM246 280h-20q-52 0 -82 -30.5t-30 -82.5q0 -20 5.5 -39.5t17 -35t28 -25t38.5 -9.5q10 0 22 2.5t21 6.5v213zM332 481q0 -12 -4.5 -19.5t-11 -11.5t-15 -6l-17.5 -4q-25 -7 -36.5 -21t-18.5 -28t-14 -24.5t-24 -10.5q-13 0 -20.5 9.5t-7.5 23.5q0 21 13.5 43
t34 40.5t44.5 30.5t44 12q15 0 24 -10t9 -24z" />
    <glyph glyph-name="acircumflex" unicode="&#xe2;" horiz-adv-x="439" 
d="M415 47q0 -14 -14 -23.5t-33 -15t-38.5 -8t-29.5 -2.5q-14 0 -25 1.5t-23 11.5q-27 -8 -53 -8q-36 0 -68 12t-56 34t-37.5 52.5t-13.5 67.5q0 36 18.5 66.5t47.5 52.5t64.5 34.5t68.5 12.5h84q11 0 19 -8.5t8 -19.5v-251q13 2 28.5 10.5t25.5 8.5q12 0 19.5 -8.5
t7.5 -19.5zM246 280h-20q-52 0 -82 -30.5t-30 -82.5q0 -20 5.5 -39.5t17 -35t28 -25t38.5 -9.5q10 0 22 2.5t21 6.5v213zM345 379q-2 -9 -7 -15.5t-15 -6.5q-6 0 -21 8.5t-31 19l-31 21l-21 14.5q-5 -3 -19.5 -13.5l-31 -22t-31.5 -20t-21 -8.5q-9 0 -15.5 7t-6.5 16
q0 7 6 15l104 107q6 6 16 6q9 0 15 -6l104 -107q6 -6 6 -15z" />
    <glyph glyph-name="atilde" unicode="&#xe3;" horiz-adv-x="439" 
d="M415 47q0 -14 -14 -23.5t-33 -15t-38.5 -8t-29.5 -2.5q-14 0 -25 1.5t-23 11.5q-27 -8 -53 -8q-36 0 -68 12t-56 34t-37.5 52.5t-13.5 67.5q0 36 18.5 66.5t47.5 52.5t64.5 34.5t68.5 12.5h84q11 0 19 -8.5t8 -19.5v-251q13 2 28.5 10.5t25.5 8.5q12 0 19.5 -8.5
t7.5 -19.5zM246 280h-20q-52 0 -82 -30.5t-30 -82.5q0 -20 5.5 -39.5t17 -35t28 -25t38.5 -9.5q10 0 22 2.5t21 6.5v213zM260 350q-15 0 -29 8t-26.5 18l-23 18t-18.5 8t-15 -6.5l-14.5 -14t-15.5 -14t-17 -6.5q-10 0 -16 7t-6 17q0 2 1 5.5t2 5.5l40 51q10 13 24 20.5
t31 7.5t31 -8t26 -17.5l22.5 -17.5t19.5 -8t14.5 6l11.5 12.5t13.5 12.5t19.5 6q8 0 14 -6t6 -17q0 -14 -13.5 -29t-25.5 -31q-10 -13 -24.5 -20.5t-31.5 -7.5z" />
    <glyph glyph-name="adieresis" unicode="&#xe4;" horiz-adv-x="439" 
d="M415 47q0 -14 -14 -23.5t-33 -15t-38.5 -8t-29.5 -2.5q-14 0 -25 1.5t-23 11.5q-27 -8 -53 -8q-36 0 -68 12t-56 34t-37.5 52.5t-13.5 67.5q0 36 18.5 66.5t47.5 52.5t64.5 34.5t68.5 12.5h84q11 0 19 -8.5t8 -19.5v-251q13 2 28.5 10.5t25.5 8.5q12 0 19.5 -8.5
t7.5 -19.5zM246 280h-20q-52 0 -82 -30.5t-30 -82.5q0 -20 5.5 -39.5t17 -35t28 -25t38.5 -9.5q10 0 22 2.5t21 6.5v213zM205 397q0 -17 -12.5 -29t-29.5 -12t-29.5 12t-12.5 29t12.5 29.5t29.5 12.5t29.5 -12.5t12.5 -29.5zM318 397q0 -17 -12.5 -29t-29.5 -12t-29.5 12
t-12.5 29t12.5 29.5t29.5 12.5t29.5 -12.5t12.5 -29.5z" />
    <glyph glyph-name="aring" unicode="&#xe5;" horiz-adv-x="439" 
d="M415 47q0 -14 -14 -23.5t-33 -15t-38.5 -8t-29.5 -2.5q-14 0 -25 1.5t-23 11.5q-27 -8 -53 -8q-36 0 -68 12t-56 34t-37.5 52.5t-13.5 67.5q0 36 18.5 66.5t47.5 52.5t64.5 34.5t68.5 12.5h84q11 0 19 -8.5t8 -19.5v-251q13 2 28.5 10.5t25.5 8.5q12 0 19.5 -8.5
t7.5 -19.5zM246 280h-20q-52 0 -82 -30.5t-30 -82.5q0 -20 5.5 -39.5t17 -35t28 -25t38.5 -9.5q10 0 22 2.5t21 6.5v213zM219 475q24 0 42 -17.5t18 -42.5t-18 -42t-42 -17q-25 0 -42.5 17t-17.5 42t17.5 42.5t42.5 17.5zM219 447q-14 0 -23 -9t-9 -23q0 -13 9 -22t23 -9
q13 0 22.5 9t9.5 22q0 14 -9.5 23t-22.5 9z" />
    <glyph glyph-name="ccedilla" unicode="&#xe7;" horiz-adv-x="358" 
d="M334 73q0 -16 -16.5 -29t-38.5 -22t-44.5 -14t-35.5 -5q-35 0 -66.5 12.5t-55.5 34.5t-38.5 52.5t-14.5 66.5t14.5 66t38.5 52.5t55.5 35t66.5 12.5q17 0 37.5 -5t38 -15t29.5 -25.5t12 -36.5q0 -14 -6.5 -24.5t-16.5 -18t-23 -11.5t-25 -4q-9 0 -21 2.5t-22 7.5t-17 13
t-7 19t8.5 17.5t18.5 6.5q5 0 9.5 -2t9.5 -2q2 3 2 5q0 9 -8.5 13.5t-16.5 4.5q-21 0 -36 -10.5t-25.5 -27t-15.5 -36t-5 -37.5q0 -21 6 -40.5t17.5 -34.5t29 -24.5t40.5 -9.5q18 0 32.5 6.5t25.5 14l20 14t16 6.5q11 0 19.5 -8.5t8.5 -19.5zM285.957 -79.6074
q0 -17.2217 -10.8467 -26.5811q-10.8467 -9.36035 -25.8076 -13.8525q-14.9609 -4.49316 -32.166 -5.24219q-17.2051 -0.748047 -29.1738 -0.748047q-6.73242 0 -22.0674 0.748047q-15.335 0.749023 -31.0439 4.11914q-15.709 3.36914 -27.3037 9.35938t-11.5947 17.2217
q0 5.99023 5.23633 11.2314q5.23633 5.24219 11.2207 5.24219q9.72461 0 29.1738 -7.8623t47.875 -7.8623q3.74023 0 8.97656 0.749023t10.0986 2.62012q4.8623 1.87207 8.22852 4.86719t3.36621 8.23633q0 5.24219 -4.8623 7.8623q-4.8623 2.62109 -12.3428 3.37012
q-7.48047 0.748047 -17.5791 1.12305q-10.0986 0.374023 -19.8232 1.12305q-19.4492 1.49805 -35.9062 11.9805t-16.457 29.9512q0 5.99023 3.36621 12.3545q3.36621 6.36523 8.22852 12.7295q4.8623 6.36523 10.0986 12.3555l8.97656 10.4824h54.6074
q-9.72461 -13.4785 -22.0674 -23.9609t-12.3428 -20.2168q0 -2.99512 6.3584 -5.24219q6.3584 -2.24609 15.709 -3.74316q9.35059 -1.49805 20.9453 -2.99512q11.5947 -1.49805 22.0674 -2.24609q10.4727 -1.49805 20.9453 -4.11914q10.4727 -2.62012 18.3271 -8.23633
q7.85449 -5.61523 12.7168 -14.2266t4.8623 -20.5918z" />
    <glyph glyph-name="egrave" unicode="&#xe8;" horiz-adv-x="362" 
d="M338 225q0 -29 -14 -49.5t-36.5 -34t-50 -20t-54.5 -6.5q-36 0 -62 10q2 -11 9 -22.5t17.5 -21t24 -15.5t28.5 -6q22 0 39 6.5t29.5 14t21.5 14t17 6.5q11 0 19 -8.5t8 -19.5q0 -16 -16.5 -29t-38.5 -22t-44.5 -14t-35.5 -5q-35 0 -66.5 12.5t-55.5 34.5t-38.5 52.5
t-14.5 66.5q0 34 14 64.5t37 53t54 35.5t65 13q24 0 49.5 -7t46.5 -20.5t34.5 -34t13.5 -48.5zM254 225q0 29 -19 42t-42 13q-16 0 -29.5 -9t-23.5 -22.5t-15.5 -30.5t-5.5 -33q20 -14 54 -14q29 0 53.5 12.5t27.5 41.5zM253 387q0 -15 -9.5 -23t-23.5 -8q-11 0 -17 7
t-11 16.5t-10 20t-13 17.5q-11 10 -22.5 15t-22 8t-19.5 6t-13 9q-9 12 -9 26q0 15 9 24.5t24 9.5q20 0 44 -12t44.5 -31t34.5 -41.5t14 -43.5z" />
    <glyph glyph-name="eacute" unicode="&#xe9;" horiz-adv-x="362" 
d="M338 225q0 -29 -14 -49.5t-36.5 -34t-50 -20t-54.5 -6.5q-36 0 -62 10q2 -11 9 -22.5t17.5 -21t24 -15.5t28.5 -6q22 0 39 6.5t29.5 14t21.5 14t17 6.5q11 0 19 -8.5t8 -19.5q0 -16 -16.5 -29t-38.5 -22t-44.5 -14t-35.5 -5q-35 0 -66.5 12.5t-55.5 34.5t-38.5 52.5
t-14.5 66.5q0 34 14 64.5t37 53t54 35.5t65 13q24 0 49.5 -7t46.5 -20.5t34.5 -34t13.5 -48.5zM254 225q0 29 -19 42t-42 13q-16 0 -29.5 -9t-23.5 -22.5t-15.5 -30.5t-5.5 -33q20 -14 54 -14q29 0 53.5 12.5t27.5 41.5zM294 483q0 -12 -4.5 -19.5t-11 -11.5t-15 -6
l-17.5 -4q-25 -7 -36.5 -21t-18.5 -28t-14 -24.5t-24 -10.5q-13 0 -20.5 9.5t-7.5 23.5q0 21 13.5 43t34 40.5t44.5 30.5t44 12q15 0 24 -10t9 -24z" />
    <glyph glyph-name="ecircumflex" unicode="&#xea;" horiz-adv-x="362" 
d="M338 225q0 -29 -14 -49.5t-36.5 -34t-50 -20t-54.5 -6.5q-36 0 -62 10q2 -11 9 -22.5t17.5 -21t24 -15.5t28.5 -6q22 0 39 6.5t29.5 14t21.5 14t17 6.5q11 0 19 -8.5t8 -19.5q0 -16 -16.5 -29t-38.5 -22t-44.5 -14t-35.5 -5q-35 0 -66.5 12.5t-55.5 34.5t-38.5 52.5
t-14.5 66.5q0 34 14 64.5t37 53t54 35.5t65 13q24 0 49.5 -7t46.5 -20.5t34.5 -34t13.5 -48.5zM254 225q0 29 -19 42t-42 13q-16 0 -29.5 -9t-23.5 -22.5t-15.5 -30.5t-5.5 -33q20 -14 54 -14q29 0 53.5 12.5t27.5 41.5zM306 379q-2 -9 -7 -15.5t-15 -6.5q-6 0 -21 8.5
t-31 19l-31 21l-21 14.5q-5 -3 -19.5 -13.5l-31 -22t-31.5 -20t-21 -8.5q-9 0 -15.5 7t-6.5 16q0 7 6 15l104 107q6 6 16 6q9 0 15 -6l104 -107q6 -6 6 -15z" />
    <glyph glyph-name="edieresis" unicode="&#xeb;" horiz-adv-x="362" 
d="M338 225q0 -29 -14 -49.5t-36.5 -34t-50 -20t-54.5 -6.5q-36 0 -62 10q2 -11 9 -22.5t17.5 -21t24 -15.5t28.5 -6q22 0 39 6.5t29.5 14t21.5 14t17 6.5q11 0 19 -8.5t8 -19.5q0 -16 -16.5 -29t-38.5 -22t-44.5 -14t-35.5 -5q-35 0 -66.5 12.5t-55.5 34.5t-38.5 52.5
t-14.5 66.5q0 34 14 64.5t37 53t54 35.5t65 13q24 0 49.5 -7t46.5 -20.5t34.5 -34t13.5 -48.5zM254 225q0 29 -19 42t-42 13q-16 0 -29.5 -9t-23.5 -22.5t-15.5 -30.5t-5.5 -33q20 -14 54 -14q29 0 53.5 12.5t27.5 41.5zM166 397q0 -17 -12.5 -29t-29.5 -12t-29.5 12
t-12.5 29t12.5 29.5t29.5 12.5t29.5 -12.5t12.5 -29.5zM279 397q0 -17 -12.5 -29t-29.5 -12t-29.5 12t-12.5 29t12.5 29.5t29.5 12.5t29.5 -12.5t12.5 -29.5z" />
    <glyph glyph-name="igrave" unicode="&#xec;" horiz-adv-x="234" 
d="M210 36q0 -12 -10.5 -19t-25 -10.5t-29 -5t-22.5 -1.5t-22.5 1t-28.5 5t-24 11t-10 19q0 15 7.5 21.5t18.5 6.5q6 0 10 -1v189q-5 -2 -11.5 -5t-12.5 -3q-12 0 -19 9t-7 20q0 9 5 15t13 9q22 9 43.5 19t43.5 18h6q11 0 19 -8t8 -19v-248l10.5 4t11.5 2q15 0 20.5 -8.5
t5.5 -20.5zM179 387q0 -15 -9.5 -23t-23.5 -8q-11 0 -17 7t-11 16.5t-10 20t-13 17.5q-11 10 -22.5 15t-22 8t-19.5 6t-13 9q-9 12 -9 26q0 15 9 24.5t24 9.5q20 0 44 -12t44.5 -31t34.5 -41.5t14 -43.5z" />
    <glyph glyph-name="iacute" unicode="&#xed;" horiz-adv-x="234" 
d="M210 36q0 -12 -10.5 -19t-25 -10.5t-29 -5t-22.5 -1.5t-22.5 1t-28.5 5t-24 11t-10 19q0 15 7.5 21.5t18.5 6.5q6 0 10 -1v189q-5 -2 -11.5 -5t-12.5 -3q-12 0 -19 9t-7 20q0 9 5 15t13 9q22 9 43.5 19t43.5 18h6q11 0 19 -8t8 -19v-248l10.5 4t11.5 2q15 0 20.5 -8.5
t5.5 -20.5zM207 481q0 -12 -4.5 -19.5t-11 -11.5t-15 -6l-17.5 -4q-25 -7 -36.5 -21t-18.5 -28t-14 -24.5t-24 -10.5q-13 0 -20.5 9.5t-7.5 23.5q0 21 13.5 43t34 40.5t44.5 30.5t44 12q15 0 24 -10t9 -24z" />
    <glyph glyph-name="icircumflex" unicode="&#xee;" horiz-adv-x="234" 
d="M210 36q0 -12 -10.5 -19t-25 -10.5t-29 -5t-22.5 -1.5t-22.5 1t-28.5 5t-24 11t-10 19q0 15 7.5 21.5t18.5 6.5q6 0 10 -1v189q-5 -2 -11.5 -5t-12.5 -3q-12 0 -19 9t-7 20q0 9 5 15t13 9q22 9 43.5 19t43.5 18h6q11 0 19 -8t8 -19v-248l10.5 4t11.5 2q15 0 20.5 -8.5
t5.5 -20.5zM244 379q-2 -9 -7 -15.5t-15 -6.5q-6 0 -21 8.5t-31 19l-31 21l-21 14.5q-5 -3 -19.5 -13.5l-31 -22t-31.5 -20t-21 -8.5q-9 0 -15.5 7t-6.5 16q0 7 6 15l104 107q6 6 16 6q9 0 15 -6l104 -107q6 -6 6 -15z" />
    <glyph glyph-name="idieresis" unicode="&#xef;" horiz-adv-x="234" 
d="M210 36q0 -12 -10.5 -19t-25 -10.5t-29 -5t-22.5 -1.5t-22.5 1t-28.5 5t-24 11t-10 19q0 15 7.5 21.5t18.5 6.5q6 0 10 -1v189q-5 -2 -11.5 -5t-12.5 -3q-12 0 -19 9t-7 20q0 9 5 15t13 9q22 9 43.5 19t43.5 18h6q11 0 19 -8t8 -19v-248l10.5 4t11.5 2q15 0 20.5 -8.5
t5.5 -20.5zM104 397q0 -17 -12.5 -29t-29.5 -12t-29.5 12t-12.5 29t12.5 29.5t29.5 12.5t29.5 -12.5t12.5 -29.5zM217 397q0 -17 -12.5 -29t-29.5 -12t-29.5 12t-12.5 29t12.5 29.5t29.5 12.5t29.5 -12.5t12.5 -29.5z" />
    <glyph glyph-name="ntilde" unicode="&#xf1;" horiz-adv-x="429" 
d="M405 36q0 -12 -11.5 -19.5t-26.5 -11t-30.5 -4.5t-24.5 -1q-8 0 -21.5 1.5t-26 5.5t-22 11t-9.5 18q0 29 29 29q5 0 10 -3t10 -3q11 23 15 48.5t4 51.5q0 14 -3 32t-10.5 34t-19.5 27t-30 11q-14 0 -26 -6t-20.5 -16t-13.5 -23t-5 -26v-132q1 2 8.5 3.5t9.5 1.5
q12 0 19 -8.5t7 -19.5q0 -12 -10 -19.5t-24 -11.5t-28.5 -5t-23.5 -1q-8 0 -22.5 1.5t-28.5 5t-24.5 10.5t-10.5 19q0 29 29 29q2 0 7.5 -1.5t7.5 -2.5v187q-8 -4 -18.5 -10t-20.5 -6q-11 0 -18.5 8.5t-7.5 19.5q0 9 4.5 14.5t12.5 9.5q7 3 21.5 11.5l31 17.5t31 15.5
t20.5 6.5q13 0 20.5 -9t7.5 -21q36 30 85 30q30 0 55 -11.5t44 -31t29.5 -46t10.5 -55.5q0 -35 -9 -67.5t-25 -62.5q10 4 16 4q12 0 19 -9t7 -20zM273 350q-15 0 -29 8t-26.5 18l-23 18t-18.5 8t-15 -6.5l-14.5 -14t-15.5 -14t-17 -6.5q-10 0 -16 7t-6 17q0 2 1 5.5t2 5.5
l40 51q10 13 24 20.5t31 7.5t31 -8t26 -17.5l22.5 -17.5t19.5 -8t14.5 6l11.5 12.5t13.5 12.5t19.5 6q8 0 14 -6t6 -17q0 -14 -13.5 -29t-25.5 -31q-10 -13 -24.5 -20.5t-31.5 -7.5z" />
    <glyph glyph-name="ograve" unicode="&#xf2;" horiz-adv-x="390" 
d="M366 161q0 -35 -14 -65t-37 -52.5t-54.5 -35t-65.5 -12.5q-35 0 -66 12.5t-54 34.5t-37 52.5t-14 65.5t13.5 65.5t37 53t54.5 35t66 12.5q34 0 65.5 -13t54.5 -35.5t37 -52.5t14 -65zM172 267q-32 0 -46.5 -21.5t-14.5 -52.5q0 -23 7.5 -47.5t21.5 -44.5t34 -33t44 -13
q32 0 46.5 21.5t14.5 50.5q0 23 -8 48t-22 45.5t-33.5 33.5t-43.5 13zM258 387q0 -15 -9.5 -23t-23.5 -8q-11 0 -17 7t-11 16.5t-10 20t-13 17.5q-11 10 -22.5 15t-22 8t-19.5 6t-13 9q-9 12 -9 26q0 15 9 24.5t24 9.5q20 0 44 -12t44.5 -31t34.5 -41.5t14 -43.5z" />
    <glyph glyph-name="oacute" unicode="&#xf3;" horiz-adv-x="390" 
d="M366 161q0 -35 -14 -65t-37 -52.5t-54.5 -35t-65.5 -12.5q-35 0 -66 12.5t-54 34.5t-37 52.5t-14 65.5t13.5 65.5t37 53t54.5 35t66 12.5q34 0 65.5 -13t54.5 -35.5t37 -52.5t14 -65zM172 267q-32 0 -46.5 -21.5t-14.5 -52.5q0 -23 7.5 -47.5t21.5 -44.5t34 -33t44 -13
q32 0 46.5 21.5t14.5 50.5q0 23 -8 48t-22 45.5t-33.5 33.5t-43.5 13zM293 481q0 -12 -4.5 -19.5t-11 -11.5t-15 -6l-17.5 -4q-25 -7 -36.5 -21t-18.5 -28t-14 -24.5t-24 -10.5q-13 0 -20.5 9.5t-7.5 23.5q0 21 13.5 43t34 40.5t44.5 30.5t44 12q15 0 24 -10t9 -24z" />
    <glyph glyph-name="ocircumflex" unicode="&#xf4;" horiz-adv-x="390" 
d="M366 161q0 -35 -14 -65t-37 -52.5t-54.5 -35t-65.5 -12.5q-35 0 -66 12.5t-54 34.5t-37 52.5t-14 65.5t13.5 65.5t37 53t54.5 35t66 12.5q34 0 65.5 -13t54.5 -35.5t37 -52.5t14 -65zM172 267q-32 0 -46.5 -21.5t-14.5 -52.5q0 -23 7.5 -47.5t21.5 -44.5t34 -33t44 -13
q32 0 46.5 21.5t14.5 50.5q0 23 -8 48t-22 45.5t-33.5 33.5t-43.5 13zM320 379q-2 -9 -7 -15.5t-15 -6.5q-6 0 -21 8.5t-31 19l-31 21l-21 14.5q-5 -3 -19.5 -13.5l-31 -22t-31.5 -20t-21 -8.5q-9 0 -15.5 7t-6.5 16q0 7 6 15l104 107q6 6 16 6q9 0 15 -6l104 -107
q6 -6 6 -15z" />
    <glyph glyph-name="otilde" unicode="&#xf5;" horiz-adv-x="390" 
d="M366 161q0 -35 -14 -65t-37 -52.5t-54.5 -35t-65.5 -12.5q-35 0 -66 12.5t-54 34.5t-37 52.5t-14 65.5t13.5 65.5t37 53t54.5 35t66 12.5q34 0 65.5 -13t54.5 -35.5t37 -52.5t14 -65zM172 267q-32 0 -46.5 -21.5t-14.5 -52.5q0 -23 7.5 -47.5t21.5 -44.5t34 -33t44 -13
q32 0 46.5 21.5t14.5 50.5q0 23 -8 48t-22 45.5t-33.5 33.5t-43.5 13zM235 350q-15 0 -29 8t-26.5 18l-23 18t-18.5 8t-15 -6.5l-14.5 -14t-15.5 -14t-17 -6.5q-10 0 -16 7t-6 17q0 2 1 5.5t2 5.5l40 51q10 13 24 20.5t31 7.5t31 -8t26 -17.5l22.5 -17.5t19.5 -8t14.5 6
l11.5 12.5t13.5 12.5t19.5 6q8 0 14 -6t6 -17q0 -14 -13.5 -29t-25.5 -31q-10 -13 -24.5 -20.5t-31.5 -7.5z" />
    <glyph glyph-name="odieresis" unicode="&#xf6;" horiz-adv-x="390" 
d="M366 161q0 -35 -14 -65t-37 -52.5t-54.5 -35t-65.5 -12.5q-35 0 -66 12.5t-54 34.5t-37 52.5t-14 65.5t13.5 65.5t37 53t54.5 35t66 12.5q34 0 65.5 -13t54.5 -35.5t37 -52.5t14 -65zM172 267q-32 0 -46.5 -21.5t-14.5 -52.5q0 -23 7.5 -47.5t21.5 -44.5t34 -33t44 -13
q32 0 46.5 21.5t14.5 50.5q0 23 -8 48t-22 45.5t-33.5 33.5t-43.5 13zM180 397q0 -17 -12.5 -29t-29.5 -12t-29.5 12t-12.5 29t12.5 29.5t29.5 12.5t29.5 -12.5t12.5 -29.5zM293 397q0 -17 -12.5 -29t-29.5 -12t-29.5 12t-12.5 29t12.5 29.5t29.5 12.5t29.5 -12.5
t12.5 -29.5z" />
    <glyph glyph-name="scaron" unicode="&#x161;" horiz-adv-x="337" 
d="M313 259q0 -22 -11 -36t-34 -14q-24 0 -32 12t-11 26t-5 26t-12 12q-14 0 -14 -22q0 -14 10.5 -31.5l23.5 -37.5t23.5 -42.5t10.5 -46.5q0 -26 -11 -46t-29 -33.5t-41 -20.5t-46 -7q-18 0 -37.5 6t-36 17t-27 27t-10.5 36q0 18 10 31t29 13q23 0 32.5 -14.5t9.5 -34.5
q0 -2 -0.5 -3.5t-0.5 -3.5q5 -9 14.5 -14.5t20.5 -5.5q17 0 26.5 12.5t9.5 28.5q0 19 -9 37t-20 37t-20 39t-9 43q0 19 8 35.5t21 29t30.5 19.5t35.5 7t36.5 -5.5t32.5 -16t23 -25.5t9 -34zM90 484q2 9 7 15.5t15 6.5q6 0 21 -8.5t31 -19l31 -21l21 -14.5q5 3 19.5 13.5
l31 22t31.5 20t21 8.5q9 0 15.5 -7t6.5 -16q0 -7 -6 -15l-104 -107q-6 -6 -16 -6q-9 0 -15 6l-104 107q-6 6 -6 15z" />
    <glyph glyph-name="ugrave" unicode="&#xf9;" horiz-adv-x="434" 
d="M410 37q0 -12 -10.5 -19.5t-24.5 -11.5t-28.5 -5t-23.5 -1q-16 0 -28 3t-16 22q-17 -11 -36 -19t-39 -8q-25 0 -48.5 7.5t-41.5 22.5t-29 36t-11 48v139q-5 -2 -12 -4.5t-12 -2.5q-12 0 -19 8t-7 20q0 17 18 25q22 9 43.5 19t43.5 18h6q11 0 19 -8t8 -19v-209
q0 -20 11 -33t31 -13q35 0 55 22t20 56v121q-5 -2 -12 -4.5t-12 -2.5q-11 0 -19 8.5t-8 19.5q0 9 5.5 15.5t13.5 9.5q22 9 43.5 19t43.5 18h6q11 0 19 -8t8 -19v-246q5 0 8 1.5t8 1.5q11 0 19 -8t8 -19zM279 387q0 -15 -9.5 -23t-23.5 -8q-11 0 -17 7t-11 16.5t-10 20
t-13 17.5q-11 10 -22.5 15t-22 8t-19.5 6t-13 9q-9 12 -9 26q0 15 9 24.5t24 9.5q20 0 44 -12t44.5 -31t34.5 -41.5t14 -43.5z" />
    <glyph glyph-name="uacute" unicode="&#xfa;" horiz-adv-x="434" 
d="M410 37q0 -12 -10.5 -19.5t-24.5 -11.5t-28.5 -5t-23.5 -1q-16 0 -28 3t-16 22q-17 -11 -36 -19t-39 -8q-25 0 -48.5 7.5t-41.5 22.5t-29 36t-11 48v139q-5 -2 -12 -4.5t-12 -2.5q-12 0 -19 8t-7 20q0 17 18 25q22 9 43.5 19t43.5 18h6q11 0 19 -8t8 -19v-209
q0 -20 11 -33t31 -13q35 0 55 22t20 56v121q-5 -2 -12 -4.5t-12 -2.5q-11 0 -19 8.5t-8 19.5q0 9 5.5 15.5t13.5 9.5q22 9 43.5 19t43.5 18h6q11 0 19 -8t8 -19v-246q5 0 8 1.5t8 1.5q11 0 19 -8t8 -19zM323 481q0 -12 -4.5 -19.5t-11 -11.5t-15 -6l-17.5 -4
q-25 -7 -36.5 -21t-18.5 -28t-14 -24.5t-24 -10.5q-13 0 -20.5 9.5t-7.5 23.5q0 21 13.5 43t34 40.5t44.5 30.5t44 12q15 0 24 -10t9 -24z" />
    <glyph glyph-name="ucircumflex" unicode="&#xfb;" horiz-adv-x="434" 
d="M410 37q0 -12 -10.5 -19.5t-24.5 -11.5t-28.5 -5t-23.5 -1q-16 0 -28 3t-16 22q-17 -11 -36 -19t-39 -8q-25 0 -48.5 7.5t-41.5 22.5t-29 36t-11 48v139q-5 -2 -12 -4.5t-12 -2.5q-12 0 -19 8t-7 20q0 17 18 25q22 9 43.5 19t43.5 18h6q11 0 19 -8t8 -19v-209
q0 -20 11 -33t31 -13q35 0 55 22t20 56v121q-5 -2 -12 -4.5t-12 -2.5q-11 0 -19 8.5t-8 19.5q0 9 5.5 15.5t13.5 9.5q22 9 43.5 19t43.5 18h6q11 0 19 -8t8 -19v-246q5 0 8 1.5t8 1.5q11 0 19 -8t8 -19zM342 379q-2 -9 -7 -15.5t-15 -6.5q-6 0 -21 8.5t-31 19l-31 21
l-21 14.5q-5 -3 -19.5 -13.5l-31 -22t-31.5 -20t-21 -8.5q-9 0 -15.5 7t-6.5 16q0 7 6 15l104 107q6 6 16 6q9 0 15 -6l104 -107q6 -6 6 -15z" />
    <glyph glyph-name="udieresis" unicode="&#xfc;" horiz-adv-x="434" 
d="M410 37q0 -12 -10.5 -19.5t-24.5 -11.5t-28.5 -5t-23.5 -1q-16 0 -28 3t-16 22q-17 -11 -36 -19t-39 -8q-25 0 -48.5 7.5t-41.5 22.5t-29 36t-11 48v139q-5 -2 -12 -4.5t-12 -2.5q-12 0 -19 8t-7 20q0 17 18 25q22 9 43.5 19t43.5 18h6q11 0 19 -8t8 -19v-209
q0 -20 11 -33t31 -13q35 0 55 22t20 56v121q-5 -2 -12 -4.5t-12 -2.5q-11 0 -19 8.5t-8 19.5q0 9 5.5 15.5t13.5 9.5q22 9 43.5 19t43.5 18h6q11 0 19 -8t8 -19v-246q5 0 8 1.5t8 1.5q11 0 19 -8t8 -19zM202 397q0 -17 -12.5 -29t-29.5 -12t-29.5 12t-12.5 29t12.5 29.5
t29.5 12.5t29.5 -12.5t12.5 -29.5zM315 397q0 -17 -12.5 -29t-29.5 -12t-29.5 12t-12.5 29t12.5 29.5t29.5 12.5t29.5 -12.5t12.5 -29.5z" />
    <glyph glyph-name="yacute" unicode="&#xfd;" horiz-adv-x="392" 
d="M368 -107q0 -29 -11 -53.5t-30 -43.5t-44.5 -29.5t-53.5 -10.5t-53 10.5t-44 29t-30 43.5t-11 53q0 14 6.5 23t20.5 9q17 0 21.5 -15l10 -33.5t18 -33.5t44.5 -15q28 0 48 19t20 48v126q-14 -10 -34 -16t-37 -6q-27 0 -50 6.5t-44 23.5t-30.5 38t-9.5 47v138
q-5 -2 -12 -4.5t-12 -2.5q-12 0 -19.5 8t-7.5 19q0 10 5.5 16t13.5 10q22 9 43.5 19t43.5 18h6q11 0 19 -8t8 -19v-208q0 -18 10.5 -32.5t30.5 -14.5q30 0 53 18.5t23 50.5v130q-5 -2 -12 -4.5t-12 -2.5q-12 0 -19.5 8t-7.5 19q0 10 5.5 16t13.5 10q22 9 43.5 19t43.5 18h6
q11 0 19 -8t8 -19v-414v0zM319 481q0 -12 -4.5 -19.5t-11 -11.5t-15 -6l-17.5 -4q-25 -7 -36.5 -21t-18.5 -28t-14 -24.5t-24 -10.5q-13 0 -20.5 9.5t-7.5 23.5q0 21 13.5 43t34 40.5t44.5 30.5t44 12q15 0 24 -10t9 -24z" />
    <glyph glyph-name="ydieresis" unicode="&#xff;" horiz-adv-x="392" 
d="M368 -107q0 -29 -11 -53.5t-30 -43.5t-44.5 -29.5t-53.5 -10.5t-53 10.5t-44 29t-30 43.5t-11 53q0 14 6.5 23t20.5 9q17 0 21.5 -15l10 -33.5t18 -33.5t44.5 -15q28 0 48 19t20 48v126q-14 -10 -34 -16t-37 -6q-27 0 -50 6.5t-44 23.5t-30.5 38t-9.5 47v138
q-5 -2 -12 -4.5t-12 -2.5q-12 0 -19.5 8t-7.5 19q0 10 5.5 16t13.5 10q22 9 43.5 19t43.5 18h6q11 0 19 -8t8 -19v-208q0 -18 10.5 -32.5t30.5 -14.5q30 0 53 18.5t23 50.5v130q-5 -2 -12 -4.5t-12 -2.5q-12 0 -19.5 8t-7.5 19q0 10 5.5 16t13.5 10q22 9 43.5 19t43.5 18h6
q11 0 19 -8t8 -19v-414v0zM191 397q0 -17 -12.5 -29t-29.5 -12t-29.5 12t-12.5 29t12.5 29.5t29.5 12.5t29.5 -12.5t12.5 -29.5zM304 397q0 -17 -12.5 -29t-29.5 -12t-29.5 12t-12.5 29t12.5 29.5t29.5 12.5t29.5 -12.5t12.5 -29.5z" />
    <glyph glyph-name="zcaron" unicode="&#x17e;" horiz-adv-x="377" 
d="M353 72q0 -35 -25.5 -54.5t-57.5 -19.5q-31 0 -60 8.5t-60 8.5h-14q-19 0 -30 -7t-23 -7q-11 0 -20.5 8t-9.5 19q0 10 4 15l129 228q-8 4 -22.5 6.5t-22.5 2.5q-25 0 -38.5 -7t-22 -15.5t-14 -15.5t-14.5 -7q-11 0 -19.5 8t-8.5 19q0 18 11 31.5t28.5 22.5t38 13.5
t39.5 4.5q25 0 47 -8t46 -8q9 0 14 2t9.5 5t8.5 5t11 2q12 0 19.5 -7t7.5 -19q0 -10 -4 -15l-117 -208q6 1 12.5 1.5t12.5 0.5q11 0 21.5 -3.5l21 -7l21 -7t21.5 -3.5q6 0 6 7q0 6 -3.5 11.5t-3.5 13.5q0 11 8.5 18t19.5 7q18 0 25.5 -17t7.5 -32zM74 484q2 9 7 15.5t15 6.5
q6 0 21 -8.5t31 -19l31 -21l21 -14.5q5 3 19.5 13.5l31 22t31.5 20t21 8.5q9 0 15.5 -7t6.5 -16q0 -7 -6 -15l-104 -107q-6 -6 -16 -6q-9 0 -15 6l-104 107q-6 6 -6 15z" />
    <glyph glyph-name="space" unicode=" " horiz-adv-x="200" 
 />
    </font>
</defs>
</svg>
